<?xml version="1.0" encoding="us-ascii" standalone="no"?><svg xmlns="http://www.w3.org/2000/svg" xmlns:xlink="http://www.w3.org/1999/xlink" contentStyleType="text/css" height="1281px" preserveAspectRatio="none" style="width:890px;height:1281px;background:#FFFFFF;" version="1.1" viewBox="0 0 890 1281" width="890px" zoomAndPan="magnify"><defs/><g><!--cluster StartingProcess--><g id="cluster_StartingProcess"><path d="M19.5,192 L672.5,192 A12.5,12.5 0 0 1 685,204.5 L685,213.2969 L7,213.2969 L7,204.5 A12.5,12.5 0 0 1 19.5,192 " fill="#F1F1F1" style="stroke:#F1F1F1;stroke-width:1.0;"/><rect fill="none" height="408" rx="12.5" ry="12.5" style="stroke:#181818;stroke-width:0.5;" width="678" x="7" y="192"/><line style="stroke:#181818;stroke-width:0.5;" x1="7" x2="685" y1="213.2969" y2="213.2969"/><text fill="#000000" font-family="sans-serif" font-size="14" lengthAdjust="spacing" textLength="140" x="276" y="209.9951">Starting (Processes)</text></g><!--cluster Terminating--><g id="cluster_Terminating"><path d="M440.5,784 L835.5,784 A12.5,12.5 0 0 1 848,796.5 L848,805.2969 L428,805.2969 L428,796.5 A12.5,12.5 0 0 1 440.5,784 " fill="#F1F1F1" style="stroke:#F1F1F1;stroke-width:1.0;"/><rect fill="none" height="392" rx="12.5" ry="12.5" style="stroke:#181818;stroke-width:0.5;" width="420" x="428" y="784"/><line style="stroke:#181818;stroke-width:0.5;" x1="428" x2="848" y1="805.2969" y2="805.2969"/><text fill="#000000" font-family="sans-serif" font-size="14" lengthAdjust="spacing" textLength="82" x="597" y="801.9951">Terminating</text></g><g id="elem_which"><polygon fill="#F1F1F1" points="284,227,296,239,284,251,272,239,284,227" style="stroke:#181818;stroke-width:0.5;"/></g><g id="StartingProcess.swtpm"><rect fill="#F1F1F1" height="50.2656" rx="12.5" ry="12.5" style="stroke:#181818;stroke-width:0.5;" width="130" x="23" y="328"/><line style="stroke:#181818;stroke-width:0.5;" x1="23" x2="153" y1="354.2969" y2="354.2969"/><text fill="#000000" font-family="sans-serif" font-size="14" lengthAdjust="spacing" textLength="82" x="47" y="345.9951">Start swtpm</text><text fill="#000000" font-family="sans-serif" font-size="12" lengthAdjust="spacing" textLength="110" x="28" y="370.4355">entry/start swtpm</text></g><g id="StartingProcess.qemu"><rect fill="#F1F1F1" height="50.2656" rx="12.5" ry="12.5" style="stroke:#181818;stroke-width:0.5;" width="125" x="418.5" y="328"/><line style="stroke:#181818;stroke-width:0.5;" x1="418.5" x2="543.5" y1="354.2969" y2="354.2969"/><text fill="#000000" font-family="sans-serif" font-size="14" lengthAdjust="spacing" textLength="76" x="443" y="345.9951">Start qemu</text><text fill="#000000" font-family="sans-serif" font-size="12" lengthAdjust="spacing" textLength="105" x="423.5" y="370.4355">entry/start qemu</text></g><g id="StartingProcess.monitor"><rect fill="#F1F1F1" height="50.2656" rx="12.5" ry="12.5" style="stroke:#181818;stroke-width:0.5;" width="227" x="232.5" y="455"/><line style="stroke:#181818;stroke-width:0.5;" x1="232.5" x2="459.5" y1="481.2969" y2="481.2969"/><text fill="#000000" font-family="sans-serif" font-size="14" lengthAdjust="spacing" textLength="95" x="298.5" y="472.9951">Open monitor</text><text fill="#000000" font-family="sans-serif" font-size="12" lengthAdjust="spacing" textLength="207" x="237.5" y="497.4355">entry/fire OpenSocketConnection</text></g><text fill="#000000" font-family="sans-serif" font-size="14" lengthAdjust="spacing" textLength="58" x="306.5" y="618.9951">success</text><ellipse cx="335.5" cy="600" fill="#F1F1F1" rx="6" ry="6" style="stroke:#181818;stroke-width:1.5;"/><line style="stroke:#181818;stroke-width:1.5;" x1="339.8891" x2="332.1109" y1="604.3891" y2="596.6109"/><line style="stroke:#181818;stroke-width:1.5;" x1="339.8891" x2="332.1109" y1="596.6109" y2="604.3891"/><text fill="#000000" font-family="sans-serif" font-size="14" lengthAdjust="spacing" textLength="33" x="112.5" y="618.9951">error</text><ellipse cx="129" cy="600" fill="#F1F1F1" rx="6" ry="6" style="stroke:#181818;stroke-width:1.5;"/><line style="stroke:#181818;stroke-width:1.5;" x1="133.3891" x2="125.6109" y1="604.3891" y2="596.6109"/><line style="stroke:#181818;stroke-width:1.5;" x1="133.3891" x2="125.6109" y1="596.6109" y2="604.3891"/><text fill="#000000" font-family="sans-serif" font-size="14" lengthAdjust="spacing" textLength="75" x="505.5" y="1194.9951">terminated</text><ellipse cx="543" cy="1176" fill="#F1F1F1" rx="6" ry="6" style="stroke:#181818;stroke-width:1.5;"/><line style="stroke:#181818;stroke-width:1.5;" x1="547.3891" x2="539.6109" y1="1180.3891" y2="1172.6109"/><line style="stroke:#181818;stroke-width:1.5;" x1="547.3891" x2="539.6109" y1="1172.6109" y2="1180.3891"/><g id="elem_which2"><polygon fill="#F1F1F1" points="690,946,702,958,690,970,678,958,690,946" style="stroke:#181818;stroke-width:0.5;"/></g><g id="Terminating.qemuPowerdown"><rect fill="#F1F1F1" height="50.2656" rx="12.5" ry="12.5" style="stroke:#181818;stroke-width:0.5;" width="387" x="444.5" y="819"/><line style="stroke:#181818;stroke-width:0.5;" x1="444.5" x2="831.5" y1="845.2969" y2="845.2969"/><text fill="#000000" font-family="sans-serif" font-size="14" lengthAdjust="spacing" textLength="125" x="575.5" y="836.9951">Powerdown qemu</text><text fill="#000000" font-family="sans-serif" font-size="12" lengthAdjust="spacing" textLength="367" x="449.5" y="861.4355">entry/suspend Stop, send powerdown to qemu, start timer</text></g><g id="Terminating.terminateProcesses"><rect fill="#F1F1F1" height="50" rx="12.5" ry="12.5" style="stroke:#181818;stroke-width:0.5;" width="198" x="444" y="1047"/><line style="stroke:#181818;stroke-width:0.5;" x1="444" x2="642" y1="1073.2969" y2="1073.2969"/><text fill="#000000" font-family="sans-serif" font-size="14" lengthAdjust="spacing" textLength="178" x="454" y="1064.9951">Await process termination</text></g><ellipse cx="284" cy="16" fill="#181818" rx="10" ry="10" style="stroke:none;stroke-width:1.0;"/><g id="Initializing"><rect fill="#F1F1F1" height="50" rx="12.5" ry="12.5" style="stroke:#181818;stroke-width:0.5;" width="86" x="241" y="87"/><line style="stroke:#181818;stroke-width:0.5;" x1="241" x2="327" y1="113.2969" y2="113.2969"/><text fill="#000000" font-family="sans-serif" font-size="14" lengthAdjust="spacing" textLength="66" x="251" y="104.9951">Initializing</text></g><g id="Running"><rect fill="#F1F1F1" height="50" rx="12.5" ry="12.5" style="stroke:#181818;stroke-width:0.5;" width="78" x="297" y="679"/><line style="stroke:#181818;stroke-width:0.5;" x1="297" x2="375" y1="705.2969" y2="705.2969"/><text fill="#000000" font-family="sans-serif" font-size="14" lengthAdjust="spacing" textLength="58" x="307" y="696.9951">Running</text></g><ellipse cx="149" cy="1265" fill="none" rx="10" ry="10" style="stroke:#181818;stroke-width:1.0;"/><ellipse cx="149.5" cy="1265.5" fill="#181818" rx="6" ry="6" style="stroke:none;stroke-width:1.0;"/><!--link *start* to Initializing--><g id="link_*start*_Initializing"><path d="M284,26.01 C284,38.7 284,62.41 284,81.57 " fill="none" id="*start*-to-Initializing" style="stroke:#181818;stroke-width:1.0;"/><polygon fill="#181818" points="284,86.84,288,77.84,284,81.84,280,77.84,284,86.84" style="stroke:#181818;stroke-width:1.0;"/></g><!--link Initializing to Initializing--><g id="link_Initializing_Initializing"><path d="M327.31,107 C346,106.59 362,108.26 362,112 C362,115.39 348.86,117.08 332.49,117.06 " fill="none" id="Initializing-to-Initializing" style="stroke:#181818;stroke-width:1.0;"/><polygon fill="#181818" points="327.31,117,336.2637,121.1026,332.3097,117.0571,336.3551,113.1031,327.31,117" style="stroke:#181818;stroke-width:1.0;"/><text fill="#000000" font-family="sans-serif" font-size="13" lengthAdjust="spacing" textLength="230" x="368" y="116.5669">InitialConfiguration/configure Runner</text></g><!--link Initializing to Initializing--><g id="link_Initializing_Initializing"><path d="M327.19,105.85 C417.17,98.97 604,101.02 604,112 C604,122.78 424.04,124.95 332.3,118.52 " fill="none" id="Initializing-to-Initializing-1" style="stroke:#181818;stroke-width:1.0;"/><polygon fill="#181818" points="327.19,118.15,335.868,122.8076,332.1762,118.5215,336.4623,114.8297,327.19,118.15" style="stroke:#181818;stroke-width:1.0;"/><text fill="#000000" font-family="sans-serif" font-size="13" lengthAdjust="spacing" textLength="115" x="610" y="116.5669">Start/start Runner</text></g><!--link which to swtpm--><g id="link_which_swtpm"><path d="M276.56,244.25 C253.66,257.34 182.93,297.75 134.91,325.19 " fill="none" id="which-to-swtpm" style="stroke:#181818;stroke-width:1.0;"/><polygon fill="#181818" points="130.34,327.81,140.1366,326.7969,134.6759,325.3201,136.1527,319.8594,130.34,327.81" style="stroke:#181818;stroke-width:1.0;"/><text fill="#000000" font-family="sans-serif" font-size="13" lengthAdjust="spacing" textLength="79" x="210" y="294.0669">[use swtpm]</text></g><!--link which to qemu--><g id="link_which_qemu"><path d="M291.48,244.25 C314.5,257.34 385.58,297.75 433.85,325.19 " fill="none" id="which-to-qemu" style="stroke:#181818;stroke-width:1.0;"/><polygon fill="#181818" points="438.44,327.81,432.5851,319.8904,434.0909,325.3431,428.6381,326.8489,438.44,327.81" style="stroke:#181818;stroke-width:1.0;"/><text fill="#000000" font-family="sans-serif" font-size="13" lengthAdjust="spacing" textLength="36" x="383" y="294.0669">[else]</text></g><!--link swtpm to error--><g id="link_swtpm_error"><path d="M78.73,378.02 C67.91,409.67 53.26,466.74 68,513 C78.26,545.2 105.45,575.69 119.82,590.19 " fill="none" id="swtpm-to-error" style="stroke:#181818;stroke-width:1.0;"/><polygon fill="#181818" points="123.5,593.84,119.9273,584.662,119.9502,590.3188,114.2934,590.3417,123.5,593.84" style="stroke:#181818;stroke-width:1.0;"/><text fill="#000000" font-family="sans-serif" font-size="13" lengthAdjust="spacing" textLength="145" x="69" y="484.5669">StartProcessError/stop</text></g><!--link swtpm to qemu--><g id="link_swtpm_qemu"><path d="M153.34,353 C225.27,353 340.38,353 413.26,353 " fill="none" id="swtpm-to-qemu" style="stroke:#181818;stroke-width:1.0;"/><polygon fill="#181818" points="418.43,353,409.43,349,413.43,353,409.43,357,418.43,353" style="stroke:#181818;stroke-width:1.0;"/><text fill="#000000" font-family="sans-serif" font-size="13" lengthAdjust="spacing" textLength="229" x="171.25" y="346.0669">FileChanged[swtpm socket created]</text></g><!--link qemu to error--><g id="link_qemu_error"><path d="M506.52,378.1 C513.95,386.73 521.11,397.06 525,408 C546.46,468.3 567.5,504.15 525,552 C521.69,555.72 204.53,590.71 140.27,597.76 " fill="none" id="qemu-to-error" style="stroke:#181818;stroke-width:1.0;"/><polygon fill="#181818" points="135.16,598.33,144.541,601.3294,140.1305,597.7872,143.6726,593.3767,135.16,598.33" style="stroke:#181818;stroke-width:1.0;"/><text fill="#000000" font-family="sans-serif" font-size="13" lengthAdjust="spacing" textLength="145" x="550" y="484.5669">StartProcessError/stop</text></g><!--link qemu to monitor--><g id="link_qemu_monitor"><path d="M418.29,362.93 C367.3,371.63 301.25,386.66 285,408 C273.65,422.9 284.88,438.77 300.66,451.72 " fill="none" id="qemu-to-monitor" style="stroke:#181818;stroke-width:1.0;"/><polygon fill="#181818" points="304.76,454.95,300.153,446.2451,300.8279,451.8615,295.2115,452.5364,304.76,454.95" style="stroke:#181818;stroke-width:1.0;"/><text fill="#000000" font-family="sans-serif" font-size="13" lengthAdjust="spacing" textLength="237" x="286" y="421.0669">FileChanged[monitor socket created]</text></g><!--link monitor to success--><g id="link_monitor_success"><path d="M343.95,505.16 C341.78,530.83 338.44,570.19 336.87,588.71 " fill="none" id="monitor-to-success" style="stroke:#181818;stroke-width:1.0;"/><polygon fill="#181818" points="336.45,593.74,341.2061,585.1156,336.8782,588.7584,333.2355,584.4305,336.45,593.74" style="stroke:#181818;stroke-width:1.0;"/><text fill="#000000" font-family="sans-serif" font-size="13" lengthAdjust="spacing" textLength="186" x="342" y="548.0669">ClientConnected[for monitor]</text></g><!--link monitor to error--><g id="link_monitor_error"><path d="M260.39,505.02 C215.59,517.85 169.15,531.68 165,535 C147.24,549.19 136.75,574.67 132.03,588.82 " fill="none" id="monitor-to-error" style="stroke:#181818;stroke-width:1.0;"/><polygon fill="#181818" points="130.44,593.8,136.9814,586.4373,131.9566,589.0356,129.3583,584.0107,130.44,593.8" style="stroke:#181818;stroke-width:1.0;"/><text fill="#000000" font-family="sans-serif" font-size="13" lengthAdjust="spacing" textLength="165" x="166" y="548.0669">ConnectError[for monitor]</text></g><!--link Initializing to which--><g id="link_Initializing_which"><path d="M284,137.1 C284,161.95 284,200.03 284,221.6 " fill="none" id="Initializing-to-which" style="stroke:#181818;stroke-width:1.0;"/><polygon fill="#181818" points="284,226.71,288,217.71,284,221.71,280,217.71,284,226.71" style="stroke:#181818;stroke-width:1.0;"/><text fill="#000000" font-family="sans-serif" font-size="13" lengthAdjust="spacing" textLength="48" x="285" y="180.0669">Started</text></g><!--link success to Running--><g id="link_success_Running"><path d="M336,606.2 C336,618.43 336,649.77 336,673.51 " fill="none" id="success-to-Running" style="stroke:#181818;stroke-width:1.0;"/><polygon fill="#181818" points="336,678.75,340,669.75,336,673.75,332,669.75,336,678.75" style="stroke:#181818;stroke-width:1.0;"/></g><!--link error to *end*--><g id="link_error_*end*"><path d="M129,606.09 C129,621 129,665.81 129,703 C129,703 129,703 129,1177 C129,1203.69 138.05,1233.83 143.97,1250.71 " fill="none" id="error-to-*end*" style="stroke:#181818;stroke-width:1.0;"/><polygon fill="#181818" points="145.7,1255.51,146.4267,1245.688,144.012,1250.8036,138.8964,1248.3888,145.7,1255.51" style="stroke:#181818;stroke-width:1.0;"/></g><!--link qemuPowerdown to which2--><g id="link_qemuPowerdown_which2"><path d="M649.16,869.03 C659.96,892.29 675.9,926.63 684.32,944.76 " fill="none" id="qemuPowerdown-to-which2" style="stroke:#181818;stroke-width:1.0;"/><polygon fill="#181818" points="686.48,949.42,686.3226,939.5724,684.3765,944.884,679.065,942.9379,686.48,949.42" style="stroke:#181818;stroke-width:1.0;"/><text fill="#000000" font-family="sans-serif" font-size="13" lengthAdjust="spacing" textLength="211" x="671" y="912.0669">Closed[for monitor]/resume Stop</text></g><!--link qemuPowerdown to terminateProcesses--><g id="link_qemuPowerdown_terminateProcesses"><path d="M594.34,869.01 C567.44,886.46 535.28,912.81 520,946 C505.75,976.95 517.06,1016.03 528.27,1042.18 " fill="none" id="qemuPowerdown-to-terminateProcesses" style="stroke:#181818;stroke-width:1.0;"/><polygon fill="#181818" points="530.36,1046.91,530.3915,1037.0612,528.3439,1042.3345,523.0706,1040.2869,530.36,1046.91" style="stroke:#181818;stroke-width:1.0;"/><text fill="#000000" font-family="sans-serif" font-size="13" lengthAdjust="spacing" textLength="139" x="521" y="962.5669">Timeout/resume Stop</text></g><!--link which2 to terminateProcesses--><g id="link_which2_terminateProcesses"><path d="M681.19,961.63 C655.39,969.41 581.28,992.23 573,1000 C561.27,1011.01 553.94,1027.34 549.47,1041.57 " fill="none" id="which2-to-terminateProcesses" style="stroke:#181818;stroke-width:1.0;"/><polygon fill="#181818" points="547.95,1046.7,554.3306,1039.1975,549.3631,1041.9039,546.6568,1036.9364,547.95,1046.7" style="stroke:#181818;stroke-width:1.0;"/><text fill="#000000" font-family="sans-serif" font-size="13" lengthAdjust="spacing" textLength="79" x="574" y="1013.0669">[use swtmp]</text></g><!--link which2 to terminated--><g id="link_which2_terminated"><path d="M690.58,969.67 C691.45,995.46 690.4,1062.16 660,1105 C632.86,1143.24 577.65,1164.22 554.08,1171.75 " fill="none" id="which2-to-terminated" style="stroke:#181818;stroke-width:1.0;"/><polygon fill="#181818" points="549.05,1173.3,558.8281,1174.4784,553.8292,1171.8306,556.477,1166.8317,549.05,1173.3" style="stroke:#181818;stroke-width:1.0;"/><text fill="#000000" font-family="sans-serif" font-size="13" lengthAdjust="spacing" textLength="36" x="684" y="1076.5669">[else]</text></g><!--link terminateProcesses to terminated--><g id="link_terminateProcesses_terminated"><path d="M543,1097.17 C543,1118.58 543,1148.8 543,1164.54 " fill="none" id="terminateProcesses-to-terminated" style="stroke:#181818;stroke-width:1.0;"/><polygon fill="#181818" points="543,1169.65,547,1160.65,543,1164.65,539,1160.65,543,1169.65" style="stroke:#181818;stroke-width:1.0;"/></g><!--link Running to qemuPowerdown--><g id="link_Running_qemuPowerdown"><path d="M375.17,722.9 C427.51,746.82 520.64,789.37 580.82,816.87 " fill="none" id="Running-to-qemuPowerdown" style="stroke:#181818;stroke-width:1.0;"/><polygon fill="#181818" points="585.46,818.99,578.9498,811.5996,580.916,816.9038,575.6119,818.87,585.46,818.99" style="stroke:#181818;stroke-width:1.0;"/><text fill="#000000" font-family="sans-serif" font-size="13" lengthAdjust="spacing" textLength="30" x="488" y="772.0669">Stop</text></g><!--link Running to which2--><g id="link_Running_which2"><path d="M296.93,724.06 C274.32,737.41 247.87,757.59 235,784 C218.45,817.96 210.73,840.05 235,869 C360.84,1019.14 483.61,882.7 669,946 C672.17,947.08 675.45,948.59 678.44,950.14 " fill="none" id="Running-to-which2" style="stroke:#181818;stroke-width:1.0;"/><polygon fill="#181818" points="682.86,952.56,676.8851,944.7306,678.4738,950.1597,673.0446,951.7485,682.86,952.56" style="stroke:#181818;stroke-width:1.0;"/><text fill="#000000" font-family="sans-serif" font-size="13" lengthAdjust="spacing" textLength="190" x="236" y="848.5669">ProcessExited[process qemu]</text></g><!--link terminated to *end*--><g id="link_terminated_*end*"><path d="M536.81,1178.37 C493.01,1188.04 229.61,1246.2 163.86,1260.72 " fill="none" id="terminated-to-*end*" style="stroke:#181818;stroke-width:1.0;"/><polygon fill="#181818" points="158.79,1261.84,168.4379,1263.8193,163.6739,1260.769,166.7243,1256.005,158.79,1261.84" style="stroke:#181818;stroke-width:1.0;"/></g><!--SRC=[ZLJ1Yjim4BtlLmnxQfTT0diC8L122pqrTFSMV33s916D9LUISTkb_rxDQAHOJaBNXo1ftjCypRp9xg62fwSrVDNAg_ga_YXzk2jsC8ikqsvZz5uT1bjxPVIYaHt2zq5hjF-xvCNNrYyS_MR67OIzHxZd8D4-RArfq3bq7- -XTf02SWnlHA8l4iUZQewmMZL7enfShwUnU2cuqVSTtyMhAuYVs0qCe4KH_zQZXiw4TnZB25bFGMveMDbgXR-KtngbVQa3hJNsMbXU4jz0FM61IzWD3kEwcYD8OG3WoM6LAn5PgBtzBVMTlfIMr0sM8MsGQdwceq0n_GmRqtnH9zmSQtt0TXT3pZG_q4DZCJoipGeYV2hWN4bQlJDzX0QiL1bA2Ubq9WAI2ead8NiLh4aDV65yCA_6XfnRe6FTOmkNi3cfG1PeIBaF005MCrf-aQ3vCJF2Nv9MJaNWSJUb4jZo48Y5A4gZmICPRKD7kuVgF2glQ3kbQnwMjwdDl0ImlMr5JlrSp4lXzwqPqRPcrELCvEC2_6cibOTU1ZEb3mLcNfQJ1_hSv7nVDitWGgFQK1FJFuAZPP-bUCEaHuZMygf36S0hDvuh_4pjD6xMnOL5DtJ8cMxHBwKluJLaDOE_f4j9R_7IB7TzTHlVdaUQlijxPd1nbbWb_p5CoXhrJG6f9cdsWa52QLBtYCuccxX8hFSF]--></g></svg>