<?xml version="1.0" encoding="us-ascii" standalone="no"?><svg xmlns="http://www.w3.org/2000/svg" xmlns:xlink="http://www.w3.org/1999/xlink" contentStyleType="text/css" height="1953px" preserveAspectRatio="none" style="width:833px;height:1953px;background:#FFFFFF;" version="1.1" viewBox="0 0 833 1953" width="833px" zoomAndPan="magnify"><defs/><g><!--cluster StartingProcess--><g id="cluster_StartingProcess"><path d="M159.5,200 L681.5,200 A12.5,12.5 0 0 1 694,212.5 L694,221.2969 L147,221.2969 L147,212.5 A12.5,12.5 0 0 1 159.5,200 " fill="#F1F1F1" style="stroke:#F1F1F1;stroke-width:1.0;"/><rect fill="none" height="850" rx="12.5" ry="12.5" style="stroke:#181818;stroke-width:0.5;" width="547" x="147" y="200"/><line style="stroke:#181818;stroke-width:0.5;" x1="147" x2="694" y1="221.2969" y2="221.2969"/><text fill="#000000" font-family="sans-serif" font-size="14" lengthAdjust="spacing" textLength="140" x="350.5" y="217.9951">Starting (Processes)</text></g><!--cluster Terminating--><g id="cluster_Terminating"><path d="M19.5,1274 L522.5,1274 A12.5,12.5 0 0 1 535,1286.5 L535,1295.2969 L7,1295.2969 L7,1286.5 A12.5,12.5 0 0 1 19.5,1274 " fill="#F1F1F1" style="stroke:#F1F1F1;stroke-width:1.0;"/><rect fill="none" height="456" rx="12.5" ry="12.5" style="stroke:#181818;stroke-width:0.5;" width="528" x="7" y="1274"/><line style="stroke:#181818;stroke-width:0.5;" x1="7" x2="535" y1="1295.2969" y2="1295.2969"/><text fill="#000000" font-family="sans-serif" font-size="14" lengthAdjust="spacing" textLength="82" x="230" y="1291.9951">Terminating</text></g><!--cluster Stopped--><g id="cluster_Stopped"><path d="M300.5,1827 L366.5,1827 A12.5,12.5 0 0 1 379,1839.5 L379,1848.2969 L288,1848.2969 L288,1839.5 A12.5,12.5 0 0 1 300.5,1827 " fill="#F1F1F1" style="stroke:#F1F1F1;stroke-width:1.0;"/><rect fill="none" height="120" rx="12.5" ry="12.5" style="stroke:#181818;stroke-width:0.5;" width="91" x="288" y="1827"/><line style="stroke:#181818;stroke-width:0.5;" x1="288" x2="379" y1="1848.2969" y2="1848.2969"/><text fill="#000000" font-family="sans-serif" font-size="14" lengthAdjust="spacing" textLength="59" x="304" y="1844.9951">Stopped</text></g><g id="StartingProcess.qemu"><rect fill="#F1F1F1" height="50.2656" rx="12.5" ry="12.5" style="stroke:#181818;stroke-width:0.5;" width="125" x="237.5" y="524"/><line style="stroke:#181818;stroke-width:0.5;" x1="237.5" x2="362.5" y1="550.2969" y2="550.2969"/><text fill="#000000" font-family="sans-serif" font-size="14" lengthAdjust="spacing" textLength="76" x="262" y="541.9951">Start qemu</text><text fill="#000000" font-family="sans-serif" font-size="12" lengthAdjust="spacing" textLength="105" x="242.5" y="566.4355">entry/start qemu</text></g><g id="StartingProcess.monitor"><rect fill="#F1F1F1" height="50.2656" rx="12.5" ry="12.5" style="stroke:#181818;stroke-width:0.5;" width="227" x="186.5" y="651"/><line style="stroke:#181818;stroke-width:0.5;" x1="186.5" x2="413.5" y1="677.2969" y2="677.2969"/><text fill="#000000" font-family="sans-serif" font-size="14" lengthAdjust="spacing" textLength="95" x="252.5" y="668.9951">Open monitor</text><text fill="#000000" font-family="sans-serif" font-size="12" lengthAdjust="spacing" textLength="207" x="191.5" y="693.4355">entry/fire OpenSocketConnection</text></g><g id="StartingProcess.waitForConfigured"><rect fill="#F1F1F1" height="50.2656" rx="12.5" ry="12.5" style="stroke:#181818;stroke-width:0.5;" width="180" x="323" y="778"/><line style="stroke:#181818;stroke-width:0.5;" x1="323" x2="503" y1="804.2969" y2="804.2969"/><text fill="#000000" font-family="sans-serif" font-size="14" lengthAdjust="spacing" textLength="103" x="361.5" y="795.9951">Configure QMP</text><text fill="#000000" font-family="sans-serif" font-size="12" lengthAdjust="spacing" textLength="160" x="328" y="820.4355">entry/fire QmpCapabilities</text></g><g id="StartingProcess.configure"><rect fill="#F1F1F1" height="50.2656" rx="12.5" ry="12.5" style="stroke:#181818;stroke-width:0.5;" width="176" x="294" y="905"/><line style="stroke:#181818;stroke-width:0.5;" x1="294" x2="470" y1="931.2969" y2="931.2969"/><text fill="#000000" font-family="sans-serif" font-size="14" lengthAdjust="spacing" textLength="113" x="325.5" y="922.9951">Configure QEMU</text><text fill="#000000" font-family="sans-serif" font-size="12" lengthAdjust="spacing" textLength="156" x="299" y="947.4355">entry/fire ConfigureQemu</text></g><text fill="#000000" font-family="sans-serif" font-size="14" lengthAdjust="spacing" textLength="58" x="340.5" y="1068.9951">success</text><ellipse cx="369.5" cy="1050" fill="#F1F1F1" rx="6" ry="6" style="stroke:#181818;stroke-width:1.5;"/><line style="stroke:#181818;stroke-width:1.5;" x1="373.8891" x2="366.1109" y1="1054.3891" y2="1046.6109"/><line style="stroke:#181818;stroke-width:1.5;" x1="373.8891" x2="366.1109" y1="1046.6109" y2="1054.3891"/><text fill="#000000" font-family="sans-serif" font-size="14" lengthAdjust="spacing" textLength="33" x="246.5" y="1068.9951">error</text><ellipse cx="263" cy="1050" fill="#F1F1F1" rx="6" ry="6" style="stroke:#181818;stroke-width:1.5;"/><line style="stroke:#181818;stroke-width:1.5;" x1="267.3891" x2="259.6109" y1="1054.3891" y2="1046.6109"/><line style="stroke:#181818;stroke-width:1.5;" x1="267.3891" x2="259.6109" y1="1046.6109" y2="1054.3891"/><rect fill="#555555" height="8" style="stroke:none;stroke-width:1.0;" width="80" x="339" y="243"/><rect fill="#555555" height="8" style="stroke:none;stroke-width:1.0;" width="80" x="260" y="455"/><g id="StartingProcess.cloudInit"><rect fill="#F1F1F1" height="50.2656" rx="12.5" ry="12.5" style="stroke:#181818;stroke-width:0.5;" width="217" x="279.5" y="328"/><line style="stroke:#181818;stroke-width:0.5;" x1="279.5" x2="496.5" y1="354.2969" y2="354.2969"/><text fill="#000000" font-family="sans-serif" font-size="14" lengthAdjust="spacing" textLength="178" x="299" y="345.9951">Generate cloud-init image</text><text fill="#000000" font-family="sans-serif" font-size="12" lengthAdjust="spacing" textLength="197" x="284.5" y="370.4355">entry/generate cloud-init image</text></g><g id="StartingProcess.swtpm"><rect fill="#F1F1F1" height="50.2656" rx="12.5" ry="12.5" style="stroke:#181818;stroke-width:0.5;" width="130" x="532" y="328"/><line style="stroke:#181818;stroke-width:0.5;" x1="532" x2="662" y1="354.2969" y2="354.2969"/><text fill="#000000" font-family="sans-serif" font-size="14" lengthAdjust="spacing" textLength="82" x="556" y="345.9951">Start swtpm</text><text fill="#000000" font-family="sans-serif" font-size="12" lengthAdjust="spacing" textLength="110" x="537" y="370.4355">entry/start swtpm</text></g><text fill="#000000" font-family="sans-serif" font-size="14" lengthAdjust="spacing" textLength="66" x="344.5" y="1252.6982">terminate</text><ellipse cx="377.5" cy="1274" fill="#F1F1F1" rx="6" ry="6" style="stroke:#181818;stroke-width:1.5;"/><g id="elem_qemuRunning"><polygon fill="#F1F1F1" points="378,1358,390,1370,378,1382,366,1370,378,1358" style="stroke:#181818;stroke-width:0.5;"/></g><text fill="#000000" font-family="sans-serif" font-size="14" lengthAdjust="spacing" textLength="75" x="296.5" y="1748.9951">terminated</text><ellipse cx="334" cy="1730" fill="#F1F1F1" rx="6" ry="6" style="stroke:#181818;stroke-width:1.5;"/><line style="stroke:#181818;stroke-width:1.5;" x1="338.3891" x2="330.6109" y1="1734.3891" y2="1726.6109"/><line style="stroke:#181818;stroke-width:1.5;" x1="338.3891" x2="330.6109" y1="1726.6109" y2="1734.3891"/><g id="Terminating.qemuPowerdown"><rect fill="#F1F1F1" height="50.2656" rx="12.5" ry="12.5" style="stroke:#181818;stroke-width:0.5;" width="387" x="23.5" y="1459"/><line style="stroke:#181818;stroke-width:0.5;" x1="23.5" x2="410.5" y1="1485.2969" y2="1485.2969"/><text fill="#000000" font-family="sans-serif" font-size="14" lengthAdjust="spacing" textLength="125" x="154.5" y="1476.9951">Powerdown qemu</text><text fill="#000000" font-family="sans-serif" font-size="12" lengthAdjust="spacing" textLength="367" x="28.5" y="1501.4355">entry/suspend Stop, send powerdown to qemu, start timer</text></g><g id="Terminating.terminateProcesses"><rect fill="#F1F1F1" height="50" rx="12.5" ry="12.5" style="stroke:#181818;stroke-width:0.5;" width="198" x="235" y="1601"/><line style="stroke:#181818;stroke-width:0.5;" x1="235" x2="433" y1="1627.2969" y2="1627.2969"/><text fill="#000000" font-family="sans-serif" font-size="14" lengthAdjust="spacing" textLength="178" x="245" y="1618.9951">Await process termination</text></g><text fill="#000000" font-family="sans-serif" font-size="14" lengthAdjust="spacing" textLength="58" x="304.5" y="1805.6982">stopped</text><ellipse cx="333.5" cy="1827" fill="#F1F1F1" rx="6" ry="6" style="stroke:#181818;stroke-width:1.5;"/><ellipse cx="334" cy="1921" fill="none" rx="10" ry="10" style="stroke:#181818;stroke-width:1.0;"/><ellipse cx="334.5" cy="1921.5" fill="#181818" rx="6" ry="6" style="stroke:none;stroke-width:1.0;"/><ellipse cx="379" cy="16" fill="#181818" rx="10" ry="10" style="stroke:none;stroke-width:1.0;"/><g id="Initializing"><rect fill="#F1F1F1" height="50" rx="12.5" ry="12.5" style="stroke:#181818;stroke-width:0.5;" width="86" x="336" y="87"/><line style="stroke:#181818;stroke-width:0.5;" x1="336" x2="422" y1="113.2969" y2="113.2969"/><text fill="#000000" font-family="sans-serif" font-size="14" lengthAdjust="spacing" textLength="66" x="346" y="104.9951">Initializing</text></g><g id="Running"><rect fill="#F1F1F1" height="50" rx="12.5" ry="12.5" style="stroke:#181818;stroke-width:0.5;" width="78" x="331" y="1129"/><line style="stroke:#181818;stroke-width:0.5;" x1="331" x2="409" y1="1155.2969" y2="1155.2969"/><text fill="#000000" font-family="sans-serif" font-size="14" lengthAdjust="spacing" textLength="58" x="341" y="1146.9951">Running</text></g><!--link *start* to Initializing--><g id="link_*start*_Initializing"><path d="M379,26.01 C379,38.7 379,62.41 379,81.57 " fill="none" id="*start*-to-Initializing" style="stroke:#181818;stroke-width:1.0;"/><polygon fill="#181818" points="379,86.84,383,77.84,379,81.84,375,77.84,379,86.84" style="stroke:#181818;stroke-width:1.0;"/></g><!--link Initializing to Initializing--><g id="link_Initializing_Initializing"><path d="M422.31,107 C441,106.59 457,108.26 457,112 C457,115.39 443.86,117.08 427.49,117.06 " fill="none" id="Initializing-to-Initializing" style="stroke:#181818;stroke-width:1.0;"/><polygon fill="#181818" points="422.31,117,431.2637,121.1026,427.3097,117.0571,431.3551,113.1031,422.31,117" style="stroke:#181818;stroke-width:1.0;"/><text fill="#000000" font-family="sans-serif" font-size="13" lengthAdjust="spacing" textLength="230" x="463" y="116.5669">InitialConfiguration/configure Runner</text></g><!--link Initializing to Initializing--><g id="link_Initializing_Initializing"><path d="M422.19,105.85 C512.17,98.97 699,101.02 699,112 C699,122.78 519.04,124.95 427.3,118.52 " fill="none" id="Initializing-to-Initializing-1" style="stroke:#181818;stroke-width:1.0;"/><polygon fill="#181818" points="422.19,118.15,430.868,122.8076,427.1762,118.5215,431.4623,114.8297,422.19,118.15" style="stroke:#181818;stroke-width:1.0;"/><text fill="#000000" font-family="sans-serif" font-size="13" lengthAdjust="spacing" textLength="115" x="705" y="116.5669">Start/start Runner</text></g><!--link prepFork to cloudInit--><g id="link_prepFork_cloudInit"><path d="M378.63,251.09 C377.94,256.92 376.5,269.97 376,281 C375.66,288.55 375.18,290.49 376,298 C376.9,306.22 378.56,315.02 380.35,323.08 " fill="none" id="prepFork-to-cloudInit" style="stroke:#181818;stroke-width:1.0;"/><polygon fill="#181818" points="381.48,328,383.3455,318.3294,380.3515,323.129,375.552,320.135,381.48,328" style="stroke:#181818;stroke-width:1.0;"/><text fill="#000000" font-family="sans-serif" font-size="13" lengthAdjust="spacing" textLength="160" x="377" y="294.0669">[cloud-init data provided]</text></g><!--link swtpm to prepJoin--><g id="link_swtpm_prepJoin"><path d="M531.82,376.82 C460.86,401.67 352.37,439.66 314.02,453.09 " fill="none" id="swtpm-to-prepJoin" style="stroke:#181818;stroke-width:1.0;"/><polygon fill="#181818" points="308.89,454.89,318.7043,455.7148,313.6131,453.2491,316.0788,448.1579,308.89,454.89" style="stroke:#181818;stroke-width:1.0;"/><text fill="#000000" font-family="sans-serif" font-size="13" lengthAdjust="spacing" textLength="229" x="440" y="421.0669">FileChanged[swtpm socket created]</text></g><!--link prepFork to swtpm--><g id="link_prepFork_swtpm"><path d="M405.07,251.04 C445.1,256.07 519.43,266.99 542,281 C558.57,291.29 572.07,308.47 581.55,323.35 " fill="none" id="prepFork-to-swtpm" style="stroke:#181818;stroke-width:1.0;"/><polygon fill="#181818" points="584.37,327.89,583.0452,318.1307,581.7431,323.6356,576.2382,322.3336,584.37,327.89" style="stroke:#181818;stroke-width:1.0;"/><text fill="#000000" font-family="sans-serif" font-size="13" lengthAdjust="spacing" textLength="79" x="561" y="294.0669">[use swtpm]</text></g><!--link cloudInit to prepJoin--><g id="link_cloudInit_prepJoin"><path d="M327.01,378.25 C315.02,385.92 304,395.71 297,408 C289.52,421.13 293.58,439.48 296.96,449.91 " fill="none" id="cloudInit-to-prepJoin" style="stroke:#181818;stroke-width:1.0;"/><polygon fill="#181818" points="298.69,454.8,299.479,444.9828,297.0319,450.0829,291.9317,447.6358,298.69,454.8" style="stroke:#181818;stroke-width:1.0;"/><text fill="#000000" font-family="sans-serif" font-size="13" lengthAdjust="spacing" textLength="89" x="298" y="421.0669">ProcessExited</text></g><!--link prepFork to prepJoin--><g id="link_prepFork_prepJoin"><path d="M361.25,251.03 C327.44,257.86 254.49,277.96 224,328 C195.19,375.29 266.09,433.32 291.42,451.95 " fill="none" id="prepFork-to-prepJoin" style="stroke:#181818;stroke-width:1.0;"/><polygon fill="#181818" points="295.58,454.95,290.6379,446.4309,291.5308,452.0168,285.9448,452.9096,295.58,454.95" style="stroke:#181818;stroke-width:1.0;"/><text fill="#000000" font-family="sans-serif" font-size="13" lengthAdjust="spacing" textLength="36" x="225" y="357.5669">[else]</text></g><!--link prepJoin to qemu--><g id="link_prepJoin_qemu"><path d="M300,463.34 C300,472.37 300,497.97 300,518.68 " fill="none" id="prepJoin-to-qemu" style="stroke:#181818;stroke-width:1.0;"/><polygon fill="#181818" points="300,523.82,304,514.82,300,518.82,296,514.82,300,523.82" style="stroke:#181818;stroke-width:1.0;"/></g><!--link qemu to monitor--><g id="link_qemu_monitor"><path d="M300,574.1 C300,594.59 300,624.08 300,645.88 " fill="none" id="qemu-to-monitor" style="stroke:#181818;stroke-width:1.0;"/><polygon fill="#181818" points="300,650.97,304,641.97,300,645.97,296,641.97,300,650.97" style="stroke:#181818;stroke-width:1.0;"/><text fill="#000000" font-family="sans-serif" font-size="13" lengthAdjust="spacing" textLength="237" x="301" y="617.0669">FileChanged[monitor socket created]</text></g><!--link monitor to waitForConfigured--><g id="link_monitor_waitForConfigured"><path d="M321.79,701.1 C340.7,722.03 368.09,752.32 387.92,774.25 " fill="none" id="monitor-to-waitForConfigured" style="stroke:#181818;stroke-width:1.0;"/><polygon fill="#181818" points="391.28,777.97,388.1947,768.6169,387.9202,774.2671,382.27,773.9926,391.28,777.97" style="stroke:#181818;stroke-width:1.0;"/><text fill="#000000" font-family="sans-serif" font-size="13" lengthAdjust="spacing" textLength="186" x="364" y="744.0669">ClientConnected[for monitor]</text></g><!--link monitor to error--><g id="link_monitor_error"><path d="M289.18,701.26 C274.59,735.41 249.36,799.99 240,858 C228.87,926.93 251.26,1010.66 259.84,1039.04 " fill="none" id="monitor-to-error" style="stroke:#181818;stroke-width:1.0;"/><polygon fill="#181818" points="261.36,1043.96,262.5384,1034.1819,259.8906,1039.1808,254.8917,1036.533,261.36,1043.96" style="stroke:#181818;stroke-width:1.0;"/><text fill="#000000" font-family="sans-serif" font-size="13" lengthAdjust="spacing" textLength="165" x="241" y="871.0669">ConnectError[for monitor]</text></g><!--link waitForConfigured to configure--><g id="link_waitForConfigured_configure"><path d="M417.21,828.1 C418.78,842.06 419.28,859.81 415,875 C412.51,883.83 408.14,892.65 403.37,900.53 " fill="none" id="waitForConfigured-to-configure" style="stroke:#181818;stroke-width:1.0;"/><polygon fill="#181818" points="400.69,904.8,408.857,899.2954,403.3438,900.5624,402.0768,895.0493,400.69,904.8" style="stroke:#181818;stroke-width:1.0;"/><text fill="#000000" font-family="sans-serif" font-size="13" lengthAdjust="spacing" textLength="100" x="418" y="871.0669">QmpConfigured</text></g><!--link configure to success--><g id="link_configure_success"><path d="M377.36,955.11 C375.73,964.42 374.05,975.17 373,985 C371,1003.8 370.33,1025.85 370.11,1038.54 " fill="none" id="configure-to-success" style="stroke:#181818;stroke-width:1.0;"/><polygon fill="#181818" points="370.04,1043.67,374.1682,1034.7281,370.1114,1038.6705,366.169,1034.6138,370.04,1043.67" style="stroke:#181818;stroke-width:1.0;"/><text fill="#000000" font-family="sans-serif" font-size="13" lengthAdjust="spacing" textLength="314" x="374" y="998.0669">ConfigureQemu (last handler)/fire cont command</text></g><!--link Initializing to prepFork--><g id="link_Initializing_prepFork"><path d="M379,137.09 C379,167.48 379,218.16 379,237.84 " fill="none" id="Initializing-to-prepFork" style="stroke:#181818;stroke-width:1.0;"/><polygon fill="#181818" points="379,242.89,383,233.89,379,237.89,375,233.89,379,242.89" style="stroke:#181818;stroke-width:1.0;"/><text fill="#000000" font-family="sans-serif" font-size="13" lengthAdjust="spacing" textLength="48" x="380" y="180.0669">Started</text></g><!--link success to Running--><g id="link_success_Running"><path d="M370,1056.2 C370,1068.43 370,1099.77 370,1123.51 " fill="none" id="success-to-Running" style="stroke:#181818;stroke-width:1.0;"/><polygon fill="#181818" points="370,1128.75,374,1119.75,370,1123.75,366,1119.75,370,1128.75" style="stroke:#181818;stroke-width:1.0;"/></g><!--link terminate to qemuRunning--><g id="link_terminate_qemuRunning"><path d="M378,1280.05 C378,1293.55 378,1330.91 378,1352.67 " fill="none" id="terminate-to-qemuRunning" style="stroke:#181818;stroke-width:1.0;"/><polygon fill="#181818" points="378,1357.85,382,1348.85,378,1352.85,374,1348.85,378,1357.85" style="stroke:#181818;stroke-width:1.0;"/></g><!--link qemuRunning to qemuPowerdown--><g id="link_qemuRunning_qemuPowerdown"><path d="M371.49,1375.53 C352.3,1388.88 294.88,1428.82 255.72,1456.07 " fill="none" id="qemuRunning-to-qemuPowerdown" style="stroke:#181818;stroke-width:1.0;"/><polygon fill="#181818" points="251.51,1458.99,261.1852,1457.1489,255.6189,1456.141,256.6268,1450.5746,251.51,1458.99" style="stroke:#181818;stroke-width:1.0;"/><text fill="#000000" font-family="sans-serif" font-size="13" lengthAdjust="spacing" textLength="137" x="317" y="1425.0669">[qemu monitor open]</text></g><!--link qemuRunning to terminateProcesses--><g id="link_qemuRunning_terminateProcesses"><path d="M387.85,1372.36 C406.41,1375.52 446.19,1385.22 463,1412 C500.58,1471.85 502.15,1512.17 463,1571 C455.45,1582.34 445.02,1591.3 433.32,1598.39 " fill="none" id="qemuRunning-to-terminateProcesses" style="stroke:#181818;stroke-width:1.0;"/><polygon fill="#181818" points="428.96,1600.91,438.7541,1599.8726,433.2897,1598.4093,434.753,1592.945,428.96,1600.91" style="stroke:#181818;stroke-width:1.0;"/><text fill="#000000" font-family="sans-serif" font-size="13" lengthAdjust="spacing" textLength="36" x="492" y="1488.5669">[else]</text></g><!--link qemuPowerdown to terminateProcesses--><g id="link_qemuPowerdown_terminateProcesses"><path d="M120.71,1509.02 C82.36,1523.28 51.97,1543.92 74,1571 C93.81,1595.35 166.11,1609.07 229.45,1616.59 " fill="none" id="qemuPowerdown-to-terminateProcesses" style="stroke:#181818;stroke-width:1.0;"/><polygon fill="#181818" points="234.77,1617.2,226.2998,1612.1744,229.8043,1616.615,225.3638,1620.1195,234.77,1617.2" style="stroke:#181818;stroke-width:1.0;"/><text fill="#000000" font-family="sans-serif" font-size="13" lengthAdjust="spacing" textLength="215" x="75" y="1552.0669">Closed[for monitor]/resume Stop,</text><text fill="#000000" font-family="sans-serif" font-size="13" lengthAdjust="spacing" textLength="81" x="142" y="1567.1997">cancel Timer</text></g><!--link qemuPowerdown to terminateProcesses--><g id="link_qemuPowerdown_terminateProcesses"><path d="M260.47,1509.04 C272.76,1517.34 285.4,1527.49 295,1539 C308.92,1555.68 318.88,1578.14 325.25,1595.93 " fill="none" id="qemuPowerdown-to-terminateProcesses-1" style="stroke:#181818;stroke-width:1.0;"/><polygon fill="#181818" points="326.95,1600.81,327.7655,1590.995,325.3046,1596.0885,320.2111,1593.6276,326.95,1600.81" style="stroke:#181818;stroke-width:1.0;"/><text fill="#000000" font-family="sans-serif" font-size="13" lengthAdjust="spacing" textLength="139" x="315" y="1559.5669">Timeout/resume Stop</text></g><!--link terminateProcesses to terminated--><g id="link_terminateProcesses_terminated"><path d="M334,1651.17 C334,1672.58 334,1702.8 334,1718.54 " fill="none" id="terminateProcesses-to-terminated" style="stroke:#181818;stroke-width:1.0;"/><polygon fill="#181818" points="334,1723.65,338,1714.65,334,1718.65,330,1714.65,334,1723.65" style="stroke:#181818;stroke-width:1.0;"/></g><!--link Running to terminate--><g id="link_Running_terminate"><path d="M349.47,1179.32 C340.55,1192.89 333.29,1210.19 339,1226 C344.67,1241.71 358.12,1255.88 367.64,1264.46 " fill="none" id="Running-to-terminate" style="stroke:#181818;stroke-width:1.0;"/><polygon fill="#181818" points="371.44,1267.78,367.2816,1258.8521,367.67,1264.4956,362.0265,1264.884,371.44,1267.78" style="stroke:#181818;stroke-width:1.0;"/><text fill="#000000" font-family="sans-serif" font-size="13" lengthAdjust="spacing" textLength="30" x="340" y="1222.0669">Stop</text></g><!--link Running to terminate--><g id="link_Running_terminate"><path d="M372.47,1179.17 C373.37,1188.49 374.32,1199.23 375,1209 C376.31,1227.86 377.21,1249.89 377.66,1262.56 " fill="none" id="Running-to-terminate-1" style="stroke:#181818;stroke-width:1.0;"/><polygon fill="#181818" points="377.83,1267.69,381.5193,1258.5582,377.6587,1262.6929,373.524,1258.8323,377.83,1267.69" style="stroke:#181818;stroke-width:1.0;"/><text fill="#000000" font-family="sans-serif" font-size="13" lengthAdjust="spacing" textLength="190" x="376" y="1222.0669">ProcessExited[process qemu]</text></g><!--link error to terminate--><g id="link_error_terminate"><path d="M264.03,1056.27 C268.55,1078.47 288.21,1166.05 328,1226 C338.7,1242.12 355.95,1256.71 367.13,1265.22 " fill="none" id="error-to-terminate" style="stroke:#181818;stroke-width:1.0;"/><polygon fill="#181818" points="371.24,1268.27,366.4057,1259.6893,367.228,1265.286,361.6313,1266.1084,371.24,1268.27" style="stroke:#181818;stroke-width:1.0;"/></g><!--link StartingProcess to terminate--><g id="link_StartingProcess_terminate"><path d="M694.0157,276.4016 C695.1267,278.6664 696.2498,281.0313 697.3688,283.4825 C706.32,303.0925 715,328.235 715,352 C715,352 715,352 715,1155 C715,1225.87 446.17,1264.28 388.72,1271.67 " fill="none" id="StartingProcess-to-terminate" style="stroke:#181818;stroke-width:1.0;"/><polygon fill="#181818" points="383.57,1272.33,393.0017,1275.1661,388.5303,1271.701,391.9953,1267.2296,383.57,1272.33" style="stroke:#181818;stroke-width:1.0;"/><text fill="#000000" font-family="sans-serif" font-size="13" lengthAdjust="spacing" textLength="89" x="716" y="744.0669">ProcessExited</text></g><!--link stopped to *end*Stopped--><g id="link_stopped_*end*Stopped"><path d="M334,1833.21 C334,1847.03 334,1884.97 334,1905.82 " fill="none" id="stopped-to-*end*Stopped" style="stroke:#181818;stroke-width:1.0;"/><polygon fill="#181818" points="334,1910.97,338,1901.97,334,1905.97,330,1901.97,334,1910.97" style="stroke:#181818;stroke-width:1.0;"/></g><!--link terminated to stopped--><g id="link_terminated_stopped"><path d="M334,1736.11 C334,1751.12 334,1795.32 334,1815.61 " fill="none" id="terminated-to-stopped" style="stroke:#181818;stroke-width:1.0;"/><polygon fill="#181818" points="334,1820.87,338,1811.87,334,1815.87,330,1811.87,334,1820.87" style="stroke:#181818;stroke-width:1.0;"/></g><!--SRC=[ZLLDRzim3BtdLmWvjKMBteqYm12qmmOKIzVkvEMWsMogrPOyILws5Vll8_LboKssvP18udiKHV8nzTcMNLois3ifhE2T-2NaRb7isCnQnTrQoKUn6pMtGidB9ko0VHob1Fql9_UMQtjfw3in5Wpt5jZI6Obsij6g0MF0d2uPDomQmZ5x8H9zSYBx1lteuBGex1y6aAnN68dI3X7M1MYTdd9tkt6eFHVsHkbaQ8_Xhsy_EKBAHWuqO-E2lhg27y9kb91sjSe1eBNIXymvQD0mO2pFY7l4dz836TyZ4urVyQSqBjy2ffbMJQV6zaBWqvde-Gvyp7H8HVAST0-rHx9LhCx8BRSSWUgxQA7TXhlsTkWTAGPJiHlHmVg9onsqjRSRrJo3POq6Z2THyo8wd0lChGu4vSuneD60N-SHL0oarJz3XsKkqbDcCOQMkiRSn_fch_RETiSIU22woNCDdO5jNibK9W9EJUg_QLz6Fo5evKYXRrcPstWwoowBAWdswFrHOC-I9EuT7ljOGaDgBj3klbSAgDYw4-WcaF1oxCP8sSuSh7nh8yUZhsbN4ZpZm3LPg7VziEO3_o8wd2HWZb1ymyPjvLWpuORoJfZiaeIzIrcVPfjhEo_ZgaIoauuRox0GRGVwrFj28bP1zJsUBjXlAaCv5KEVKDE4aKWXBjAe801DHpULutXy0DqBoTs0VCcLOuC1Q8RGYmxC6EgWu15HpPCI3PI8vAKzFgcM6xK7tQgzB8TjEYx0RwX6D2VScw9_x3F7I_UbMH_RTNfFr4dAHHH3V4e4f02gscabjg32BjyUfhs-lugAdGYJtwZCqQ3B5ekcXdDcQ3cad5ZbIEVCwzUA7lHSubC6ZmI10bDcfgjB3MRimT_wMJPSDj2nXyd__tacWXfjxcsMyGGkVSGkFfY_AZWwOYm6R1sxWGB6JFk_leAnUFLl_pU7apmeY06Rjv262OTpOKICjz85zTasF38JWjEz1_q1]--></g></svg>