<?xml version="1.0" encoding="us-ascii" standalone="no"?><svg xmlns="http://www.w3.org/2000/svg" xmlns:xlink="http://www.w3.org/1999/xlink" contentStyleType="text/css" height="1528px" preserveAspectRatio="none" style="width:746px;height:1528px;background:#FFFFFF;" version="1.1" viewBox="0 0 746 1528" width="746px" zoomAndPan="magnify"><defs/><g><!--cluster StartingProcess--><g id="cluster_StartingProcess"><path d="M19.5,200 L571.5,200 A12.5,12.5 0 0 1 584,212.5 L584,221.2969 L7,221.2969 L7,212.5 A12.5,12.5 0 0 1 19.5,200 " fill="#F1F1F1" style="stroke:#F1F1F1;stroke-width:1.0;"/><rect fill="none" height="543" rx="12.5" ry="12.5" style="stroke:#181818;stroke-width:0.5;" width="577" x="7" y="200"/><line style="stroke:#181818;stroke-width:0.5;" x1="7" x2="584" y1="221.2969" y2="221.2969"/><text fill="#000000" font-family="sans-serif" font-size="14" lengthAdjust="spacing" textLength="140" x="225.5" y="217.9951">Starting (Processes)</text></g><!--cluster Terminating--><g id="cluster_Terminating"><path d="M119.5,967 L622.5,967 A12.5,12.5 0 0 1 635,979.5 L635,988.2969 L107,988.2969 L107,979.5 A12.5,12.5 0 0 1 119.5,967 " fill="#F1F1F1" style="stroke:#F1F1F1;stroke-width:1.0;"/><rect fill="none" height="456" rx="12.5" ry="12.5" style="stroke:#181818;stroke-width:0.5;" width="528" x="107" y="967"/><line style="stroke:#181818;stroke-width:0.5;" x1="107" x2="635" y1="988.2969" y2="988.2969"/><text fill="#000000" font-family="sans-serif" font-size="14" lengthAdjust="spacing" textLength="82" x="330" y="984.9951">Terminating</text></g><g id="elem_which"><polygon fill="#F1F1F1" points="292,243,304,255,292,267,280,255,292,243" style="stroke:#181818;stroke-width:0.5;"/></g><g id="StartingProcess.swtpm"><rect fill="#F1F1F1" height="50.2656" rx="12.5" ry="12.5" style="stroke:#181818;stroke-width:0.5;" width="130" x="31" y="344"/><line style="stroke:#181818;stroke-width:0.5;" x1="31" x2="161" y1="370.2969" y2="370.2969"/><text fill="#000000" font-family="sans-serif" font-size="14" lengthAdjust="spacing" textLength="82" x="55" y="361.9951">Start swtpm</text><text fill="#000000" font-family="sans-serif" font-size="12" lengthAdjust="spacing" textLength="110" x="36" y="386.4355">entry/start swtpm</text></g><g id="StartingProcess.qemu"><rect fill="#F1F1F1" height="50.2656" rx="12.5" ry="12.5" style="stroke:#181818;stroke-width:0.5;" width="125" x="426.5" y="344"/><line style="stroke:#181818;stroke-width:0.5;" x1="426.5" x2="551.5" y1="370.2969" y2="370.2969"/><text fill="#000000" font-family="sans-serif" font-size="14" lengthAdjust="spacing" textLength="76" x="451" y="361.9951">Start qemu</text><text fill="#000000" font-family="sans-serif" font-size="12" lengthAdjust="spacing" textLength="105" x="431.5" y="386.4355">entry/start qemu</text></g><g id="StartingProcess.monitor"><rect fill="#F1F1F1" height="50.2656" rx="12.5" ry="12.5" style="stroke:#181818;stroke-width:0.5;" width="227" x="199.5" y="471"/><line style="stroke:#181818;stroke-width:0.5;" x1="199.5" x2="426.5" y1="497.2969" y2="497.2969"/><text fill="#000000" font-family="sans-serif" font-size="14" lengthAdjust="spacing" textLength="95" x="265.5" y="488.9951">Open monitor</text><text fill="#000000" font-family="sans-serif" font-size="12" lengthAdjust="spacing" textLength="207" x="204.5" y="513.4355">entry/fire OpenSocketConnection</text></g><g id="StartingProcess.configure"><rect fill="#F1F1F1" height="50.2656" rx="12.5" ry="12.5" style="stroke:#181818;stroke-width:0.5;" width="235" x="276.5" y="598"/><line style="stroke:#181818;stroke-width:0.5;" x1="276.5" x2="511.5" y1="624.2969" y2="624.2969"/><text fill="#000000" font-family="sans-serif" font-size="14" lengthAdjust="spacing" textLength="67" x="360.5" y="615.9951">Configure</text><text fill="#000000" font-family="sans-serif" font-size="12" lengthAdjust="spacing" textLength="215" x="281.5" y="640.4355">entry/fire configuration commands</text></g><text fill="#000000" font-family="sans-serif" font-size="14" lengthAdjust="spacing" textLength="58" x="324.5" y="761.9951">success</text><ellipse cx="353.5" cy="743" fill="#F1F1F1" rx="6" ry="6" style="stroke:#181818;stroke-width:1.5;"/><line style="stroke:#181818;stroke-width:1.5;" x1="357.8891" x2="350.1109" y1="747.3891" y2="739.6109"/><line style="stroke:#181818;stroke-width:1.5;" x1="357.8891" x2="350.1109" y1="739.6109" y2="747.3891"/><text fill="#000000" font-family="sans-serif" font-size="14" lengthAdjust="spacing" textLength="33" x="95.5" y="761.9951">error</text><ellipse cx="112" cy="743" fill="#F1F1F1" rx="6" ry="6" style="stroke:#181818;stroke-width:1.5;"/><line style="stroke:#181818;stroke-width:1.5;" x1="116.3891" x2="108.6109" y1="747.3891" y2="739.6109"/><line style="stroke:#181818;stroke-width:1.5;" x1="116.3891" x2="108.6109" y1="739.6109" y2="747.3891"/><text fill="#000000" font-family="sans-serif" font-size="14" lengthAdjust="spacing" textLength="66" x="302.5" y="945.6982">terminate</text><ellipse cx="335.5" cy="967" fill="#F1F1F1" rx="6" ry="6" style="stroke:#181818;stroke-width:1.5;"/><g id="elem_qemuRunning"><polygon fill="#F1F1F1" points="336,1051,348,1063,336,1075,324,1063,336,1051" style="stroke:#181818;stroke-width:0.5;"/></g><text fill="#000000" font-family="sans-serif" font-size="14" lengthAdjust="spacing" textLength="75" x="396.5" y="1441.9951">terminated</text><ellipse cx="434" cy="1423" fill="#F1F1F1" rx="6" ry="6" style="stroke:#181818;stroke-width:1.5;"/><line style="stroke:#181818;stroke-width:1.5;" x1="438.3891" x2="430.6109" y1="1427.3891" y2="1419.6109"/><line style="stroke:#181818;stroke-width:1.5;" x1="438.3891" x2="430.6109" y1="1419.6109" y2="1427.3891"/><g id="Terminating.qemuPowerdown"><rect fill="#F1F1F1" height="50.2656" rx="12.5" ry="12.5" style="stroke:#181818;stroke-width:0.5;" width="387" x="123.5" y="1152"/><line style="stroke:#181818;stroke-width:0.5;" x1="123.5" x2="510.5" y1="1178.2969" y2="1178.2969"/><text fill="#000000" font-family="sans-serif" font-size="14" lengthAdjust="spacing" textLength="125" x="254.5" y="1169.9951">Powerdown qemu</text><text fill="#000000" font-family="sans-serif" font-size="12" lengthAdjust="spacing" textLength="367" x="128.5" y="1194.4355">entry/suspend Stop, send powerdown to qemu, start timer</text></g><g id="Terminating.terminateProcesses"><rect fill="#F1F1F1" height="50" rx="12.5" ry="12.5" style="stroke:#181818;stroke-width:0.5;" width="198" x="335" y="1294"/><line style="stroke:#181818;stroke-width:0.5;" x1="335" x2="533" y1="1320.2969" y2="1320.2969"/><text fill="#000000" font-family="sans-serif" font-size="14" lengthAdjust="spacing" textLength="178" x="345" y="1311.9951">Await process termination</text></g><ellipse cx="292" cy="16" fill="#181818" rx="10" ry="10" style="stroke:none;stroke-width:1.0;"/><g id="Initializing"><rect fill="#F1F1F1" height="50" rx="12.5" ry="12.5" style="stroke:#181818;stroke-width:0.5;" width="86" x="249" y="87"/><line style="stroke:#181818;stroke-width:0.5;" x1="249" x2="335" y1="113.2969" y2="113.2969"/><text fill="#000000" font-family="sans-serif" font-size="14" lengthAdjust="spacing" textLength="66" x="259" y="104.9951">Initializing</text></g><g id="Running"><rect fill="#F1F1F1" height="50" rx="12.5" ry="12.5" style="stroke:#181818;stroke-width:0.5;" width="78" x="315" y="822"/><line style="stroke:#181818;stroke-width:0.5;" x1="315" x2="393" y1="848.2969" y2="848.2969"/><text fill="#000000" font-family="sans-serif" font-size="14" lengthAdjust="spacing" textLength="58" x="325" y="839.9951">Running</text></g><ellipse cx="434" cy="1512" fill="none" rx="10" ry="10" style="stroke:#181818;stroke-width:1.0;"/><ellipse cx="434.5" cy="1512.5" fill="#181818" rx="6" ry="6" style="stroke:none;stroke-width:1.0;"/><!--link *start* to Initializing--><g id="link_*start*_Initializing"><path d="M292,26.01 C292,38.7 292,62.41 292,81.57 " fill="none" id="*start*-to-Initializing" style="stroke:#181818;stroke-width:1.0;"/><polygon fill="#181818" points="292,86.84,296,77.84,292,81.84,288,77.84,292,86.84" style="stroke:#181818;stroke-width:1.0;"/></g><!--link Initializing to Initializing--><g id="link_Initializing_Initializing"><path d="M335.31,107 C354,106.59 370,108.26 370,112 C370,115.39 356.86,117.08 340.49,117.06 " fill="none" id="Initializing-to-Initializing" style="stroke:#181818;stroke-width:1.0;"/><polygon fill="#181818" points="335.31,117,344.2637,121.1026,340.3097,117.0571,344.3551,113.1031,335.31,117" style="stroke:#181818;stroke-width:1.0;"/><text fill="#000000" font-family="sans-serif" font-size="13" lengthAdjust="spacing" textLength="230" x="376" y="116.5669">InitialConfiguration/configure Runner</text></g><!--link Initializing to Initializing--><g id="link_Initializing_Initializing"><path d="M335.19,105.85 C425.17,98.97 612,101.02 612,112 C612,122.78 432.04,124.95 340.3,118.52 " fill="none" id="Initializing-to-Initializing-1" style="stroke:#181818;stroke-width:1.0;"/><polygon fill="#181818" points="335.19,118.15,343.868,122.8076,340.1762,118.5215,344.4623,114.8297,335.19,118.15" style="stroke:#181818;stroke-width:1.0;"/><text fill="#000000" font-family="sans-serif" font-size="13" lengthAdjust="spacing" textLength="115" x="618" y="116.5669">Start/start Runner</text></g><!--link which to swtpm--><g id="link_which_swtpm"><path d="M284.56,260.25 C261.66,273.34 190.93,313.75 142.91,341.19 " fill="none" id="which-to-swtpm" style="stroke:#181818;stroke-width:1.0;"/><polygon fill="#181818" points="138.34,343.81,148.1366,342.7969,142.6759,341.3201,144.1527,335.8594,138.34,343.81" style="stroke:#181818;stroke-width:1.0;"/><text fill="#000000" font-family="sans-serif" font-size="13" lengthAdjust="spacing" textLength="79" x="218" y="310.0669">[use swtpm]</text></g><!--link which to qemu--><g id="link_which_qemu"><path d="M298.45,260.64 C301.33,262.65 304.79,265.01 308,267 C351.01,293.7 401.41,321.56 438.09,341.24 " fill="none" id="which-to-qemu" style="stroke:#181818;stroke-width:1.0;"/><polygon fill="#181818" points="442.94,343.84,436.8851,336.0722,438.5294,341.4848,433.1168,343.1292,442.94,343.84" style="stroke:#181818;stroke-width:1.0;"/><text fill="#000000" font-family="sans-serif" font-size="13" lengthAdjust="spacing" textLength="36" x="387" y="310.0669">[else]</text></g><!--link swtpm to qemu--><g id="link_swtpm_qemu"><path d="M161.34,369 C233.27,369 348.38,369 421.26,369 " fill="none" id="swtpm-to-qemu" style="stroke:#181818;stroke-width:1.0;"/><polygon fill="#181818" points="426.43,369,417.43,365,421.43,369,417.43,373,426.43,369" style="stroke:#181818;stroke-width:1.0;"/><text fill="#000000" font-family="sans-serif" font-size="13" lengthAdjust="spacing" textLength="229" x="179.25" y="362.0669">FileChanged[swtpm socket created]</text></g><!--link qemu to monitor--><g id="link_qemu_monitor"><path d="M426.33,380.2 C396.89,387.86 363.24,401.13 340,424 C328.7,435.12 322.06,451.46 318.19,465.66 " fill="none" id="qemu-to-monitor" style="stroke:#181818;stroke-width:1.0;"/><polygon fill="#181818" points="316.89,470.78,323.0017,463.0568,318.1329,465.9369,315.2528,461.0682,316.89,470.78" style="stroke:#181818;stroke-width:1.0;"/><text fill="#000000" font-family="sans-serif" font-size="13" lengthAdjust="spacing" textLength="237" x="341" y="437.0669">FileChanged[monitor socket created]</text></g><!--link monitor to configure--><g id="link_monitor_configure"><path d="M328.62,521.1 C342.06,541.85 361.49,571.82 375.67,593.71 " fill="none" id="monitor-to-configure" style="stroke:#181818;stroke-width:1.0;"/><polygon fill="#181818" points="378.43,597.97,376.8812,588.2437,375.7061,593.7771,370.1726,592.602,378.43,597.97" style="stroke:#181818;stroke-width:1.0;"/><text fill="#000000" font-family="sans-serif" font-size="13" lengthAdjust="spacing" textLength="186" x="359" y="564.0669">ClientConnected[for monitor]</text></g><!--link monitor to error--><g id="link_monitor_error"><path d="M200.93,521.01 C159.41,535.93 116.51,559.85 92,598 C64.11,641.42 93.52,707.33 106.5,732.12 " fill="none" id="monitor-to-error" style="stroke:#181818;stroke-width:1.0;"/><polygon fill="#181818" points="109,736.76,108.2759,726.9378,106.6389,732.3526,101.2241,730.7156,109,736.76" style="stroke:#181818;stroke-width:1.0;"/><text fill="#000000" font-family="sans-serif" font-size="13" lengthAdjust="spacing" textLength="165" x="93" y="627.5669">ConnectError[for monitor]</text></g><!--link configure to success--><g id="link_configure_success"><path d="M373.16,648.25 C366.8,657.05 360.54,667.44 357,678 C350.92,696.11 351.65,718.72 352.79,731.64 " fill="none" id="configure-to-success" style="stroke:#181818;stroke-width:1.0;"/><polygon fill="#181818" points="353.31,736.85,356.3893,727.4949,352.8097,731.8751,348.4294,728.2955,353.31,736.85" style="stroke:#181818;stroke-width:1.0;"/><text fill="#000000" font-family="sans-serif" font-size="13" lengthAdjust="spacing" textLength="220" x="358" y="691.0669">last completed/fire cont command</text></g><!--link Initializing to which--><g id="link_Initializing_which"><path d="M292,137.24 C292,165.93 292,212.94 292,237.65 " fill="none" id="Initializing-to-which" style="stroke:#181818;stroke-width:1.0;"/><polygon fill="#181818" points="292,242.85,296,233.85,292,237.85,288,233.85,292,242.85" style="stroke:#181818;stroke-width:1.0;"/><text fill="#000000" font-family="sans-serif" font-size="13" lengthAdjust="spacing" textLength="48" x="293" y="180.0669">Started</text></g><!--link success to Running--><g id="link_success_Running"><path d="M354,749.2 C354,761.43 354,792.77 354,816.51 " fill="none" id="success-to-Running" style="stroke:#181818;stroke-width:1.0;"/><polygon fill="#181818" points="354,821.75,358,812.75,354,816.75,350,812.75,354,821.75" style="stroke:#181818;stroke-width:1.0;"/></g><!--link terminate to qemuRunning--><g id="link_terminate_qemuRunning"><path d="M336,973.05 C336,986.55 336,1023.91 336,1045.67 " fill="none" id="terminate-to-qemuRunning" style="stroke:#181818;stroke-width:1.0;"/><polygon fill="#181818" points="336,1050.85,340,1041.85,336,1045.85,332,1041.85,336,1050.85" style="stroke:#181818;stroke-width:1.0;"/></g><!--link qemuRunning to qemuPowerdown--><g id="link_qemuRunning_qemuPowerdown"><path d="M334.38,1073.55 C331.67,1089.55 326.09,1122.4 321.99,1146.61 " fill="none" id="qemuRunning-to-qemuPowerdown" style="stroke:#181818;stroke-width:1.0;"/><polygon fill="#181818" points="321.13,1151.64,326.5899,1143.4431,321.9728,1146.7115,318.7043,1142.0945,321.13,1151.64" style="stroke:#181818;stroke-width:1.0;"/><text fill="#000000" font-family="sans-serif" font-size="13" lengthAdjust="spacing" textLength="137" x="329" y="1118.0669">[qemu monitor open]</text></g><!--link qemuRunning to terminateProcesses--><g id="link_qemuRunning_terminateProcesses"><path d="M345.66,1065.36 C369.1,1068.97 430.33,1080.24 475,1105 C535.06,1138.29 548.94,1164.78 563,1232 C565.91,1245.92 570.88,1252.16 563,1264 C555.45,1275.34 545.02,1284.3 533.32,1291.39 " fill="none" id="qemuRunning-to-terminateProcesses" style="stroke:#181818;stroke-width:1.0;"/><polygon fill="#181818" points="528.96,1293.91,538.7541,1292.8726,533.2897,1291.4093,534.753,1285.945,528.96,1293.91" style="stroke:#181818;stroke-width:1.0;"/><text fill="#000000" font-family="sans-serif" font-size="13" lengthAdjust="spacing" textLength="36" x="556" y="1181.5669">[else]</text></g><!--link qemuPowerdown to terminateProcesses--><g id="link_qemuPowerdown_terminateProcesses"><path d="M220.71,1202.02 C182.36,1216.28 151.97,1236.92 174,1264 C193.81,1288.35 266.11,1302.07 329.45,1309.59 " fill="none" id="qemuPowerdown-to-terminateProcesses" style="stroke:#181818;stroke-width:1.0;"/><polygon fill="#181818" points="334.77,1310.2,326.2998,1305.1744,329.8043,1309.615,325.3638,1313.1195,334.77,1310.2" style="stroke:#181818;stroke-width:1.0;"/><text fill="#000000" font-family="sans-serif" font-size="13" lengthAdjust="spacing" textLength="215" x="175" y="1245.0669">Closed[for monitor]/resume Stop,</text><text fill="#000000" font-family="sans-serif" font-size="13" lengthAdjust="spacing" textLength="81" x="242" y="1260.1997">cancel Timer</text></g><!--link qemuPowerdown to terminateProcesses--><g id="link_qemuPowerdown_terminateProcesses"><path d="M360.47,1202.04 C372.76,1210.34 385.4,1220.49 395,1232 C408.92,1248.68 418.88,1271.14 425.25,1288.93 " fill="none" id="qemuPowerdown-to-terminateProcesses-1" style="stroke:#181818;stroke-width:1.0;"/><polygon fill="#181818" points="426.95,1293.81,427.7655,1283.995,425.3046,1289.0885,420.2111,1286.6276,426.95,1293.81" style="stroke:#181818;stroke-width:1.0;"/><text fill="#000000" font-family="sans-serif" font-size="13" lengthAdjust="spacing" textLength="139" x="415" y="1252.5669">Timeout/resume Stop</text></g><!--link terminateProcesses to terminated--><g id="link_terminateProcesses_terminated"><path d="M434,1344.17 C434,1365.58 434,1395.8 434,1411.54 " fill="none" id="terminateProcesses-to-terminated" style="stroke:#181818;stroke-width:1.0;"/><polygon fill="#181818" points="434,1416.65,438,1407.65,434,1411.65,430,1407.65,434,1416.65" style="stroke:#181818;stroke-width:1.0;"/></g><!--link Running to terminate--><g id="link_Running_terminate"><path d="M319.6,872.18 C310.52,880.49 301.9,890.6 297,902 C287.77,923.45 310.64,946.27 325.15,958.01 " fill="none" id="Running-to-terminate" style="stroke:#181818;stroke-width:1.0;"/><polygon fill="#181818" points="329.33,961.28,324.6881,952.5936,325.3855,958.2073,319.7719,958.9048,329.33,961.28" style="stroke:#181818;stroke-width:1.0;"/><text fill="#000000" font-family="sans-serif" font-size="13" lengthAdjust="spacing" textLength="30" x="298" y="915.0669">Stop</text></g><!--link Running to terminate--><g id="link_Running_terminate"><path d="M350.31,872.16 C346.4,897.83 340.39,937.19 337.57,955.71 " fill="none" id="Running-to-terminate-1" style="stroke:#181818;stroke-width:1.0;"/><polygon fill="#181818" points="336.8,960.74,342.0932,952.4344,337.5431,955.7955,334.182,951.2455,336.8,960.74" style="stroke:#181818;stroke-width:1.0;"/><text fill="#000000" font-family="sans-serif" font-size="13" lengthAdjust="spacing" textLength="190" x="346" y="915.0669">ProcessExited[process qemu]</text></g><!--link error to terminate--><g id="link_error_terminate"><path d="M117.06,749.22 C137.76,770.53 218.11,852.99 286,919 C299.9,932.52 316.34,947.84 326.46,957.22 " fill="none" id="error-to-terminate" style="stroke:#181818;stroke-width:1.0;"/><polygon fill="#181818" points="330.39,960.84,326.5045,951.79,326.7215,957.4427,321.0688,957.6596,330.39,960.84" style="stroke:#181818;stroke-width:1.0;"/></g><!--link StartingProcess to terminate--><g id="link_StartingProcess_terminate"><path d="M584.1665,287.0597 C584.2371,287.2157 584.3078,287.3721 584.3785,287.529 C584.6614,288.1564 584.9449,288.7905 585.2288,289.4313 C585.7966,290.7127 586.3661,292.0205 586.935,293.3525 C596.0375,314.665 605,342.2 605,368 C605,368 605,368 605,848 C605,962.9 396.62,966.95 346.67,966.27 " fill="none" id="StartingProcess-to-terminate" style="stroke:#181818;stroke-width:1.0;"/><polygon fill="#181818" points="341.62,966.18,350.5501,970.3337,346.6193,966.2657,350.6872,962.3349,341.62,966.18" style="stroke:#181818;stroke-width:1.0;"/><text fill="#000000" font-family="sans-serif" font-size="13" lengthAdjust="spacing" textLength="89" x="606" y="627.5669">ProcessExited</text></g><!--link terminated to *end*--><g id="link_terminated_*end*"><path d="M434,1429.18 C434,1442.29 434,1477.12 434,1496.85 " fill="none" id="terminated-to-*end*" style="stroke:#181818;stroke-width:1.0;"/><polygon fill="#181818" points="434,1501.99,438,1492.99,434,1496.99,430,1492.99,434,1501.99" style="stroke:#181818;stroke-width:1.0;"/></g><!--SRC=[ZLLDRzim3BtdLn0vRKMBt8qWm11qG4yDrjuo7moPIOJPaYV9yBPY_tsYlYAvphOS3Cbyxuca7ftZNGqF3pju4jpmfkE_k3YlYXtCebNSxQKuyVEe6iEbsB2mG_Wo2e7gNo8lfb5ce-cP62kmUuEmTa6YVJWeoL1hr1_Nq6Y8WV0QteX4Fq-SBfnTOBjb5yaPxdPvp8k2dipGEostMa1yntvq05eKyUS11VJIrY6LGuHr0OfjGOT8RSanUcGk- -qMVt1pa5oOCbTKIggbSAZMrqdtvegeu3XgzEjwZg0gB00xZNNgbcUXCEfdk8Ey6xI4HFtCEznV6d76zkX3Mh9lQ80fjCcsITN3Sz5h1sdbqWajWr8tlfqfGvGEyQX-ujPdT1il3czRBf2H3GkqEozTG0NxZbjw0Dj3JnOIeFMCkFDNO3aU_KYx1O9_PcTa-R5yFkokxnlHwXd3NwBtGmLTemqXXmvjWad6HFOAVbD7oico0kwsmqnXwmOfM8oYD5vkhEDylQBgkMZSXBtblZCXWEGzgcJ1ctIJGV76f2MLzhR3rmSveMhb9CfvIwyByAUfuGQ6CFHHtxRLyT9vwMCHRNEj9qv2waKqPImb0b82rT5vDbf2MhVLoxJtvrVbk9MwSK96RILRUsbok0TDoo7rn4X7kWS_HuRtg7B75Ogtah26bthcyur2FVReJ_qgM2COTl1wrVy_PIB8qUHgiuudSAaHBRpOloe8tGW6oKVhA5jLT0CbR3ljFva5O_Nkx-9lWYltiScyI-3ZNVq7]--></g></svg>