<?xml version="1.0" encoding="us-ascii" standalone="no"?><svg xmlns="http://www.w3.org/2000/svg" xmlns:xlink="http://www.w3.org/1999/xlink" contentStyleType="text/css" height="1773px" preserveAspectRatio="none" style="width:910px;height:1773px;background:#FFFFFF;" version="1.1" viewBox="0 0 910 1773" width="910px" zoomAndPan="magnify"><defs/><g><!--cluster StartingProcess--><g id="cluster_StartingProcess"><path d="M183.5,200 L735.5,200 A12.5,12.5 0 0 1 748,212.5 L748,221.2969 L171,221.2969 L171,212.5 A12.5,12.5 0 0 1 183.5,200 " fill="#F1F1F1" style="stroke:#F1F1F1;stroke-width:1.0;"/><rect fill="none" height="670" rx="12.5" ry="12.5" style="stroke:#181818;stroke-width:0.5;" width="577" x="171" y="200"/><line style="stroke:#181818;stroke-width:0.5;" x1="171" x2="748" y1="221.2969" y2="221.2969"/><text fill="#000000" font-family="sans-serif" font-size="14" lengthAdjust="spacing" textLength="140" x="389.5" y="217.9951">Starting (Processes)</text></g><!--cluster Terminating--><g id="cluster_Terminating"><path d="M19.5,1094 L522.5,1094 A12.5,12.5 0 0 1 535,1106.5 L535,1115.2969 L7,1115.2969 L7,1106.5 A12.5,12.5 0 0 1 19.5,1094 " fill="#F1F1F1" style="stroke:#F1F1F1;stroke-width:1.0;"/><rect fill="none" height="456" rx="12.5" ry="12.5" style="stroke:#181818;stroke-width:0.5;" width="528" x="7" y="1094"/><line style="stroke:#181818;stroke-width:0.5;" x1="7" x2="535" y1="1115.2969" y2="1115.2969"/><text fill="#000000" font-family="sans-serif" font-size="14" lengthAdjust="spacing" textLength="82" x="230" y="1111.9951">Terminating</text></g><!--cluster Stopped--><g id="cluster_Stopped"><path d="M300.5,1647 L366.5,1647 A12.5,12.5 0 0 1 379,1659.5 L379,1668.2969 L288,1668.2969 L288,1659.5 A12.5,12.5 0 0 1 300.5,1647 " fill="#F1F1F1" style="stroke:#F1F1F1;stroke-width:1.0;"/><rect fill="none" height="120" rx="12.5" ry="12.5" style="stroke:#181818;stroke-width:0.5;" width="91" x="288" y="1647"/><line style="stroke:#181818;stroke-width:0.5;" x1="288" x2="379" y1="1668.2969" y2="1668.2969"/><text fill="#000000" font-family="sans-serif" font-size="14" lengthAdjust="spacing" textLength="59" x="304" y="1664.9951">Stopped</text></g><g id="elem_which"><polygon fill="#F1F1F1" points="456,243,468,255,456,267,444,255,456,243" style="stroke:#181818;stroke-width:0.5;"/></g><g id="StartingProcess.swtpm"><rect fill="#F1F1F1" height="50.2656" rx="12.5" ry="12.5" style="stroke:#181818;stroke-width:0.5;" width="130" x="195" y="344"/><line style="stroke:#181818;stroke-width:0.5;" x1="195" x2="325" y1="370.2969" y2="370.2969"/><text fill="#000000" font-family="sans-serif" font-size="14" lengthAdjust="spacing" textLength="82" x="219" y="361.9951">Start swtpm</text><text fill="#000000" font-family="sans-serif" font-size="12" lengthAdjust="spacing" textLength="110" x="200" y="386.4355">entry/start swtpm</text></g><g id="StartingProcess.qemu"><rect fill="#F1F1F1" height="50.2656" rx="12.5" ry="12.5" style="stroke:#181818;stroke-width:0.5;" width="125" x="590.5" y="344"/><line style="stroke:#181818;stroke-width:0.5;" x1="590.5" x2="715.5" y1="370.2969" y2="370.2969"/><text fill="#000000" font-family="sans-serif" font-size="14" lengthAdjust="spacing" textLength="76" x="615" y="361.9951">Start qemu</text><text fill="#000000" font-family="sans-serif" font-size="12" lengthAdjust="spacing" textLength="105" x="595.5" y="386.4355">entry/start qemu</text></g><g id="StartingProcess.monitor"><rect fill="#F1F1F1" height="50.2656" rx="12.5" ry="12.5" style="stroke:#181818;stroke-width:0.5;" width="227" x="360.5" y="471"/><line style="stroke:#181818;stroke-width:0.5;" x1="360.5" x2="587.5" y1="497.2969" y2="497.2969"/><text fill="#000000" font-family="sans-serif" font-size="14" lengthAdjust="spacing" textLength="95" x="426.5" y="488.9951">Open monitor</text><text fill="#000000" font-family="sans-serif" font-size="12" lengthAdjust="spacing" textLength="207" x="365.5" y="513.4355">entry/fire OpenSocketConnection</text></g><g id="StartingProcess.waitForConfigured"><rect fill="#F1F1F1" height="50.2656" rx="12.5" ry="12.5" style="stroke:#181818;stroke-width:0.5;" width="180" x="384" y="598"/><line style="stroke:#181818;stroke-width:0.5;" x1="384" x2="564" y1="624.2969" y2="624.2969"/><text fill="#000000" font-family="sans-serif" font-size="14" lengthAdjust="spacing" textLength="103" x="422.5" y="615.9951">Configure QMP</text><text fill="#000000" font-family="sans-serif" font-size="12" lengthAdjust="spacing" textLength="160" x="389" y="640.4355">entry/fire QmpCapabilities</text></g><g id="StartingProcess.configure"><rect fill="#F1F1F1" height="50.2656" rx="12.5" ry="12.5" style="stroke:#181818;stroke-width:0.5;" width="255" x="324.5" y="725"/><line style="stroke:#181818;stroke-width:0.5;" x1="324.5" x2="579.5" y1="751.2969" y2="751.2969"/><text fill="#000000" font-family="sans-serif" font-size="14" lengthAdjust="spacing" textLength="113" x="395.5" y="742.9951">Configure QEMU</text><text fill="#000000" font-family="sans-serif" font-size="12" lengthAdjust="spacing" textLength="235" x="329.5" y="767.4355">entry/fire RunnerConfigurationUpdate</text></g><text fill="#000000" font-family="sans-serif" font-size="14" lengthAdjust="spacing" textLength="58" x="324.5" y="888.9951">success</text><ellipse cx="353.5" cy="870" fill="#F1F1F1" rx="6" ry="6" style="stroke:#181818;stroke-width:1.5;"/><line style="stroke:#181818;stroke-width:1.5;" x1="357.8891" x2="350.1109" y1="874.3891" y2="866.6109"/><line style="stroke:#181818;stroke-width:1.5;" x1="357.8891" x2="350.1109" y1="866.6109" y2="874.3891"/><text fill="#000000" font-family="sans-serif" font-size="14" lengthAdjust="spacing" textLength="33" x="250.5" y="888.9951">error</text><ellipse cx="267" cy="870" fill="#F1F1F1" rx="6" ry="6" style="stroke:#181818;stroke-width:1.5;"/><line style="stroke:#181818;stroke-width:1.5;" x1="271.3891" x2="263.6109" y1="874.3891" y2="866.6109"/><line style="stroke:#181818;stroke-width:1.5;" x1="271.3891" x2="263.6109" y1="866.6109" y2="874.3891"/><text fill="#000000" font-family="sans-serif" font-size="14" lengthAdjust="spacing" textLength="66" x="344.5" y="1072.6982">terminate</text><ellipse cx="377.5" cy="1094" fill="#F1F1F1" rx="6" ry="6" style="stroke:#181818;stroke-width:1.5;"/><g id="elem_qemuRunning"><polygon fill="#F1F1F1" points="378,1178,390,1190,378,1202,366,1190,378,1178" style="stroke:#181818;stroke-width:0.5;"/></g><text fill="#000000" font-family="sans-serif" font-size="14" lengthAdjust="spacing" textLength="75" x="296.5" y="1568.9951">terminated</text><ellipse cx="334" cy="1550" fill="#F1F1F1" rx="6" ry="6" style="stroke:#181818;stroke-width:1.5;"/><line style="stroke:#181818;stroke-width:1.5;" x1="338.3891" x2="330.6109" y1="1554.3891" y2="1546.6109"/><line style="stroke:#181818;stroke-width:1.5;" x1="338.3891" x2="330.6109" y1="1546.6109" y2="1554.3891"/><g id="Terminating.qemuPowerdown"><rect fill="#F1F1F1" height="50.2656" rx="12.5" ry="12.5" style="stroke:#181818;stroke-width:0.5;" width="387" x="23.5" y="1279"/><line style="stroke:#181818;stroke-width:0.5;" x1="23.5" x2="410.5" y1="1305.2969" y2="1305.2969"/><text fill="#000000" font-family="sans-serif" font-size="14" lengthAdjust="spacing" textLength="125" x="154.5" y="1296.9951">Powerdown qemu</text><text fill="#000000" font-family="sans-serif" font-size="12" lengthAdjust="spacing" textLength="367" x="28.5" y="1321.4355">entry/suspend Stop, send powerdown to qemu, start timer</text></g><g id="Terminating.terminateProcesses"><rect fill="#F1F1F1" height="50" rx="12.5" ry="12.5" style="stroke:#181818;stroke-width:0.5;" width="198" x="235" y="1421"/><line style="stroke:#181818;stroke-width:0.5;" x1="235" x2="433" y1="1447.2969" y2="1447.2969"/><text fill="#000000" font-family="sans-serif" font-size="14" lengthAdjust="spacing" textLength="178" x="245" y="1438.9951">Await process termination</text></g><text fill="#000000" font-family="sans-serif" font-size="14" lengthAdjust="spacing" textLength="58" x="304.5" y="1625.6982">stopped</text><ellipse cx="333.5" cy="1647" fill="#F1F1F1" rx="6" ry="6" style="stroke:#181818;stroke-width:1.5;"/><ellipse cx="334" cy="1741" fill="none" rx="10" ry="10" style="stroke:#181818;stroke-width:1.0;"/><ellipse cx="334.5" cy="1741.5" fill="#181818" rx="6" ry="6" style="stroke:none;stroke-width:1.0;"/><ellipse cx="456" cy="16" fill="#181818" rx="10" ry="10" style="stroke:none;stroke-width:1.0;"/><g id="Initializing"><rect fill="#F1F1F1" height="50" rx="12.5" ry="12.5" style="stroke:#181818;stroke-width:0.5;" width="86" x="413" y="87"/><line style="stroke:#181818;stroke-width:0.5;" x1="413" x2="499" y1="113.2969" y2="113.2969"/><text fill="#000000" font-family="sans-serif" font-size="14" lengthAdjust="spacing" textLength="66" x="423" y="104.9951">Initializing</text></g><g id="Running"><rect fill="#F1F1F1" height="50" rx="12.5" ry="12.5" style="stroke:#181818;stroke-width:0.5;" width="78" x="320" y="949"/><line style="stroke:#181818;stroke-width:0.5;" x1="320" x2="398" y1="975.2969" y2="975.2969"/><text fill="#000000" font-family="sans-serif" font-size="14" lengthAdjust="spacing" textLength="58" x="330" y="966.9951">Running</text></g><!--link *start* to Initializing--><g id="link_*start*_Initializing"><path d="M456,26.01 C456,38.7 456,62.41 456,81.57 " fill="none" id="*start*-to-Initializing" style="stroke:#181818;stroke-width:1.0;"/><polygon fill="#181818" points="456,86.84,460,77.84,456,81.84,452,77.84,456,86.84" style="stroke:#181818;stroke-width:1.0;"/></g><!--link Initializing to Initializing--><g id="link_Initializing_Initializing"><path d="M499.31,107 C518,106.59 534,108.26 534,112 C534,115.39 520.86,117.08 504.49,117.06 " fill="none" id="Initializing-to-Initializing" style="stroke:#181818;stroke-width:1.0;"/><polygon fill="#181818" points="499.31,117,508.2637,121.1026,504.3097,117.0571,508.3551,113.1031,499.31,117" style="stroke:#181818;stroke-width:1.0;"/><text fill="#000000" font-family="sans-serif" font-size="13" lengthAdjust="spacing" textLength="230" x="540" y="116.5669">InitialConfiguration/configure Runner</text></g><!--link Initializing to Initializing--><g id="link_Initializing_Initializing"><path d="M499.19,105.85 C589.17,98.97 776,101.02 776,112 C776,122.78 596.04,124.95 504.3,118.52 " fill="none" id="Initializing-to-Initializing-1" style="stroke:#181818;stroke-width:1.0;"/><polygon fill="#181818" points="499.19,118.15,507.868,122.8076,504.1762,118.5215,508.4623,114.8297,499.19,118.15" style="stroke:#181818;stroke-width:1.0;"/><text fill="#000000" font-family="sans-serif" font-size="13" lengthAdjust="spacing" textLength="115" x="782" y="116.5669">Start/start Runner</text></g><!--link which to swtpm--><g id="link_which_swtpm"><path d="M448.56,260.25 C425.66,273.34 354.93,313.75 306.91,341.19 " fill="none" id="which-to-swtpm" style="stroke:#181818;stroke-width:1.0;"/><polygon fill="#181818" points="302.34,343.81,312.1366,342.7969,306.6759,341.3201,308.1527,335.8594,302.34,343.81" style="stroke:#181818;stroke-width:1.0;"/><text fill="#000000" font-family="sans-serif" font-size="13" lengthAdjust="spacing" textLength="79" x="382" y="310.0669">[use swtpm]</text></g><!--link which to qemu--><g id="link_which_qemu"><path d="M462.45,260.64 C465.33,262.65 468.79,265.01 472,267 C515.01,293.7 565.41,321.56 602.09,341.24 " fill="none" id="which-to-qemu" style="stroke:#181818;stroke-width:1.0;"/><polygon fill="#181818" points="606.94,343.84,600.8851,336.0722,602.5294,341.4848,597.1168,343.1292,606.94,343.84" style="stroke:#181818;stroke-width:1.0;"/><text fill="#000000" font-family="sans-serif" font-size="13" lengthAdjust="spacing" textLength="36" x="551" y="310.0669">[else]</text></g><!--link swtpm to qemu--><g id="link_swtpm_qemu"><path d="M325.34,369 C397.27,369 512.38,369 585.26,369 " fill="none" id="swtpm-to-qemu" style="stroke:#181818;stroke-width:1.0;"/><polygon fill="#181818" points="590.43,369,581.43,365,585.43,369,581.43,373,590.43,369" style="stroke:#181818;stroke-width:1.0;"/><text fill="#000000" font-family="sans-serif" font-size="13" lengthAdjust="spacing" textLength="229" x="343.25" y="362.0669">FileChanged[swtpm socket created]</text></g><!--link qemu to monitor--><g id="link_qemu_monitor"><path d="M590.32,380.67 C561.04,388.43 527.55,401.65 504,424 C492.33,435.08 485.01,451.41 480.52,465.62 " fill="none" id="qemu-to-monitor" style="stroke:#181818;stroke-width:1.0;"/><polygon fill="#181818" points="478.99,470.74,485.3911,463.2549,480.4163,465.9477,477.7235,460.9729,478.99,470.74" style="stroke:#181818;stroke-width:1.0;"/><text fill="#000000" font-family="sans-serif" font-size="13" lengthAdjust="spacing" textLength="237" x="505" y="437.0669">FileChanged[monitor socket created]</text></g><!--link monitor to waitForConfigured--><g id="link_monitor_waitForConfigured"><path d="M474,521.1 C474,541.59 474,571.08 474,592.88 " fill="none" id="monitor-to-waitForConfigured" style="stroke:#181818;stroke-width:1.0;"/><polygon fill="#181818" points="474,597.97,478,588.97,474,592.97,470,588.97,474,597.97" style="stroke:#181818;stroke-width:1.0;"/><text fill="#000000" font-family="sans-serif" font-size="13" lengthAdjust="spacing" textLength="186" x="475" y="564.0669">ClientConnected[for monitor]</text></g><!--link monitor to error--><g id="link_monitor_error"><path d="M435.84,521.02 C391.2,551.48 319.18,608.49 286,678 C255.85,741.15 262.38,829.22 265.7,858.83 " fill="none" id="monitor-to-error" style="stroke:#181818;stroke-width:1.0;"/><polygon fill="#181818" points="266.31,863.95,269.2295,854.5438,265.725,858.9843,261.2844,855.4798,266.31,863.95" style="stroke:#181818;stroke-width:1.0;"/><text fill="#000000" font-family="sans-serif" font-size="13" lengthAdjust="spacing" textLength="165" x="287" y="691.0669">ConnectError[for monitor]</text></g><!--link waitForConfigured to configure--><g id="link_waitForConfigured_configure"><path d="M469.76,648.1 C466.15,668.59 460.96,698.08 457.12,719.88 " fill="none" id="waitForConfigured-to-configure" style="stroke:#181818;stroke-width:1.0;"/><polygon fill="#181818" points="456.23,724.97,461.7129,716.7885,457.0867,720.0439,453.8312,715.4177,456.23,724.97" style="stroke:#181818;stroke-width:1.0;"/><text fill="#000000" font-family="sans-serif" font-size="13" lengthAdjust="spacing" textLength="100" x="465" y="691.0669">QmpConfigured</text></g><!--link configure to success--><g id="link_configure_success"><path d="M381.72,775.12 C369.08,782.69 357.54,792.47 350,805 C339.95,821.69 345.51,845.47 350.03,858.85 " fill="none" id="configure-to-success" style="stroke:#181818;stroke-width:1.0;"/><polygon fill="#181818" points="351.86,863.89,352.5339,854.0642,350.1467,859.1927,345.0182,856.8055,351.86,863.89" style="stroke:#181818;stroke-width:1.0;"/><text fill="#000000" font-family="sans-serif" font-size="13" lengthAdjust="spacing" textLength="391" x="351" y="818.0669">RunnerConfigurationUpdate (last handler)/fire cont command</text></g><!--link Initializing to which--><g id="link_Initializing_which"><path d="M456,137.24 C456,165.93 456,212.94 456,237.65 " fill="none" id="Initializing-to-which" style="stroke:#181818;stroke-width:1.0;"/><polygon fill="#181818" points="456,242.85,460,233.85,456,237.85,452,233.85,456,242.85" style="stroke:#181818;stroke-width:1.0;"/><text fill="#000000" font-family="sans-serif" font-size="13" lengthAdjust="spacing" textLength="48" x="457" y="180.0669">Started</text></g><!--link success to Running--><g id="link_success_Running"><path d="M354.25,876.2 C354.85,888.43 356.39,919.77 357.55,943.51 " fill="none" id="success-to-Running" style="stroke:#181818;stroke-width:1.0;"/><polygon fill="#181818" points="357.81,948.75,361.3674,939.566,357.5667,943.7559,353.3769,939.9553,357.81,948.75" style="stroke:#181818;stroke-width:1.0;"/></g><!--link terminate to qemuRunning--><g id="link_terminate_qemuRunning"><path d="M378,1100.05 C378,1113.55 378,1150.91 378,1172.67 " fill="none" id="terminate-to-qemuRunning" style="stroke:#181818;stroke-width:1.0;"/><polygon fill="#181818" points="378,1177.85,382,1168.85,378,1172.85,374,1168.85,378,1177.85" style="stroke:#181818;stroke-width:1.0;"/></g><!--link qemuRunning to qemuPowerdown--><g id="link_qemuRunning_qemuPowerdown"><path d="M371.49,1195.53 C352.3,1208.88 294.88,1248.82 255.72,1276.07 " fill="none" id="qemuRunning-to-qemuPowerdown" style="stroke:#181818;stroke-width:1.0;"/><polygon fill="#181818" points="251.51,1278.99,261.1852,1277.1489,255.6189,1276.141,256.6268,1270.5746,251.51,1278.99" style="stroke:#181818;stroke-width:1.0;"/><text fill="#000000" font-family="sans-serif" font-size="13" lengthAdjust="spacing" textLength="137" x="317" y="1245.0669">[qemu monitor open]</text></g><!--link qemuRunning to terminateProcesses--><g id="link_qemuRunning_terminateProcesses"><path d="M387.85,1192.36 C406.41,1195.52 446.19,1205.22 463,1232 C500.58,1291.85 502.15,1332.17 463,1391 C455.45,1402.34 445.02,1411.3 433.32,1418.39 " fill="none" id="qemuRunning-to-terminateProcesses" style="stroke:#181818;stroke-width:1.0;"/><polygon fill="#181818" points="428.96,1420.91,438.7541,1419.8726,433.2897,1418.4093,434.753,1412.945,428.96,1420.91" style="stroke:#181818;stroke-width:1.0;"/><text fill="#000000" font-family="sans-serif" font-size="13" lengthAdjust="spacing" textLength="36" x="492" y="1308.5669">[else]</text></g><!--link qemuPowerdown to terminateProcesses--><g id="link_qemuPowerdown_terminateProcesses"><path d="M120.71,1329.02 C82.36,1343.28 51.97,1363.92 74,1391 C93.81,1415.35 166.11,1429.07 229.45,1436.59 " fill="none" id="qemuPowerdown-to-terminateProcesses" style="stroke:#181818;stroke-width:1.0;"/><polygon fill="#181818" points="234.77,1437.2,226.2998,1432.1744,229.8043,1436.615,225.3638,1440.1195,234.77,1437.2" style="stroke:#181818;stroke-width:1.0;"/><text fill="#000000" font-family="sans-serif" font-size="13" lengthAdjust="spacing" textLength="215" x="75" y="1372.0669">Closed[for monitor]/resume Stop,</text><text fill="#000000" font-family="sans-serif" font-size="13" lengthAdjust="spacing" textLength="81" x="142" y="1387.1997">cancel Timer</text></g><!--link qemuPowerdown to terminateProcesses--><g id="link_qemuPowerdown_terminateProcesses"><path d="M260.47,1329.04 C272.76,1337.34 285.4,1347.49 295,1359 C308.92,1375.68 318.88,1398.14 325.25,1415.93 " fill="none" id="qemuPowerdown-to-terminateProcesses-1" style="stroke:#181818;stroke-width:1.0;"/><polygon fill="#181818" points="326.95,1420.81,327.7655,1410.995,325.3046,1416.0885,320.2111,1413.6276,326.95,1420.81" style="stroke:#181818;stroke-width:1.0;"/><text fill="#000000" font-family="sans-serif" font-size="13" lengthAdjust="spacing" textLength="139" x="315" y="1379.5669">Timeout/resume Stop</text></g><!--link terminateProcesses to terminated--><g id="link_terminateProcesses_terminated"><path d="M334,1471.17 C334,1492.58 334,1522.8 334,1538.54 " fill="none" id="terminateProcesses-to-terminated" style="stroke:#181818;stroke-width:1.0;"/><polygon fill="#181818" points="334,1543.65,338,1534.65,334,1538.65,330,1534.65,334,1543.65" style="stroke:#181818;stroke-width:1.0;"/></g><!--link Running to terminate--><g id="link_Running_terminate"><path d="M344.68,999.26 C338.36,1013.11 333.48,1030.7 339,1046 C344.67,1061.71 358.12,1075.88 367.64,1084.46 " fill="none" id="Running-to-terminate" style="stroke:#181818;stroke-width:1.0;"/><polygon fill="#181818" points="371.44,1087.78,367.2816,1078.8521,367.67,1084.4956,362.0265,1084.884,371.44,1087.78" style="stroke:#181818;stroke-width:1.0;"/><text fill="#000000" font-family="sans-serif" font-size="13" lengthAdjust="spacing" textLength="30" x="340" y="1042.0669">Stop</text></g><!--link Running to terminate--><g id="link_Running_terminate"><path d="M367.52,999.17 C370.4,1008.39 373.32,1019.07 375,1029 C378.18,1047.83 378.45,1070.19 378.27,1082.88 " fill="none" id="Running-to-terminate-1" style="stroke:#181818;stroke-width:1.0;"/><polygon fill="#181818" points="378.17,1087.98,382.3492,1079.0618,378.27,1082.981,374.3508,1078.9018,378.17,1087.98" style="stroke:#181818;stroke-width:1.0;"/><text fill="#000000" font-family="sans-serif" font-size="13" lengthAdjust="spacing" textLength="190" x="377" y="1042.0669">ProcessExited[process qemu]</text></g><!--link error to terminate--><g id="link_error_terminate"><path d="M267.61,876.13 C270.48,898.51 284.43,988.99 328,1046 C339.62,1061.21 356.35,1075.84 367.2,1084.63 " fill="none" id="error-to-terminate" style="stroke:#181818;stroke-width:1.0;"/><polygon fill="#181818" points="371.18,1087.81,366.6471,1079.0663,367.2743,1084.6883,361.6523,1085.3155,371.18,1087.81" style="stroke:#181818;stroke-width:1.0;"/></g><!--link StartingProcess to terminate--><g id="link_StartingProcess_terminate"><path d="M748.1665,287.0597 C748.2371,287.2157 748.3078,287.3721 748.3785,287.529 C748.6614,288.1564 748.9449,288.7905 749.2288,289.4313 C749.7966,290.7127 750.3661,292.0205 750.935,293.3525 C760.0375,314.665 769,342.2 769,368 C769,368 769,368 769,975 C769,1056.74 451.84,1086.96 388.81,1092.16 " fill="none" id="StartingProcess-to-terminate" style="stroke:#181818;stroke-width:1.0;"/><polygon fill="#181818" points="383.53,1092.58,392.8211,1095.8474,388.514,1092.1801,392.1813,1087.8731,383.53,1092.58" style="stroke:#181818;stroke-width:1.0;"/><text fill="#000000" font-family="sans-serif" font-size="13" lengthAdjust="spacing" textLength="89" x="770" y="691.0669">ProcessExited</text></g><!--link stopped to *end*Stopped--><g id="link_stopped_*end*Stopped"><path d="M334,1653.21 C334,1667.03 334,1704.97 334,1725.82 " fill="none" id="stopped-to-*end*Stopped" style="stroke:#181818;stroke-width:1.0;"/><polygon fill="#181818" points="334,1730.97,338,1721.97,334,1725.97,330,1721.97,334,1730.97" style="stroke:#181818;stroke-width:1.0;"/></g><!--link terminated to stopped--><g id="link_terminated_stopped"><path d="M334,1556.11 C334,1571.12 334,1615.32 334,1635.61 " fill="none" id="terminated-to-stopped" style="stroke:#181818;stroke-width:1.0;"/><polygon fill="#181818" points="334,1640.87,338,1631.87,334,1635.87,330,1631.87,334,1640.87" style="stroke:#181818;stroke-width:1.0;"/></g><!--SRC=[ZLNBRjim4BpxAnOv9K42tmN3G64aG0z1dIOvkJweqjecAf4gIS5jW_vxT_coA5jjSp18xSmizvdDxHRkxvVmKGehoaRy4d8_osumiXRnjb9o9_QzBgrGSbw56yBdNahK_n9viQMsSyE_YJ43kbk4AsTaslLQgmgDGNDp1QM1Q0YVuPr9_EU9nuEe3h1OL0SbAbmkXpOl2kPekzPfkTC5n7TiUmVWGsR_rA64Lb4SIZj4E6UWLKh4yzFQeOwbi8zA9qCzXNzuUdE4bCiXqFIL2tcnm1_2hfMGDWyGjLRwaZcao2U7Y-qYBs3J6_JdxHZ1eHC06uFRb6BFGcdrpr2uOGhv28dwA1fS7KgvnthZJKPLtz12fP4UMoTL3n-AdjBE9_USa6V8TUFNaJ94wM2FwZj1EUOIlZWyvLrYnRsRePs_iueLi6e4oGGIETyHD52s8u6bBmLnFFg1RpaXvFlSpU2fpsstAhlogsXeRj1CKDnxKyCKZZLgDFyxm0oS-D7BHlcjgocF8vBl6z-2nJGBhflIMA02rGtg6- -3HAWwgctfwmn-StdotS0PvzOBMu7VFKlzpbRsvnPJt12lg5iXIxSZteT3O8C1UH0up0k3mcqL52TsHLAffyVjQgsEg6jrbFd6I9ypy0Sk77HXRKLzoflZ9NzftSKUFiKJnpBb8av832K2qWEAZHkWs9UAMdzxcNRklyXdFzUDuzeRagofQAgx0yF7BkN4AaUw0p_KLhIeX-sOAKuzWgPEcT6mpJMQlaNlzOkiIbbX0wyd_VzJPeBgxL1jbF44pZLY2r_CNn649en1ye4wYgAAtS0Ffapx_PqnPcV_yFucU1eFVaH7pPkDXWaVnuCHCTxA3ZQtsn3aO13S0l2WFm00]--></g></svg>