<?xml version="1.0" encoding="us-ascii" standalone="no"?><svg xmlns="http://www.w3.org/2000/svg" xmlns:xlink="http://www.w3.org/1999/xlink" contentStyleType="text/css" height="1281px" preserveAspectRatio="none" style="width:738px;height:1281px;background:#FFFFFF;" version="1.1" viewBox="0 0 738 1281" width="738px" zoomAndPan="magnify"><defs/><g><!--cluster StartingProcess--><g id="cluster_StartingProcess"><path d="M19.5,192 L672.5,192 A12.5,12.5 0 0 1 685,204.5 L685,213.2969 L7,213.2969 L7,204.5 A12.5,12.5 0 0 1 19.5,192 " fill="#F1F1F1" style="stroke:#F1F1F1;stroke-width:1.0;"/><rect fill="none" height="408" rx="12.5" ry="12.5" style="stroke:#181818;stroke-width:0.5;" width="678" x="7" y="192"/><line style="stroke:#181818;stroke-width:0.5;" x1="7" x2="685" y1="213.2969" y2="213.2969"/><text fill="#000000" font-family="sans-serif" font-size="14" lengthAdjust="spacing" textLength="140" x="276" y="209.9951">Starting (Processes)</text></g><!--cluster Terminating--><g id="cluster_Terminating"><path d="M147.5,784 L542.5,784 A12.5,12.5 0 0 1 555,796.5 L555,805.2969 L135,805.2969 L135,796.5 A12.5,12.5 0 0 1 147.5,784 " fill="#F1F1F1" style="stroke:#F1F1F1;stroke-width:1.0;"/><rect fill="none" height="392" rx="12.5" ry="12.5" style="stroke:#181818;stroke-width:0.5;" width="420" x="135" y="784"/><line style="stroke:#181818;stroke-width:0.5;" x1="135" x2="555" y1="805.2969" y2="805.2969"/><text fill="#000000" font-family="sans-serif" font-size="14" lengthAdjust="spacing" textLength="82" x="304" y="801.9951">Terminating</text></g><g id="elem_which"><polygon fill="#F1F1F1" points="284,227,296,239,284,251,272,239,284,227" style="stroke:#181818;stroke-width:0.5;"/></g><g id="StartingProcess.swtpm"><rect fill="#F1F1F1" height="50.2656" rx="12.5" ry="12.5" style="stroke:#181818;stroke-width:0.5;" width="130" x="23" y="328"/><line style="stroke:#181818;stroke-width:0.5;" x1="23" x2="153" y1="354.2969" y2="354.2969"/><text fill="#000000" font-family="sans-serif" font-size="14" lengthAdjust="spacing" textLength="82" x="47" y="345.9951">Start swtpm</text><text fill="#000000" font-family="sans-serif" font-size="12" lengthAdjust="spacing" textLength="110" x="28" y="370.4355">entry/start swtpm</text></g><g id="StartingProcess.qemu"><rect fill="#F1F1F1" height="50.2656" rx="12.5" ry="12.5" style="stroke:#181818;stroke-width:0.5;" width="125" x="418.5" y="328"/><line style="stroke:#181818;stroke-width:0.5;" x1="418.5" x2="543.5" y1="354.2969" y2="354.2969"/><text fill="#000000" font-family="sans-serif" font-size="14" lengthAdjust="spacing" textLength="76" x="443" y="345.9951">Start qemu</text><text fill="#000000" font-family="sans-serif" font-size="12" lengthAdjust="spacing" textLength="105" x="423.5" y="370.4355">entry/start qemu</text></g><g id="StartingProcess.monitor"><rect fill="#F1F1F1" height="50.2656" rx="12.5" ry="12.5" style="stroke:#181818;stroke-width:0.5;" width="227" x="232.5" y="455"/><line style="stroke:#181818;stroke-width:0.5;" x1="232.5" x2="459.5" y1="481.2969" y2="481.2969"/><text fill="#000000" font-family="sans-serif" font-size="14" lengthAdjust="spacing" textLength="95" x="298.5" y="472.9951">Open monitor</text><text fill="#000000" font-family="sans-serif" font-size="12" lengthAdjust="spacing" textLength="207" x="237.5" y="497.4355">entry/fire OpenSocketConnection</text></g><text fill="#000000" font-family="sans-serif" font-size="14" lengthAdjust="spacing" textLength="58" x="307.5" y="618.9951">success</text><ellipse cx="336.5" cy="600" fill="#F1F1F1" rx="6" ry="6" style="stroke:#181818;stroke-width:1.5;"/><line style="stroke:#181818;stroke-width:1.5;" x1="340.8891" x2="333.1109" y1="604.3891" y2="596.6109"/><line style="stroke:#181818;stroke-width:1.5;" x1="340.8891" x2="333.1109" y1="596.6109" y2="604.3891"/><text fill="#000000" font-family="sans-serif" font-size="14" lengthAdjust="spacing" textLength="33" x="82.5" y="618.9951">error</text><ellipse cx="99" cy="600" fill="#F1F1F1" rx="6" ry="6" style="stroke:#181818;stroke-width:1.5;"/><line style="stroke:#181818;stroke-width:1.5;" x1="103.3891" x2="95.6109" y1="604.3891" y2="596.6109"/><line style="stroke:#181818;stroke-width:1.5;" x1="103.3891" x2="95.6109" y1="596.6109" y2="604.3891"/><text fill="#000000" font-family="sans-serif" font-size="14" lengthAdjust="spacing" textLength="75" x="212.5" y="1194.9951">terminated</text><ellipse cx="250" cy="1176" fill="#F1F1F1" rx="6" ry="6" style="stroke:#181818;stroke-width:1.5;"/><line style="stroke:#181818;stroke-width:1.5;" x1="254.3891" x2="246.6109" y1="1180.3891" y2="1172.6109"/><line style="stroke:#181818;stroke-width:1.5;" x1="254.3891" x2="246.6109" y1="1172.6109" y2="1180.3891"/><g id="elem_which2"><polygon fill="#F1F1F1" points="419,946,431,958,419,970,407,958,419,946" style="stroke:#181818;stroke-width:0.5;"/></g><g id="Terminating.qemuPowerdown"><rect fill="#F1F1F1" height="50.2656" rx="12.5" ry="12.5" style="stroke:#181818;stroke-width:0.5;" width="387" x="151.5" y="819"/><line style="stroke:#181818;stroke-width:0.5;" x1="151.5" x2="538.5" y1="845.2969" y2="845.2969"/><text fill="#000000" font-family="sans-serif" font-size="14" lengthAdjust="spacing" textLength="125" x="282.5" y="836.9951">Powerdown qemu</text><text fill="#000000" font-family="sans-serif" font-size="12" lengthAdjust="spacing" textLength="367" x="156.5" y="861.4355">entry/suspend Stop, send powerdown to qemu, start timer</text></g><g id="Terminating.terminateProcesses"><rect fill="#F1F1F1" height="50" rx="12.5" ry="12.5" style="stroke:#181818;stroke-width:0.5;" width="198" x="151" y="1047"/><line style="stroke:#181818;stroke-width:0.5;" x1="151" x2="349" y1="1073.2969" y2="1073.2969"/><text fill="#000000" font-family="sans-serif" font-size="14" lengthAdjust="spacing" textLength="178" x="161" y="1064.9951">Await process termination</text></g><ellipse cx="284" cy="16" fill="#181818" rx="10" ry="10" style="stroke:none;stroke-width:1.0;"/><g id="Initializing"><rect fill="#F1F1F1" height="50" rx="12.5" ry="12.5" style="stroke:#181818;stroke-width:0.5;" width="86" x="241" y="87"/><line style="stroke:#181818;stroke-width:0.5;" x1="241" x2="327" y1="113.2969" y2="113.2969"/><text fill="#000000" font-family="sans-serif" font-size="14" lengthAdjust="spacing" textLength="66" x="251" y="104.9951">Initializing</text></g><g id="Running"><rect fill="#F1F1F1" height="50" rx="12.5" ry="12.5" style="stroke:#181818;stroke-width:0.5;" width="78" x="301" y="679"/><line style="stroke:#181818;stroke-width:0.5;" x1="301" x2="379" y1="705.2969" y2="705.2969"/><text fill="#000000" font-family="sans-serif" font-size="14" lengthAdjust="spacing" textLength="58" x="311" y="696.9951">Running</text></g><ellipse cx="118" cy="1265" fill="none" rx="10" ry="10" style="stroke:#181818;stroke-width:1.0;"/><ellipse cx="118.5" cy="1265.5" fill="#181818" rx="6" ry="6" style="stroke:none;stroke-width:1.0;"/><!--link *start* to Initializing--><g id="link_*start*_Initializing"><path d="M284,26.01 C284,38.7 284,62.41 284,81.57 " fill="none" id="*start*-to-Initializing" style="stroke:#181818;stroke-width:1.0;"/><polygon fill="#181818" points="284,86.84,288,77.84,284,81.84,280,77.84,284,86.84" style="stroke:#181818;stroke-width:1.0;"/></g><!--link Initializing to Initializing--><g id="link_Initializing_Initializing"><path d="M327.31,107 C346,106.59 362,108.26 362,112 C362,115.39 348.86,117.08 332.49,117.06 " fill="none" id="Initializing-to-Initializing" style="stroke:#181818;stroke-width:1.0;"/><polygon fill="#181818" points="327.31,117,336.2637,121.1026,332.3097,117.0571,336.3551,113.1031,327.31,117" style="stroke:#181818;stroke-width:1.0;"/><text fill="#000000" font-family="sans-serif" font-size="13" lengthAdjust="spacing" textLength="230" x="368" y="116.5669">InitialConfiguration/configure Runner</text></g><!--link Initializing to Initializing--><g id="link_Initializing_Initializing"><path d="M327.19,105.85 C417.17,98.97 604,101.02 604,112 C604,122.78 424.04,124.95 332.3,118.52 " fill="none" id="Initializing-to-Initializing-1" style="stroke:#181818;stroke-width:1.0;"/><polygon fill="#181818" points="327.19,118.15,335.868,122.8076,332.1762,118.5215,336.4623,114.8297,327.19,118.15" style="stroke:#181818;stroke-width:1.0;"/><text fill="#000000" font-family="sans-serif" font-size="13" lengthAdjust="spacing" textLength="115" x="610" y="116.5669">Start/start Runner</text></g><!--link which to swtpm--><g id="link_which_swtpm"><path d="M276.56,244.25 C253.66,257.34 182.93,297.75 134.91,325.19 " fill="none" id="which-to-swtpm" style="stroke:#181818;stroke-width:1.0;"/><polygon fill="#181818" points="130.34,327.81,140.1366,326.7969,134.6759,325.3201,136.1527,319.8594,130.34,327.81" style="stroke:#181818;stroke-width:1.0;"/><text fill="#000000" font-family="sans-serif" font-size="13" lengthAdjust="spacing" textLength="79" x="210" y="294.0669">[use swtpm]</text></g><!--link which to qemu--><g id="link_which_qemu"><path d="M291.48,244.25 C314.5,257.34 385.58,297.75 433.85,325.19 " fill="none" id="which-to-qemu" style="stroke:#181818;stroke-width:1.0;"/><polygon fill="#181818" points="438.44,327.81,432.5851,319.8904,434.0909,325.3431,428.6381,326.8489,438.44,327.81" style="stroke:#181818;stroke-width:1.0;"/><text fill="#000000" font-family="sans-serif" font-size="13" lengthAdjust="spacing" textLength="36" x="383" y="294.0669">[else]</text></g><!--link swtpm to error--><g id="link_swtpm_error"><path d="M80.52,378.08 C71.83,409.32 59.69,465.45 68,513 C73.01,541.65 86.73,573.36 94.13,589.06 " fill="none" id="swtpm-to-error" style="stroke:#181818;stroke-width:1.0;"/><polygon fill="#181818" points="96.37,593.74,96.0987,583.8949,94.2142,589.2286,88.8805,587.3441,96.37,593.74" style="stroke:#181818;stroke-width:1.0;"/><text fill="#000000" font-family="sans-serif" font-size="13" lengthAdjust="spacing" textLength="145" x="69" y="484.5669">StartProcessError/stop</text></g><!--link swtpm to qemu--><g id="link_swtpm_qemu"><path d="M153.34,353 C225.27,353 340.38,353 413.26,353 " fill="none" id="swtpm-to-qemu" style="stroke:#181818;stroke-width:1.0;"/><polygon fill="#181818" points="418.43,353,409.43,349,413.43,353,409.43,357,418.43,353" style="stroke:#181818;stroke-width:1.0;"/><text fill="#000000" font-family="sans-serif" font-size="13" lengthAdjust="spacing" textLength="229" x="171.25" y="346.0669">FileChanged[swtpm socket created]</text></g><!--link qemu to error--><g id="link_qemu_error"><path d="M506.52,378.1 C513.95,386.73 521.11,397.06 525,408 C546.46,468.3 567.7,504.33 525,552 C517.85,559.99 178.09,591.71 110.59,597.93 " fill="none" id="qemu-to-error" style="stroke:#181818;stroke-width:1.0;"/><polygon fill="#181818" points="105.24,598.43,114.5685,601.5891,110.219,597.9722,113.8359,593.6227,105.24,598.43" style="stroke:#181818;stroke-width:1.0;"/><text fill="#000000" font-family="sans-serif" font-size="13" lengthAdjust="spacing" textLength="145" x="550" y="484.5669">StartProcessError/stop</text></g><!--link qemu to monitor--><g id="link_qemu_monitor"><path d="M418.29,362.93 C367.3,371.63 301.25,386.66 285,408 C273.65,422.9 284.88,438.77 300.66,451.72 " fill="none" id="qemu-to-monitor" style="stroke:#181818;stroke-width:1.0;"/><polygon fill="#181818" points="304.76,454.95,300.153,446.2451,300.8279,451.8615,295.2115,452.5364,304.76,454.95" style="stroke:#181818;stroke-width:1.0;"/><text fill="#000000" font-family="sans-serif" font-size="13" lengthAdjust="spacing" textLength="237" x="286" y="421.0669">FileChanged[monitor socket created]</text></g><!--link monitor to success--><g id="link_monitor_success"><path d="M344.16,505.16 C342.2,530.83 339.2,570.19 337.79,588.71 " fill="none" id="monitor-to-success" style="stroke:#181818;stroke-width:1.0;"/><polygon fill="#181818" points="337.4,593.74,342.0823,585.0753,337.7857,588.7549,334.1061,584.4583,337.4,593.74" style="stroke:#181818;stroke-width:1.0;"/><text fill="#000000" font-family="sans-serif" font-size="13" lengthAdjust="spacing" textLength="186" x="342" y="548.0669">ClientConnected[for monitor]</text></g><!--link monitor to error--><g id="link_monitor_error"><path d="M258.76,505.02 C216.86,516.93 173.81,529.84 165,535 C140.01,549.64 117.28,575.69 106.17,589.61 " fill="none" id="monitor-to-error" style="stroke:#181818;stroke-width:1.0;"/><polygon fill="#181818" points="102.86,593.83,111.5649,589.223,105.9485,589.8979,105.2736,584.2815,102.86,593.83" style="stroke:#181818;stroke-width:1.0;"/><text fill="#000000" font-family="sans-serif" font-size="13" lengthAdjust="spacing" textLength="165" x="166" y="548.0669">ConnectError[for monitor]</text></g><!--link Initializing to which--><g id="link_Initializing_which"><path d="M284,137.1 C284,161.95 284,200.03 284,221.6 " fill="none" id="Initializing-to-which" style="stroke:#181818;stroke-width:1.0;"/><polygon fill="#181818" points="284,226.71,288,217.71,284,221.71,280,217.71,284,226.71" style="stroke:#181818;stroke-width:1.0;"/><text fill="#000000" font-family="sans-serif" font-size="13" lengthAdjust="spacing" textLength="48" x="285" y="180.0669">Started</text></g><!--link success to Running--><g id="link_success_Running"><path d="M337.15,606.2 C337.51,618.43 338.43,649.77 339.13,673.51 " fill="none" id="success-to-Running" style="stroke:#181818;stroke-width:1.0;"/><polygon fill="#181818" points="339.29,678.75,343.0313,669.6394,339.1472,673.752,335.0346,669.8679,339.29,678.75" style="stroke:#181818;stroke-width:1.0;"/></g><!--link error to *end*--><g id="link_error_*end*"><path d="M98.91,606.09 C98.67,621 98,665.81 98,703 C98,703 98,703 98,1177 C98,1203.69 107.05,1233.83 112.97,1250.71 " fill="none" id="error-to-*end*" style="stroke:#181818;stroke-width:1.0;"/><polygon fill="#181818" points="114.7,1255.51,115.4267,1245.688,113.012,1250.8036,107.8964,1248.3888,114.7,1255.51" style="stroke:#181818;stroke-width:1.0;"/></g><!--link qemuPowerdown to which2--><g id="link_qemuPowerdown_which2"><path d="M360.87,869.03 C376.56,892.76 399.85,928.02 411.62,945.84 " fill="none" id="qemuPowerdown-to-which2" style="stroke:#181818;stroke-width:1.0;"/><polygon fill="#181818" points="414.62,950.37,412.9944,940.6562,411.863,946.1988,406.3204,945.0674,414.62,950.37" style="stroke:#181818;stroke-width:1.0;"/><text fill="#000000" font-family="sans-serif" font-size="13" lengthAdjust="spacing" textLength="211" x="391" y="912.0669">Closed[for monitor]/resume Stop</text></g><!--link qemuPowerdown to terminateProcesses--><g id="link_qemuPowerdown_terminateProcesses"><path d="M311.47,869.05 C289.1,887.29 261.56,914.55 249,946 C236.62,976.99 239.47,1015.84 243.73,1041.94 " fill="none" id="qemuPowerdown-to-terminateProcesses" style="stroke:#181818;stroke-width:1.0;"/><polygon fill="#181818" points="244.59,1046.98,246.9888,1037.4277,243.7333,1042.0539,239.1071,1038.7985,244.59,1046.98" style="stroke:#181818;stroke-width:1.0;"/><text fill="#000000" font-family="sans-serif" font-size="13" lengthAdjust="spacing" textLength="139" x="250" y="962.5669">Timeout/resume Stop</text></g><!--link which2 to terminateProcesses--><g id="link_which2_terminateProcesses"><path d="M410.27,961.73 C384.69,969.77 311.12,993.24 302,1000 C286.87,1011.21 274.26,1028.09 265.24,1042.57 " fill="none" id="which2-to-terminateProcesses" style="stroke:#181818;stroke-width:1.0;"/><polygon fill="#181818" points="262.56,1046.98,270.6563,1041.372,265.1597,1042.709,263.8227,1037.2124,262.56,1046.98" style="stroke:#181818;stroke-width:1.0;"/><text fill="#000000" font-family="sans-serif" font-size="13" lengthAdjust="spacing" textLength="79" x="303" y="1013.0669">[use swtmp]</text></g><!--link which2 to terminated--><g id="link_which2_terminated"><path d="M417.8,969 C414.28,994.38 401.98,1062.35 367,1105 C337.4,1141.09 283.98,1163.11 261,1171.33 " fill="none" id="which2-to-terminated" style="stroke:#181818;stroke-width:1.0;"/><polygon fill="#181818" points="256.09,1173.04,265.9064,1173.8383,260.8086,1171.3863,263.2606,1166.2885,256.09,1173.04" style="stroke:#181818;stroke-width:1.0;"/><text fill="#000000" font-family="sans-serif" font-size="13" lengthAdjust="spacing" textLength="36" x="399" y="1076.5669">[else]</text></g><!--link terminateProcesses to terminated--><g id="link_terminateProcesses_terminated"><path d="M250,1097.17 C250,1118.58 250,1148.8 250,1164.54 " fill="none" id="terminateProcesses-to-terminated" style="stroke:#181818;stroke-width:1.0;"/><polygon fill="#181818" points="250,1169.65,254,1160.65,250,1164.65,246,1160.65,250,1169.65" style="stroke:#181818;stroke-width:1.0;"/></g><!--link Running to qemuPowerdown--><g id="link_Running_qemuPowerdown"><path d="M340.87,729.04 C341.72,752.54 343.02,788.37 343.93,813.57 " fill="none" id="Running-to-qemuPowerdown" style="stroke:#181818;stroke-width:1.0;"/><polygon fill="#181818" points="344.12,818.77,347.7832,809.6277,343.9344,813.7734,339.7887,809.9247,344.12,818.77" style="stroke:#181818;stroke-width:1.0;"/><text fill="#000000" font-family="sans-serif" font-size="13" lengthAdjust="spacing" textLength="30" x="343" y="772.0669">Stop</text></g><!--link terminated to *end*--><g id="link_terminated_*end*"><path d="M243.99,1180.96 C223.77,1194.29 158,1237.64 130.38,1255.84 " fill="none" id="terminated-to-*end*" style="stroke:#181818;stroke-width:1.0;"/><polygon fill="#181818" points="125.99,1258.73,135.7038,1257.1044,130.1612,1255.973,131.2926,1250.4304,125.99,1258.73" style="stroke:#181818;stroke-width:1.0;"/></g><!--SRC=[ZLHDRzim3BttLn0zRKMB03q6GO0Xw82T5goz1JuODfC8ZILFak5snVxxH8gMBIV1waD0YU-9Zr_PtHNmyB267rfvLPxK7wKFDza9PjxbSDeOlLU7pfPU6Rsev8JmgzCQxVyUUVQbzGj7lubn0-7i4MxPIRGlMsigT0xTrrie7GmEkOOF8j4NYVrHLKTOhQgZKHMkrrDVV1HSxzk6tsBh0k8tDXq3oCZyFrlKq9YGXx6C47iASbt5obOhV5D-QvJskGwqrjXBRiaava0zOO5Bs7KEertC4QGm0F3ai4YLY2pKthvBVQUPaadTO1dI1gdc4rq5Ycbds1ZckphXvbZg0zQxw7AcUaKFbSMGM9qKHFXKm5X9iZuPFa83LgeCkOJXTYO21XNY7uJiLHXDQk0puyFmQgneSZDqh7jiuH8s9nN80WqXzm4Wm696Ina9cfEP4VwIj7mh0e-xAPN0cfT0HeYyj1gyad5iw6ftLuohyeAsKRhaPVcOZfaN1zRNHv53FsRxaitxrlHeQzFhV2VITGR-rfVAGokBEOGF1MPUafCMUcnoUYyDJUT2e-fG4zFUWoEpJLAyOT8znD7oga5Pm0ilZXL-f7OQD-lYmgBh6kH8r-ZdqfVm4gAQpf_JfQJNUCCkDsrn7L-FAqtV-Jipk4oMZ4hwOvYKDUgRZ8JCqJy0]--></g></svg>