<?xml version="1.0" encoding="us-ascii" standalone="no"?><svg xmlns="http://www.w3.org/2000/svg" xmlns:xlink="http://www.w3.org/1999/xlink" contentStyleType="text/css" height="1386px" preserveAspectRatio="none" style="width:746px;height:1386px;background:#FFFFFF;" version="1.1" viewBox="0 0 746 1386" width="746px" zoomAndPan="magnify"><defs/><g><!--cluster StartingProcess--><g id="cluster_StartingProcess"><path d="M19.5,200 L571.5,200 A12.5,12.5 0 0 1 584,212.5 L584,221.2969 L7,221.2969 L7,212.5 A12.5,12.5 0 0 1 19.5,200 " fill="#F1F1F1" style="stroke:#F1F1F1;stroke-width:1.0;"/><rect fill="none" height="416" rx="12.5" ry="12.5" style="stroke:#181818;stroke-width:0.5;" width="577" x="7" y="200"/><line style="stroke:#181818;stroke-width:0.5;" x1="7" x2="584" y1="221.2969" y2="221.2969"/><text fill="#000000" font-family="sans-serif" font-size="14" lengthAdjust="spacing" textLength="140" x="225.5" y="217.9951">Starting (Processes)</text></g><!--cluster Terminating--><g id="cluster_Terminating"><path d="M122.5,840 L625.5,840 A12.5,12.5 0 0 1 638,852.5 L638,861.2969 L110,861.2969 L110,852.5 A12.5,12.5 0 0 1 122.5,840 " fill="#F1F1F1" style="stroke:#F1F1F1;stroke-width:1.0;"/><rect fill="none" height="441" rx="12.5" ry="12.5" style="stroke:#181818;stroke-width:0.5;" width="528" x="110" y="840"/><line style="stroke:#181818;stroke-width:0.5;" x1="110" x2="638" y1="861.2969" y2="861.2969"/><text fill="#000000" font-family="sans-serif" font-size="14" lengthAdjust="spacing" textLength="82" x="333" y="857.9951">Terminating</text></g><g id="elem_which"><polygon fill="#F1F1F1" points="292,243,304,255,292,267,280,255,292,243" style="stroke:#181818;stroke-width:0.5;"/></g><g id="StartingProcess.swtpm"><rect fill="#F1F1F1" height="50.2656" rx="12.5" ry="12.5" style="stroke:#181818;stroke-width:0.5;" width="130" x="31" y="344"/><line style="stroke:#181818;stroke-width:0.5;" x1="31" x2="161" y1="370.2969" y2="370.2969"/><text fill="#000000" font-family="sans-serif" font-size="14" lengthAdjust="spacing" textLength="82" x="55" y="361.9951">Start swtpm</text><text fill="#000000" font-family="sans-serif" font-size="12" lengthAdjust="spacing" textLength="110" x="36" y="386.4355">entry/start swtpm</text></g><g id="StartingProcess.qemu"><rect fill="#F1F1F1" height="50.2656" rx="12.5" ry="12.5" style="stroke:#181818;stroke-width:0.5;" width="125" x="426.5" y="344"/><line style="stroke:#181818;stroke-width:0.5;" x1="426.5" x2="551.5" y1="370.2969" y2="370.2969"/><text fill="#000000" font-family="sans-serif" font-size="14" lengthAdjust="spacing" textLength="76" x="451" y="361.9951">Start qemu</text><text fill="#000000" font-family="sans-serif" font-size="12" lengthAdjust="spacing" textLength="105" x="431.5" y="386.4355">entry/start qemu</text></g><g id="StartingProcess.monitor"><rect fill="#F1F1F1" height="50.2656" rx="12.5" ry="12.5" style="stroke:#181818;stroke-width:0.5;" width="227" x="199.5" y="471"/><line style="stroke:#181818;stroke-width:0.5;" x1="199.5" x2="426.5" y1="497.2969" y2="497.2969"/><text fill="#000000" font-family="sans-serif" font-size="14" lengthAdjust="spacing" textLength="95" x="265.5" y="488.9951">Open monitor</text><text fill="#000000" font-family="sans-serif" font-size="12" lengthAdjust="spacing" textLength="207" x="204.5" y="513.4355">entry/fire OpenSocketConnection</text></g><text fill="#000000" font-family="sans-serif" font-size="14" lengthAdjust="spacing" textLength="58" x="347.5" y="634.9951">success</text><ellipse cx="376.5" cy="616" fill="#F1F1F1" rx="6" ry="6" style="stroke:#181818;stroke-width:1.5;"/><line style="stroke:#181818;stroke-width:1.5;" x1="380.8891" x2="373.1109" y1="620.3891" y2="612.6109"/><line style="stroke:#181818;stroke-width:1.5;" x1="380.8891" x2="373.1109" y1="612.6109" y2="620.3891"/><text fill="#000000" font-family="sans-serif" font-size="14" lengthAdjust="spacing" textLength="33" x="175.5" y="634.9951">error</text><ellipse cx="192" cy="616" fill="#F1F1F1" rx="6" ry="6" style="stroke:#181818;stroke-width:1.5;"/><line style="stroke:#181818;stroke-width:1.5;" x1="196.3891" x2="188.6109" y1="620.3891" y2="612.6109"/><line style="stroke:#181818;stroke-width:1.5;" x1="196.3891" x2="188.6109" y1="612.6109" y2="620.3891"/><text fill="#000000" font-family="sans-serif" font-size="14" lengthAdjust="spacing" textLength="66" x="313.5" y="818.6982">terminate</text><ellipse cx="346.5" cy="840" fill="#F1F1F1" rx="6" ry="6" style="stroke:#181818;stroke-width:1.5;"/><g id="elem_qemuRunning"><polygon fill="#F1F1F1" points="347,924,359,936,347,948,335,936,347,924" style="stroke:#181818;stroke-width:0.5;"/></g><text fill="#000000" font-family="sans-serif" font-size="14" lengthAdjust="spacing" textLength="75" x="399.5" y="1299.9951">terminated</text><ellipse cx="437" cy="1281" fill="#F1F1F1" rx="6" ry="6" style="stroke:#181818;stroke-width:1.5;"/><line style="stroke:#181818;stroke-width:1.5;" x1="441.3891" x2="433.6109" y1="1285.3891" y2="1277.6109"/><line style="stroke:#181818;stroke-width:1.5;" x1="441.3891" x2="433.6109" y1="1277.6109" y2="1285.3891"/><g id="Terminating.qemuPowerdown"><rect fill="#F1F1F1" height="50.2656" rx="12.5" ry="12.5" style="stroke:#181818;stroke-width:0.5;" width="387" x="126.5" y="1025"/><line style="stroke:#181818;stroke-width:0.5;" x1="126.5" x2="513.5" y1="1051.2969" y2="1051.2969"/><text fill="#000000" font-family="sans-serif" font-size="14" lengthAdjust="spacing" textLength="125" x="257.5" y="1042.9951">Powerdown qemu</text><text fill="#000000" font-family="sans-serif" font-size="12" lengthAdjust="spacing" textLength="367" x="131.5" y="1067.4355">entry/suspend Stop, send powerdown to qemu, start timer</text></g><g id="Terminating.terminateProcesses"><rect fill="#F1F1F1" height="50" rx="12.5" ry="12.5" style="stroke:#181818;stroke-width:0.5;" width="198" x="338" y="1152"/><line style="stroke:#181818;stroke-width:0.5;" x1="338" x2="536" y1="1178.2969" y2="1178.2969"/><text fill="#000000" font-family="sans-serif" font-size="14" lengthAdjust="spacing" textLength="178" x="348" y="1169.9951">Await process termination</text></g><ellipse cx="292" cy="16" fill="#181818" rx="10" ry="10" style="stroke:none;stroke-width:1.0;"/><g id="Initializing"><rect fill="#F1F1F1" height="50" rx="12.5" ry="12.5" style="stroke:#181818;stroke-width:0.5;" width="86" x="249" y="87"/><line style="stroke:#181818;stroke-width:0.5;" x1="249" x2="335" y1="113.2969" y2="113.2969"/><text fill="#000000" font-family="sans-serif" font-size="14" lengthAdjust="spacing" textLength="66" x="259" y="104.9951">Initializing</text></g><g id="Running"><rect fill="#F1F1F1" height="50" rx="12.5" ry="12.5" style="stroke:#181818;stroke-width:0.5;" width="78" x="338" y="695"/><line style="stroke:#181818;stroke-width:0.5;" x1="338" x2="416" y1="721.2969" y2="721.2969"/><text fill="#000000" font-family="sans-serif" font-size="14" lengthAdjust="spacing" textLength="58" x="348" y="712.9951">Running</text></g><ellipse cx="437" cy="1370" fill="none" rx="10" ry="10" style="stroke:#181818;stroke-width:1.0;"/><ellipse cx="437.5" cy="1370.5" fill="#181818" rx="6" ry="6" style="stroke:none;stroke-width:1.0;"/><!--link *start* to Initializing--><g id="link_*start*_Initializing"><path d="M292,26.01 C292,38.7 292,62.41 292,81.57 " fill="none" id="*start*-to-Initializing" style="stroke:#181818;stroke-width:1.0;"/><polygon fill="#181818" points="292,86.84,296,77.84,292,81.84,288,77.84,292,86.84" style="stroke:#181818;stroke-width:1.0;"/></g><!--link Initializing to Initializing--><g id="link_Initializing_Initializing"><path d="M335.31,107 C354,106.59 370,108.26 370,112 C370,115.39 356.86,117.08 340.49,117.06 " fill="none" id="Initializing-to-Initializing" style="stroke:#181818;stroke-width:1.0;"/><polygon fill="#181818" points="335.31,117,344.2637,121.1026,340.3097,117.0571,344.3551,113.1031,335.31,117" style="stroke:#181818;stroke-width:1.0;"/><text fill="#000000" font-family="sans-serif" font-size="13" lengthAdjust="spacing" textLength="230" x="376" y="116.5669">InitialConfiguration/configure Runner</text></g><!--link Initializing to Initializing--><g id="link_Initializing_Initializing"><path d="M335.19,105.85 C425.17,98.97 612,101.02 612,112 C612,122.78 432.04,124.95 340.3,118.52 " fill="none" id="Initializing-to-Initializing-1" style="stroke:#181818;stroke-width:1.0;"/><polygon fill="#181818" points="335.19,118.15,343.868,122.8076,340.1762,118.5215,344.4623,114.8297,335.19,118.15" style="stroke:#181818;stroke-width:1.0;"/><text fill="#000000" font-family="sans-serif" font-size="13" lengthAdjust="spacing" textLength="115" x="618" y="116.5669">Start/start Runner</text></g><!--link which to swtpm--><g id="link_which_swtpm"><path d="M284.56,260.25 C261.66,273.34 190.93,313.75 142.91,341.19 " fill="none" id="which-to-swtpm" style="stroke:#181818;stroke-width:1.0;"/><polygon fill="#181818" points="138.34,343.81,148.1366,342.7969,142.6759,341.3201,144.1527,335.8594,138.34,343.81" style="stroke:#181818;stroke-width:1.0;"/><text fill="#000000" font-family="sans-serif" font-size="13" lengthAdjust="spacing" textLength="79" x="218" y="310.0669">[use swtpm]</text></g><!--link which to qemu--><g id="link_which_qemu"><path d="M298.45,260.64 C301.33,262.65 304.79,265.01 308,267 C351.01,293.7 401.41,321.56 438.09,341.24 " fill="none" id="which-to-qemu" style="stroke:#181818;stroke-width:1.0;"/><polygon fill="#181818" points="442.94,343.84,436.8851,336.0722,438.5294,341.4848,433.1168,343.1292,442.94,343.84" style="stroke:#181818;stroke-width:1.0;"/><text fill="#000000" font-family="sans-serif" font-size="13" lengthAdjust="spacing" textLength="36" x="387" y="310.0669">[else]</text></g><!--link swtpm to qemu--><g id="link_swtpm_qemu"><path d="M161.34,369 C233.27,369 348.38,369 421.26,369 " fill="none" id="swtpm-to-qemu" style="stroke:#181818;stroke-width:1.0;"/><polygon fill="#181818" points="426.43,369,417.43,365,421.43,369,417.43,373,426.43,369" style="stroke:#181818;stroke-width:1.0;"/><text fill="#000000" font-family="sans-serif" font-size="13" lengthAdjust="spacing" textLength="229" x="179.25" y="362.0669">FileChanged[swtpm socket created]</text></g><!--link qemu to monitor--><g id="link_qemu_monitor"><path d="M426.33,380.2 C396.89,387.86 363.24,401.13 340,424 C328.7,435.12 322.06,451.46 318.19,465.66 " fill="none" id="qemu-to-monitor" style="stroke:#181818;stroke-width:1.0;"/><polygon fill="#181818" points="316.89,470.78,323.0017,463.0568,318.1329,465.9369,315.2528,461.0682,316.89,470.78" style="stroke:#181818;stroke-width:1.0;"/><text fill="#000000" font-family="sans-serif" font-size="13" lengthAdjust="spacing" textLength="237" x="341" y="437.0669">FileChanged[monitor socket created]</text></g><!--link monitor to success--><g id="link_monitor_success"><path d="M326.11,521.16 C340.15,547.05 361.74,586.87 371.67,605.18 " fill="none" id="monitor-to-success" style="stroke:#181818;stroke-width:1.0;"/><polygon fill="#181818" points="374.15,609.74,373.3631,599.9226,371.7608,605.3478,366.3356,603.7454,374.15,609.74" style="stroke:#181818;stroke-width:1.0;"/><text fill="#000000" font-family="sans-serif" font-size="13" lengthAdjust="spacing" textLength="186" x="351" y="564.0669">ClientConnected[for monitor]</text></g><!--link monitor to error--><g id="link_monitor_error"><path d="M202.55,521.17 C188.98,528.6 176.81,538.31 168,551 C155.83,568.51 172.57,592.97 183.63,606 " fill="none" id="monitor-to-error" style="stroke:#181818;stroke-width:1.0;"/><polygon fill="#181818" points="187.11,609.95,184.1559,600.5546,183.8024,606.2004,178.1566,605.8468,187.11,609.95" style="stroke:#181818;stroke-width:1.0;"/><text fill="#000000" font-family="sans-serif" font-size="13" lengthAdjust="spacing" textLength="165" x="169" y="564.0669">ConnectError[for monitor]</text></g><!--link Initializing to which--><g id="link_Initializing_which"><path d="M292,137.24 C292,165.93 292,212.94 292,237.65 " fill="none" id="Initializing-to-which" style="stroke:#181818;stroke-width:1.0;"/><polygon fill="#181818" points="292,242.85,296,233.85,292,237.85,288,233.85,292,242.85" style="stroke:#181818;stroke-width:1.0;"/><text fill="#000000" font-family="sans-serif" font-size="13" lengthAdjust="spacing" textLength="48" x="293" y="180.0669">Started</text></g><!--link success to Running--><g id="link_success_Running"><path d="M377,622.2 C377,634.43 377,665.77 377,689.51 " fill="none" id="success-to-Running" style="stroke:#181818;stroke-width:1.0;"/><polygon fill="#181818" points="377,694.75,381,685.75,377,689.75,373,685.75,377,694.75" style="stroke:#181818;stroke-width:1.0;"/></g><!--link terminate to qemuRunning--><g id="link_terminate_qemuRunning"><path d="M347,846.05 C347,859.55 347,896.91 347,918.67 " fill="none" id="terminate-to-qemuRunning" style="stroke:#181818;stroke-width:1.0;"/><polygon fill="#181818" points="347,923.85,351,914.85,347,918.85,343,914.85,347,923.85" style="stroke:#181818;stroke-width:1.0;"/></g><!--link qemuRunning to qemuPowerdown--><g id="link_qemuRunning_qemuPowerdown"><path d="M344.79,946.17 C340.96,962.07 332.92,995.4 327.03,1019.82 " fill="none" id="qemuRunning-to-qemuPowerdown" style="stroke:#181818;stroke-width:1.0;"/><polygon fill="#181818" points="325.81,1024.89,331.8034,1017.0747,326.979,1020.0286,324.0251,1015.2042,325.81,1024.89" style="stroke:#181818;stroke-width:1.0;"/><text fill="#000000" font-family="sans-serif" font-size="13" lengthAdjust="spacing" textLength="137" x="337" y="991.0669">[qemu monitor open]</text></g><!--link qemuRunning to terminateProcesses--><g id="link_qemuRunning_terminateProcesses"><path d="M356.88,938.32 C380.23,941.78 440.12,952.65 483,978 C539.63,1011.47 547.98,1040.15 559,1105 C560.27,1112.45 563.12,1115.67 559,1122 C551.63,1133.32 541.28,1142.29 529.7,1149.39 " fill="none" id="qemuRunning-to-terminateProcesses" style="stroke:#181818;stroke-width:1.0;"/><polygon fill="#181818" points="525.38,1151.92,535.1673,1150.8201,529.6937,1149.3918,531.1221,1143.9182,525.38,1151.92" style="stroke:#181818;stroke-width:1.0;"/><text fill="#000000" font-family="sans-serif" font-size="13" lengthAdjust="spacing" textLength="36" x="554" y="1054.5669">[else]</text></g><!--link qemuPowerdown to terminateProcesses--><g id="link_qemuPowerdown_terminateProcesses"><path d="M207.81,1075.02 C180.89,1085.98 164.19,1101.27 181,1122 C200.34,1145.85 270.66,1159.57 332.71,1167.21 " fill="none" id="qemuPowerdown-to-terminateProcesses" style="stroke:#181818;stroke-width:1.0;"/><polygon fill="#181818" points="337.92,1167.84,329.4659,1162.7875,332.9562,1167.2392,328.5046,1170.7296,337.92,1167.84" style="stroke:#181818;stroke-width:1.0;"/><text fill="#000000" font-family="sans-serif" font-size="13" lengthAdjust="spacing" textLength="211" x="182" y="1118.0669">Closed[for monitor]/resume Stop</text></g><!--link qemuPowerdown to terminateProcesses--><g id="link_qemuPowerdown_terminateProcesses"><path d="M362.53,1075.24 C374.92,1083.61 387.85,1093.75 398,1105 C409.17,1117.39 418.36,1133.53 425.01,1147.3 " fill="none" id="qemuPowerdown-to-terminateProcesses-1" style="stroke:#181818;stroke-width:1.0;"/><polygon fill="#181818" points="427.16,1151.87,426.9396,1142.0236,425.0276,1147.3475,419.7036,1145.4355,427.16,1151.87" style="stroke:#181818;stroke-width:1.0;"/><text fill="#000000" font-family="sans-serif" font-size="13" lengthAdjust="spacing" textLength="139" x="411" y="1118.0669">Timeout/resume Stop</text></g><!--link terminateProcesses to terminated--><g id="link_terminateProcesses_terminated"><path d="M437,1202.17 C437,1223.58 437,1253.8 437,1269.54 " fill="none" id="terminateProcesses-to-terminated" style="stroke:#181818;stroke-width:1.0;"/><polygon fill="#181818" points="437,1274.65,441,1265.65,437,1269.65,433,1265.65,437,1274.65" style="stroke:#181818;stroke-width:1.0;"/></g><!--link Running to terminate--><g id="link_Running_terminate"><path d="M337.69,742.27 C325.93,750.77 314.46,761.74 308,775 C297.77,795.99 321.04,819 335.88,830.88 " fill="none" id="Running-to-terminate" style="stroke:#181818;stroke-width:1.0;"/><polygon fill="#181818" points="340.16,834.2,335.4985,825.5241,336.2086,831.1362,330.5965,831.8464,340.16,834.2" style="stroke:#181818;stroke-width:1.0;"/><text fill="#000000" font-family="sans-serif" font-size="13" lengthAdjust="spacing" textLength="30" x="309" y="788.0669">Stop</text></g><!--link Running to terminate--><g id="link_Running_terminate"><path d="M370.86,745.16 C364.33,770.83 354.32,810.19 349.62,828.71 " fill="none" id="Running-to-terminate-1" style="stroke:#181818;stroke-width:1.0;"/><polygon fill="#181818" points="348.34,833.74,354.4303,825.9999,349.5695,828.8935,346.6759,824.0327,348.34,833.74" style="stroke:#181818;stroke-width:1.0;"/><text fill="#000000" font-family="sans-serif" font-size="13" lengthAdjust="spacing" textLength="190" x="363" y="788.0669">ProcessExited[process qemu]</text></g><!--link error to terminate--><g id="link_error_terminate"><path d="M194.45,622.2 C204.93,644.13 247.64,730.76 297,792 C309.14,807.07 326.01,821.94 336.71,830.79 " fill="none" id="error-to-terminate" style="stroke:#181818;stroke-width:1.0;"/><polygon fill="#181818" points="340.62,833.99,336.1926,825.1924,336.7521,830.8215,331.123,831.381,340.62,833.99" style="stroke:#181818;stroke-width:1.0;"/></g><!--link StartingProcess to terminate--><g id="link_StartingProcess_terminate"><path d="M584.1665,287.0597 C584.2371,287.2157 584.3078,287.3721 584.3785,287.529 C584.6614,288.1564 584.9449,288.7905 585.2288,289.4313 C585.7966,290.7127 586.3661,292.0205 586.935,293.3525 C596.0375,314.665 605,342.2 605,368 C605,368 605,368 605,721 C605,831.28 407.65,838.92 358.15,839.1 " fill="none" id="StartingProcess-to-terminate" style="stroke:#181818;stroke-width:1.0;"/><polygon fill="#181818" points="352.87,839.09,361.8585,843.1157,357.87,839.1043,361.8814,835.1157,352.87,839.09" style="stroke:#181818;stroke-width:1.0;"/><text fill="#000000" font-family="sans-serif" font-size="13" lengthAdjust="spacing" textLength="89" x="606" y="564.0669">ProcessExited</text></g><!--link terminated to *end*--><g id="link_terminated_*end*"><path d="M437,1287.18 C437,1300.29 437,1335.12 437,1354.85 " fill="none" id="terminated-to-*end*" style="stroke:#181818;stroke-width:1.0;"/><polygon fill="#181818" points="437,1359.99,441,1350.99,437,1354.99,433,1350.99,437,1359.99" style="stroke:#181818;stroke-width:1.0;"/></g><!--SRC=[bLJBRjim4BpxAnO-fK42tmN3G66aG4yrcjm47GHfRHErI8MaeBP1_xsxV4MKvHJrmI2vCyDz35NUL_3uk8ElKbXHNyHl8K-hR0UpQ15tUoMFuZJesWebDqtO8NmVf4JzBv5dMskxCVoV62kWlKLOko3JxWvQDMWCcazhg0t4G3Y6DoRnpnF7isZEiDqsPoKQtEscCIyAPhHzvxJSQW7nYjtW0Bp8ujzwbD0fgaDfXmZhASWCZSjikyMVmXwKa3RF0xLMUYaSAl4ry4nSWWMKWq6_hkO8pf00U35OfKvu5aghVuN-JYlb9IJg5t71_RcM9snB7pAg-O4M6esKR9jKFNmg-juTNhbqGZiWrusdCsM8qY4UrO-2FCITVdPuSfd4XYsMeNs3VAyBs5y4aGEKhZmI802h6Mtd1q0SZtxYtOpmXrFBxKiyr_PWN6oTMyEiESeUTcydclW5TITaxMpyDZM03G5a4t392oRXbWR56tPEAkrjgwqFQaJTgb7cfax76VZpM0iBVNXPKPyQxtZfllGYu_pUwucMJBs8xeYbH41Ae2YTUU9q58szMgPTtr_alizrerK7Gv8j3Ktr3s1usQUUMEL83-0DRKM7uIalADvAWhodpCno6urcwD3T-ZzIBvI16kmr_HgSQxJ1iuiDAuBGZM2GV28BKHbn_9mmjTP_h3B6wkeZ_97WoZtpYLaPNDvNVm40]--></g></svg>