<?xml version="1.0" encoding="us-ascii" standalone="no"?><svg xmlns="http://www.w3.org/2000/svg" xmlns:xlink="http://www.w3.org/1999/xlink" contentStyleType="text/css" height="598px" preserveAspectRatio="none" style="width:783px;height:598px;background:#FFFFFF;" version="1.1" viewBox="0 0 783 598" width="783px" zoomAndPan="magnify"><defs/><g><!--cluster Conceptual WebConsole--><g id="cluster_Conceptual WebConsole"><rect fill="none" height="203" rx="2.5" ry="2.5" style="stroke:#181818;stroke-width:1.0;" width="209" x="159.5" y="290"/><text fill="#000000" font-family="sans-serif" font-size="14" font-weight="bold" lengthAdjust="spacing" textLength="193" x="167.5" y="304.9951">Conceptual WebConsole</text></g><!--entity ConsoleWeblet--><g id="elem_ConsoleWeblet"><rect fill="#F1F1F1" height="46.2969" rx="2.5" ry="2.5" style="stroke:#181818;stroke-width:0.5;" width="145" x="207" y="325"/><rect fill="#F1F1F1" height="10" style="stroke:#181818;stroke-width:0.5;" width="15" x="332" y="330"/><rect fill="#F1F1F1" height="2" style="stroke:#181818;stroke-width:0.5;" width="4" x="330" y="332"/><rect fill="#F1F1F1" height="2" style="stroke:#181818;stroke-width:0.5;" width="4" x="330" y="336"/><text fill="#000000" font-family="sans-serif" font-size="14" lengthAdjust="spacing" textLength="105" x="222" y="357.9951">ConsoleWeblet</text></g><!--entity WebConsole--><g id="elem_WebConsole"><rect fill="#F1F1F1" height="46.2969" rx="2.5" ry="2.5" style="stroke:#181818;stroke-width:0.5;" width="128" x="218.5" y="431"/><rect fill="#F1F1F1" height="10" style="stroke:#181818;stroke-width:0.5;" width="15" x="326.5" y="436"/><rect fill="#F1F1F1" height="2" style="stroke:#181818;stroke-width:0.5;" width="4" x="324.5" y="438"/><rect fill="#F1F1F1" height="2" style="stroke:#181818;stroke-width:0.5;" width="4" x="324.5" y="442"/><text fill="#000000" font-family="sans-serif" font-size="14" lengthAdjust="spacing" textLength="88" x="233.5" y="463.9951">WebConsole</text></g><!--entity mgr--><g id="elem_mgr"><ellipse cx="222.5" cy="136" fill="#F1F1F1" rx="8" ry="8" style="stroke:#181818;stroke-width:0.5;"/><text fill="#000000" font-family="sans-serif" font-size="14" lengthAdjust="spacing" textLength="61" x="192" y="165.9951">manager</text></g><!--entity FileSystemWatcher--><g id="elem_FileSystemWatcher"><rect fill="#F1F1F1" height="46.2969" rx="2.5" ry="2.5" style="stroke:#181818;stroke-width:0.5;" width="171" x="7" y="113"/><rect fill="#F1F1F1" height="10" style="stroke:#181818;stroke-width:0.5;" width="15" x="158" y="118"/><rect fill="#F1F1F1" height="2" style="stroke:#181818;stroke-width:0.5;" width="4" x="156" y="120"/><rect fill="#F1F1F1" height="2" style="stroke:#181818;stroke-width:0.5;" width="4" x="156" y="124"/><text fill="#000000" font-family="sans-serif" font-size="14" lengthAdjust="spacing" textLength="131" x="22" y="145.9951">FileSystemWatcher</text></g><!--entity YamlConfigurationStore--><g id="elem_YamlConfigurationStore"><rect fill="#F1F1F1" height="46.2969" rx="2.5" ry="2.5" style="stroke:#181818;stroke-width:0.5;" width="202" x="266.5" y="113"/><rect fill="#F1F1F1" height="10" style="stroke:#181818;stroke-width:0.5;" width="15" x="448.5" y="118"/><rect fill="#F1F1F1" height="2" style="stroke:#181818;stroke-width:0.5;" width="4" x="446.5" y="120"/><rect fill="#F1F1F1" height="2" style="stroke:#181818;stroke-width:0.5;" width="4" x="446.5" y="124"/><text fill="#000000" font-family="sans-serif" font-size="14" lengthAdjust="spacing" textLength="162" x="281.5" y="145.9951">YamlConfigurationStore</text></g><!--entity Controller--><g id="elem_Controller"><rect fill="#F1F1F1" height="46.2969" rx="2.5" ry="2.5" style="stroke:#181818;stroke-width:0.5;" width="107" x="154" y="219"/><rect fill="#F1F1F1" height="10" style="stroke:#181818;stroke-width:0.5;" width="15" x="241" y="224"/><rect fill="#F1F1F1" height="2" style="stroke:#181818;stroke-width:0.5;" width="4" x="239" y="226"/><rect fill="#F1F1F1" height="2" style="stroke:#181818;stroke-width:0.5;" width="4" x="239" y="230"/><text fill="#000000" font-family="sans-serif" font-size="14" lengthAdjust="spacing" textLength="67" x="169" y="251.9951">Controller</text></g><!--entity Manager--><g id="elem_Manager"><rect fill="#F1F1F1" height="46.2969" rx="2.5" ry="2.5" style="stroke:#181818;stroke-width:0.5;" width="100" x="226.5" y="7"/><rect fill="#F1F1F1" height="10" style="stroke:#181818;stroke-width:0.5;" width="15" x="306.5" y="12"/><rect fill="#F1F1F1" height="2" style="stroke:#181818;stroke-width:0.5;" width="4" x="304.5" y="14"/><rect fill="#F1F1F1" height="2" style="stroke:#181818;stroke-width:0.5;" width="4" x="304.5" y="18"/><text fill="#000000" font-family="sans-serif" font-size="14" lengthAdjust="spacing" textLength="60" x="241.5" y="39.9951">Manager</text></g><!--entity VmWatcher--><g id="elem_VmWatcher"><rect fill="#F1F1F1" height="46.2969" rx="2.5" ry="2.5" style="stroke:#181818;stroke-width:0.5;" width="119" x="72" y="7"/><rect fill="#F1F1F1" height="10" style="stroke:#181818;stroke-width:0.5;" width="15" x="171" y="12"/><rect fill="#F1F1F1" height="2" style="stroke:#181818;stroke-width:0.5;" width="4" x="169" y="14"/><rect fill="#F1F1F1" height="2" style="stroke:#181818;stroke-width:0.5;" width="4" x="169" y="18"/><text fill="#000000" font-family="sans-serif" font-size="14" lengthAdjust="spacing" textLength="79" x="87" y="39.9951">VmWatcher</text></g><!--entity Reconciler--><g id="elem_Reconciler"><rect fill="#F1F1F1" height="46.2969" rx="2.5" ry="2.5" style="stroke:#181818;stroke-width:0.5;" width="113" x="296" y="219"/><rect fill="#F1F1F1" height="10" style="stroke:#181818;stroke-width:0.5;" width="15" x="389" y="224"/><rect fill="#F1F1F1" height="2" style="stroke:#181818;stroke-width:0.5;" width="4" x="387" y="226"/><rect fill="#F1F1F1" height="2" style="stroke:#181818;stroke-width:0.5;" width="4" x="387" y="230"/><text fill="#000000" font-family="sans-serif" font-size="14" lengthAdjust="spacing" textLength="73" x="311" y="251.9951">Reconciler</text></g><!--entity hT--><g id="elem_hT"><ellipse cx="512.5" cy="136" fill="#F1F1F1" rx="8" ry="8" style="stroke:#181818;stroke-width:0.5;"/><text fill="#000000" font-family="sans-serif" font-size="14" lengthAdjust="spacing" textLength="88" x="468.5" y="165.9951">guiTransport</text></g><!--entity GuiSocketServer:8080--><g id="elem_GuiSocketServer:8080"><rect fill="#F1F1F1" height="46.2969" rx="2.5" ry="2.5" style="stroke:#181818;stroke-width:0.5;" width="196" x="414.5" y="7"/><rect fill="#F1F1F1" height="10" style="stroke:#181818;stroke-width:0.5;" width="15" x="590.5" y="12"/><rect fill="#F1F1F1" height="2" style="stroke:#181818;stroke-width:0.5;" width="4" x="588.5" y="14"/><rect fill="#F1F1F1" height="2" style="stroke:#181818;stroke-width:0.5;" width="4" x="588.5" y="18"/><text fill="#000000" font-family="sans-serif" font-size="14" lengthAdjust="spacing" textLength="156" x="429.5" y="39.9951">GuiSocketServer:8080</text></g><!--entity GuiHttpServer--><g id="elem_GuiHttpServer"><rect fill="#F1F1F1" height="46.2969" rx="2.5" ry="2.5" style="stroke:#181818;stroke-width:0.5;" width="136" x="444.5" y="219"/><rect fill="#F1F1F1" height="10" style="stroke:#181818;stroke-width:0.5;" width="15" x="560.5" y="224"/><rect fill="#F1F1F1" height="2" style="stroke:#181818;stroke-width:0.5;" width="4" x="558.5" y="226"/><rect fill="#F1F1F1" height="2" style="stroke:#181818;stroke-width:0.5;" width="4" x="558.5" y="230"/><text fill="#000000" font-family="sans-serif" font-size="14" lengthAdjust="spacing" textLength="96" x="459.5" y="251.9951">GuiHttpServer</text></g><!--entity http--><g id="elem_http"><ellipse cx="512.5" cy="348" fill="#F1F1F1" rx="8" ry="8" style="stroke:#181818;stroke-width:0.5;"/><text fill="#000000" font-family="sans-serif" font-size="14" lengthAdjust="spacing" textLength="50" x="487.5" y="377.9951">guiHttp</text></g><!--entity PreferencesStore--><g id="elem_PreferencesStore"><rect fill="#F1F1F1" height="46.2969" rx="2.5" ry="2.5" style="stroke:#181818;stroke-width:0.5;" width="161" x="616" y="219"/><rect fill="#F1F1F1" height="10" style="stroke:#181818;stroke-width:0.5;" width="15" x="757" y="224"/><rect fill="#F1F1F1" height="2" style="stroke:#181818;stroke-width:0.5;" width="4" x="755" y="226"/><rect fill="#F1F1F1" height="2" style="stroke:#181818;stroke-width:0.5;" width="4" x="755" y="230"/><text fill="#000000" font-family="sans-serif" font-size="14" lengthAdjust="spacing" textLength="121" x="631" y="251.9951">PreferencesStore</text></g><!--entity OidcClient--><g id="elem_OidcClient"><rect fill="#F1F1F1" height="46.2969" rx="2.5" ry="2.5" style="stroke:#181818;stroke-width:0.5;" width="110" x="384.5" y="431"/><rect fill="#F1F1F1" height="10" style="stroke:#181818;stroke-width:0.5;" width="15" x="474.5" y="436"/><rect fill="#F1F1F1" height="2" style="stroke:#181818;stroke-width:0.5;" width="4" x="472.5" y="438"/><rect fill="#F1F1F1" height="2" style="stroke:#181818;stroke-width:0.5;" width="4" x="472.5" y="442"/><text fill="#000000" font-family="sans-serif" font-size="14" lengthAdjust="spacing" textLength="70" x="399.5" y="463.9951">OidcClient</text></g><!--entity LanguageSelector--><g id="elem_LanguageSelector"><rect fill="#F1F1F1" height="46.2969" rx="2.5" ry="2.5" style="stroke:#181818;stroke-width:0.5;" width="165" x="557" y="325"/><rect fill="#F1F1F1" height="10" style="stroke:#181818;stroke-width:0.5;" width="15" x="702" y="330"/><rect fill="#F1F1F1" height="2" style="stroke:#181818;stroke-width:0.5;" width="4" x="700" y="332"/><rect fill="#F1F1F1" height="2" style="stroke:#181818;stroke-width:0.5;" width="4" x="700" y="336"/><text fill="#000000" font-family="sans-serif" font-size="14" lengthAdjust="spacing" textLength="125" x="572" y="357.9951">LanguageSelector</text></g><!--entity InMemorySessionManager--><g id="elem_InMemorySessionManager"><rect fill="#F1F1F1" height="46.2969" rx="2.5" ry="2.5" style="stroke:#181818;stroke-width:0.5;" width="222" x="529.5" y="431"/><rect fill="#F1F1F1" height="10" style="stroke:#181818;stroke-width:0.5;" width="15" x="731.5" y="436"/><rect fill="#F1F1F1" height="2" style="stroke:#181818;stroke-width:0.5;" width="4" x="729.5" y="438"/><rect fill="#F1F1F1" height="2" style="stroke:#181818;stroke-width:0.5;" width="4" x="729.5" y="442"/><text fill="#000000" font-family="sans-serif" font-size="14" lengthAdjust="spacing" textLength="182" x="544.5" y="463.9951">InMemorySessionManager</text></g><!--entity console--><g id="elem_console"><ellipse cx="362.5" cy="560" fill="#F1F1F1" rx="8" ry="8" style="stroke:#181818;stroke-width:0.5;"/><text fill="#000000" font-family="sans-serif" font-size="14" lengthAdjust="spacing" textLength="55" x="335" y="589.9951">console</text></g><!--entity LoginConlet--><g id="elem_LoginConlet"><rect fill="#F1F1F1" height="46.2969" rx="2.5" ry="2.5" style="stroke:#181818;stroke-width:0.5;" width="122" x="196.5" y="537"/><rect fill="#F1F1F1" height="10" style="stroke:#181818;stroke-width:0.5;" width="15" x="298.5" y="542"/><rect fill="#F1F1F1" height="2" style="stroke:#181818;stroke-width:0.5;" width="4" x="296.5" y="544"/><rect fill="#F1F1F1" height="2" style="stroke:#181818;stroke-width:0.5;" width="4" x="296.5" y="548"/><text fill="#000000" font-family="sans-serif" font-size="14" lengthAdjust="spacing" textLength="82" x="211.5" y="569.9951">LoginConlet</text></g><g id="elem_GMN50"><path d="M407,547.5 L407,556 L371.52,560 L407,564 L407,572.6328 A0,0 0 0 0 407,572.6328 L598,572.6328 A0,0 0 0 0 598,572.6328 L598,557.5 L588,547.5 L407,547.5 A0,0 0 0 0 407,547.5 " fill="#FEFFDD" style="stroke:#181818;stroke-width:0.5;"/><path d="M588,547.5 L588,557.5 L598,557.5 L588,547.5 " fill="#FEFFDD" style="stroke:#181818;stroke-width:0.5;"/><text fill="#000000" font-family="sans-serif" font-size="13" lengthAdjust="spacing" textLength="170" x="413" y="564.5669">More conlets connect here</text></g><!--link FileSystemWatcher to mgr--><g id="link_FileSystemWatcher_mgr"><path d="M178.07,136 C189.87,136 201.67,136 213.47,136 " fill="none" id="FileSystemWatcher-mgr" style="stroke:#181818;stroke-width:1.0;stroke-dasharray:7.0,7.0;"/></g><!--link mgr to YamlConfigurationStore--><g id="link_mgr_YamlConfigurationStore"><path d="M231.56,136 C243.16,136 254.75,136 266.34,136 " fill="none" id="mgr-YamlConfigurationStore" style="stroke:#181818;stroke-width:1.0;stroke-dasharray:7.0,7.0;"/></g><!--link mgr to Controller--><g id="link_mgr_Controller"><path d="M221.32,145.16 C219.06,160.87 214.02,195.78 210.69,218.85 " fill="none" id="mgr-Controller" style="stroke:#181818;stroke-width:1.0;stroke-dasharray:7.0,7.0;"/></g><!--link Manager to mgr--><g id="link_Manager_mgr"><path d="M265.05,53.06 C253.04,76.19 234.8,111.32 226.66,126.98 " fill="none" id="Manager-mgr" style="stroke:#181818;stroke-width:1.0;stroke-dasharray:7.0,7.0;"/></g><!--link VmWatcher to mgr--><g id="link_VmWatcher_mgr"><path d="M150.8,53.06 C171.04,76.19 201.78,111.32 215.48,126.98 " fill="none" id="VmWatcher-mgr" style="stroke:#181818;stroke-width:1.0;stroke-dasharray:7.0,7.0;"/></g><!--link mgr to Reconciler--><g id="link_mgr_Reconciler"><path d="M231.58,144.82 C236.54,149.05 242.82,154.36 248.5,159 C273.79,179.66 303.02,202.63 324.04,218.99 " fill="none" id="mgr-Reconciler" style="stroke:#181818;stroke-width:1.0;stroke-dasharray:7.0,7.0;"/></g><!--link GuiSocketServer:8080 to hT--><g id="link_GuiSocketServer:8080_hT"><path d="M512.5,53.06 C512.5,76.19 512.5,111.32 512.5,126.98 " fill="none" id="GuiSocketServer:8080-hT" style="stroke:#181818;stroke-width:1.0;stroke-dasharray:7.0,7.0;"/></g><!--link hT to GuiHttpServer--><g id="link_hT_GuiHttpServer"><path d="M512.5,145.16 C512.5,160.87 512.5,195.78 512.5,218.85 " fill="none" id="hT-GuiHttpServer" style="stroke:#181818;stroke-width:1.0;stroke-dasharray:7.0,7.0;"/></g><!--link YamlConfigurationStore to hT--><!--link GuiHttpServer to http--><g id="link_GuiHttpServer_http"><path d="M512.5,265.06 C512.5,288.19 512.5,323.32 512.5,338.98 " fill="none" id="GuiHttpServer-http" style="stroke:#181818;stroke-width:1.0;stroke-dasharray:7.0,7.0;"/></g><!--link PreferencesStore to http--><g id="link_PreferencesStore_http"><path d="M615.6,261.47 C578.85,270.15 542.76,279.2 539.5,282 C522.08,296.98 515.69,325.01 513.52,338.85 " fill="none" id="PreferencesStore-http" style="stroke:#181818;stroke-width:1.0;stroke-dasharray:7.0,7.0;"/></g><!--link http to OidcClient--><g id="link_http_OidcClient"><path d="M506.77,357.16 C495.75,372.87 471.24,407.78 455.05,430.85 " fill="none" id="http-OidcClient" style="stroke:#181818;stroke-width:1.0;stroke-dasharray:7.0,7.0;"/></g><!--link http to LanguageSelector--><g id="link_http_LanguageSelector"><path d="M521.93,348 C533.56,348 545.2,348 556.83,348 " fill="none" id="http-LanguageSelector" style="stroke:#181818;stroke-width:1.0;stroke-dasharray:7.0,7.0;"/></g><!--link http to InMemorySessionManager--><g id="link_http_InMemorySessionManager"><path d="M521.74,356.54 C526.96,360.79 533.59,366.19 539.5,371 C564.38,391.24 592.74,414.25 613.05,430.74 " fill="none" id="http-InMemorySessionManager" style="stroke:#181818;stroke-width:1.0;stroke-dasharray:7.0,7.0;"/></g><!--link ConsoleWeblet to http--><g id="link_ConsoleWeblet_http"><path d="M352.31,348 C402.68,348 453.06,348 503.43,348 " fill="none" id="ConsoleWeblet-http" style="stroke:#181818;stroke-width:1.0;stroke-dasharray:7.0,7.0;"/></g><!--reverse link ConsoleWeblet to WebConsole--><g id="link_ConsoleWeblet_WebConsole"><path d="M280.52,384.44 C280.97,399.87 281.48,417.47 281.86,430.98 " fill="none" id="ConsoleWeblet-backto-WebConsole" style="stroke:#181818;stroke-width:1.0;"/><polygon fill="#181818" points="280.14,371.06,276.313,377.1718,280.4827,383.0551,284.3097,376.9433,280.14,371.06" style="stroke:#181818;stroke-width:1.0;"/></g><!--link Controller to ConsoleWeblet--><!--link console to WebConsole--><g id="link_console_WebConsole"><path d="M356.33,550.98 C344.29,535.32 317.26,500.19 299.47,477.06 " fill="none" id="console-WebConsole" style="stroke:#181818;stroke-width:1.0;stroke-dasharray:7.0,7.0;"/></g><!--link OidcClient to console--><g id="link_OidcClient_console"><path d="M423.17,477.06 C406.04,500.19 380.03,535.32 368.44,550.98 " fill="none" id="OidcClient-console" style="stroke:#181818;stroke-width:1.0;stroke-dasharray:7.0,7.0;"/></g><!--link LoginConlet to console--><g id="link_LoginConlet_console"><path d="M318.61,560 C330.16,560 341.7,560 353.24,560 " fill="none" id="LoginConlet-console" style="stroke:#181818;stroke-width:1.0;stroke-dasharray:7.0,7.0;"/></g><!--SRC=[TL9DQyCm3BtdLuYUja53ZwNNmZwWPMCfAoFauBbgQkhOGN4sojX_dsp7ozgnGuoj9pr9xwKxAjCA4WsqGXv5ZOKxQGH2wOIfDMQGmTKrJ1fX6AG9Y0wQcZ9_GAvnxt8eRvN6ujGvRBR2oGDIDU2aweDFU1MDNbgpLtLFmYbh2cS9KnOdCEZ8QZsMzYs7rx7hMUpbiWd7db5Q8rKiZmFNlTgGC5rhoOMf3vkClu7ahbU5bKTq1T8xqc8-cy-gYE_iXuaPzywr4G-i_sq1qx1cUL2x7Pfg6Zhz3E59Od- -PE4SPxZiy4IuHq8ZiHkuURjOM3wgdLngXSPLaM28hzYdtXk7caspL2LR1lp1hB6nT2gmwtZc9EblZYoP3nFUJsBhUg5XYs_ywgp62Nnc0C4b_sH0evzYi3UI_CLlfbxBAPGZ4w_v5JRzPNYKFCcNNz8aBMMQXRKSxbcwU9d69g71cLpvM56kRAqCPvwj8CTAOnt__puCTf-01QpP3l_Yij3ViDZ0Vo5-0m00]--></g></svg>