<?xml version="1.0" encoding="us-ascii" standalone="no"?><svg xmlns="http://www.w3.org/2000/svg" xmlns:xlink="http://www.w3.org/1999/xlink" contentStyleType="text/css" height="598px" preserveAspectRatio="none" style="width:854px;height:598px;background:#FFFFFF;" version="1.1" viewBox="0 0 854 598" width="854px" zoomAndPan="magnify"><defs/><g><!--cluster Conceptual WebConsole--><g id="cluster_Conceptual WebConsole"><rect fill="none" height="203" rx="2.5" ry="2.5" style="stroke:#181818;stroke-width:1.0;" width="209" x="159.5" y="290"/><text fill="#000000" font-family="sans-serif" font-size="14" font-weight="bold" lengthAdjust="spacing" textLength="193" x="167.5" y="304.9951">Conceptual WebConsole</text></g><!--entity ConsoleWeblet--><g id="elem_ConsoleWeblet"><rect fill="#F1F1F1" height="46.2969" rx="2.5" ry="2.5" style="stroke:#181818;stroke-width:0.5;" width="145" x="207" y="325"/><rect fill="#F1F1F1" height="10" style="stroke:#181818;stroke-width:0.5;" width="15" x="332" y="330"/><rect fill="#F1F1F1" height="2" style="stroke:#181818;stroke-width:0.5;" width="4" x="330" y="332"/><rect fill="#F1F1F1" height="2" style="stroke:#181818;stroke-width:0.5;" width="4" x="330" y="336"/><text fill="#000000" font-family="sans-serif" font-size="14" lengthAdjust="spacing" textLength="105" x="222" y="357.9951">ConsoleWeblet</text></g><!--entity WebConsole--><g id="elem_WebConsole"><rect fill="#F1F1F1" height="46.2969" rx="2.5" ry="2.5" style="stroke:#181818;stroke-width:0.5;" width="128" x="218.5" y="431"/><rect fill="#F1F1F1" height="10" style="stroke:#181818;stroke-width:0.5;" width="15" x="326.5" y="436"/><rect fill="#F1F1F1" height="2" style="stroke:#181818;stroke-width:0.5;" width="4" x="324.5" y="438"/><rect fill="#F1F1F1" height="2" style="stroke:#181818;stroke-width:0.5;" width="4" x="324.5" y="442"/><text fill="#000000" font-family="sans-serif" font-size="14" lengthAdjust="spacing" textLength="88" x="233.5" y="463.9951">WebConsole</text></g><!--entity mgr--><g id="elem_mgr"><ellipse cx="222.5" cy="136" fill="#F1F1F1" rx="8" ry="8" style="stroke:#181818;stroke-width:0.5;"/><text fill="#000000" font-family="sans-serif" font-size="14" lengthAdjust="spacing" textLength="61" x="192" y="165.9951">manager</text></g><!--entity FileSystemWatcher--><g id="elem_FileSystemWatcher"><rect fill="#F1F1F1" height="46.2969" rx="2.5" ry="2.5" style="stroke:#181818;stroke-width:0.5;" width="171" x="7" y="113"/><rect fill="#F1F1F1" height="10" style="stroke:#181818;stroke-width:0.5;" width="15" x="158" y="118"/><rect fill="#F1F1F1" height="2" style="stroke:#181818;stroke-width:0.5;" width="4" x="156" y="120"/><rect fill="#F1F1F1" height="2" style="stroke:#181818;stroke-width:0.5;" width="4" x="156" y="124"/><text fill="#000000" font-family="sans-serif" font-size="14" lengthAdjust="spacing" textLength="131" x="22" y="145.9951">FileSystemWatcher</text></g><!--entity YamlConfigurationStore--><g id="elem_YamlConfigurationStore"><rect fill="#F1F1F1" height="46.2969" rx="2.5" ry="2.5" style="stroke:#181818;stroke-width:0.5;" width="202" x="266.5" y="113"/><rect fill="#F1F1F1" height="10" style="stroke:#181818;stroke-width:0.5;" width="15" x="448.5" y="118"/><rect fill="#F1F1F1" height="2" style="stroke:#181818;stroke-width:0.5;" width="4" x="446.5" y="120"/><rect fill="#F1F1F1" height="2" style="stroke:#181818;stroke-width:0.5;" width="4" x="446.5" y="124"/><text fill="#000000" font-family="sans-serif" font-size="14" lengthAdjust="spacing" textLength="162" x="281.5" y="145.9951">YamlConfigurationStore</text></g><!--entity Controller--><g id="elem_Controller"><rect fill="#F1F1F1" height="46.2969" rx="2.5" ry="2.5" style="stroke:#181818;stroke-width:0.5;" width="107" x="154" y="219"/><rect fill="#F1F1F1" height="10" style="stroke:#181818;stroke-width:0.5;" width="15" x="241" y="224"/><rect fill="#F1F1F1" height="2" style="stroke:#181818;stroke-width:0.5;" width="4" x="239" y="226"/><rect fill="#F1F1F1" height="2" style="stroke:#181818;stroke-width:0.5;" width="4" x="239" y="230"/><text fill="#000000" font-family="sans-serif" font-size="14" lengthAdjust="spacing" textLength="67" x="169" y="251.9951">Controller</text></g><!--entity Manager--><g id="elem_Manager"><rect fill="#F1F1F1" height="46.2969" rx="2.5" ry="2.5" style="stroke:#181818;stroke-width:0.5;" width="100" x="199.5" y="7"/><rect fill="#F1F1F1" height="10" style="stroke:#181818;stroke-width:0.5;" width="15" x="279.5" y="12"/><rect fill="#F1F1F1" height="2" style="stroke:#181818;stroke-width:0.5;" width="4" x="277.5" y="14"/><rect fill="#F1F1F1" height="2" style="stroke:#181818;stroke-width:0.5;" width="4" x="277.5" y="18"/><text fill="#000000" font-family="sans-serif" font-size="14" lengthAdjust="spacing" textLength="60" x="214.5" y="39.9951">Manager</text></g><!--entity VmWatcher--><g id="elem_VmWatcher"><rect fill="#F1F1F1" height="46.2969" rx="2.5" ry="2.5" style="stroke:#181818;stroke-width:0.5;" width="119" x="45" y="7"/><rect fill="#F1F1F1" height="10" style="stroke:#181818;stroke-width:0.5;" width="15" x="144" y="12"/><rect fill="#F1F1F1" height="2" style="stroke:#181818;stroke-width:0.5;" width="4" x="142" y="14"/><rect fill="#F1F1F1" height="2" style="stroke:#181818;stroke-width:0.5;" width="4" x="142" y="18"/><text fill="#000000" font-family="sans-serif" font-size="14" lengthAdjust="spacing" textLength="79" x="60" y="39.9951">VmWatcher</text></g><!--entity Reconciler--><g id="elem_Reconciler"><rect fill="#F1F1F1" height="46.2969" rx="2.5" ry="2.5" style="stroke:#181818;stroke-width:0.5;" width="113" x="296" y="219"/><rect fill="#F1F1F1" height="10" style="stroke:#181818;stroke-width:0.5;" width="15" x="389" y="224"/><rect fill="#F1F1F1" height="2" style="stroke:#181818;stroke-width:0.5;" width="4" x="387" y="226"/><rect fill="#F1F1F1" height="2" style="stroke:#181818;stroke-width:0.5;" width="4" x="387" y="230"/><text fill="#000000" font-family="sans-serif" font-size="14" lengthAdjust="spacing" textLength="73" x="311" y="251.9951">Reconciler</text></g><!--entity hT--><g id="elem_hT"><ellipse cx="512.5" cy="136" fill="#F1F1F1" rx="8" ry="8" style="stroke:#181818;stroke-width:0.5;"/><text fill="#000000" font-family="sans-serif" font-size="14" lengthAdjust="spacing" textLength="88" x="468.5" y="165.9951">guiTransport</text></g><!--entity GuiSocketServer:8080--><g id="elem_GuiSocketServer:8080"><rect fill="#F1F1F1" height="46.2969" rx="2.5" ry="2.5" style="stroke:#181818;stroke-width:0.5;" width="196" x="387.5" y="7"/><rect fill="#F1F1F1" height="10" style="stroke:#181818;stroke-width:0.5;" width="15" x="563.5" y="12"/><rect fill="#F1F1F1" height="2" style="stroke:#181818;stroke-width:0.5;" width="4" x="561.5" y="14"/><rect fill="#F1F1F1" height="2" style="stroke:#181818;stroke-width:0.5;" width="4" x="561.5" y="18"/><text fill="#000000" font-family="sans-serif" font-size="14" lengthAdjust="spacing" textLength="156" x="402.5" y="39.9951">GuiSocketServer:8080</text></g><!--entity GuiHttpServer--><g id="elem_GuiHttpServer"><rect fill="#F1F1F1" height="46.2969" rx="2.5" ry="2.5" style="stroke:#181818;stroke-width:0.5;" width="136" x="444.5" y="219"/><rect fill="#F1F1F1" height="10" style="stroke:#181818;stroke-width:0.5;" width="15" x="560.5" y="224"/><rect fill="#F1F1F1" height="2" style="stroke:#181818;stroke-width:0.5;" width="4" x="558.5" y="226"/><rect fill="#F1F1F1" height="2" style="stroke:#181818;stroke-width:0.5;" width="4" x="558.5" y="230"/><text fill="#000000" font-family="sans-serif" font-size="14" lengthAdjust="spacing" textLength="96" x="459.5" y="251.9951">GuiHttpServer</text></g><!--entity HttpConnector--><g id="elem_HttpConnector"><rect fill="#F1F1F1" height="46.2969" rx="2.5" ry="2.5" style="stroke:#181818;stroke-width:0.5;" width="142" x="562.5" y="113"/><rect fill="#F1F1F1" height="10" style="stroke:#181818;stroke-width:0.5;" width="15" x="684.5" y="118"/><rect fill="#F1F1F1" height="2" style="stroke:#181818;stroke-width:0.5;" width="4" x="682.5" y="120"/><rect fill="#F1F1F1" height="2" style="stroke:#181818;stroke-width:0.5;" width="4" x="682.5" y="124"/><text fill="#000000" font-family="sans-serif" font-size="14" lengthAdjust="spacing" textLength="102" x="577.5" y="145.9951">HttpConnector</text></g><!--entity http--><g id="elem_http"><ellipse cx="572.5" cy="348" fill="#F1F1F1" rx="8" ry="8" style="stroke:#181818;stroke-width:0.5;"/><text fill="#000000" font-family="sans-serif" font-size="14" lengthAdjust="spacing" textLength="50" x="547.5" y="377.9951">guiHttp</text></g><g id="elem_GMN32"><path d="M618.5,10 L618.5,50.2656 A0,0 0 0 0 618.5,50.2656 L679.31,50.2656 L646.52,112.8 L687.31,50.2656 L770.5,50.2656 A0,0 0 0 0 770.5,50.2656 L770.5,20 L760.5,10 L618.5,10 A0,0 0 0 0 618.5,10 " fill="#FEFFDD" style="stroke:#181818;stroke-width:0.5;"/><path d="M760.5,10 L760.5,20 L770.5,20 L760.5,10 " fill="#FEFFDD" style="stroke:#181818;stroke-width:0.5;"/><text fill="#000000" font-family="sans-serif" font-size="13" lengthAdjust="spacing" textLength="131" x="624.5" y="27.0669">transport layer com-</text><text fill="#000000" font-family="sans-serif" font-size="13" lengthAdjust="spacing" textLength="106" x="624.5" y="42.1997">ponents omitted</text></g><!--entity PreferencesStore--><g id="elem_PreferencesStore"><rect fill="#F1F1F1" height="46.2969" rx="2.5" ry="2.5" style="stroke:#181818;stroke-width:0.5;" width="161" x="687" y="219"/><rect fill="#F1F1F1" height="10" style="stroke:#181818;stroke-width:0.5;" width="15" x="828" y="224"/><rect fill="#F1F1F1" height="2" style="stroke:#181818;stroke-width:0.5;" width="4" x="826" y="226"/><rect fill="#F1F1F1" height="2" style="stroke:#181818;stroke-width:0.5;" width="4" x="826" y="230"/><text fill="#000000" font-family="sans-serif" font-size="14" lengthAdjust="spacing" textLength="121" x="702" y="251.9951">PreferencesStore</text></g><!--entity OidcClient--><g id="elem_OidcClient"><rect fill="#F1F1F1" height="46.2969" rx="2.5" ry="2.5" style="stroke:#181818;stroke-width:0.5;" width="110" x="384.5" y="431"/><rect fill="#F1F1F1" height="10" style="stroke:#181818;stroke-width:0.5;" width="15" x="474.5" y="436"/><rect fill="#F1F1F1" height="2" style="stroke:#181818;stroke-width:0.5;" width="4" x="472.5" y="438"/><rect fill="#F1F1F1" height="2" style="stroke:#181818;stroke-width:0.5;" width="4" x="472.5" y="442"/><text fill="#000000" font-family="sans-serif" font-size="14" lengthAdjust="spacing" textLength="70" x="399.5" y="463.9951">OidcClient</text></g><!--entity LanguageSelector--><g id="elem_LanguageSelector"><rect fill="#F1F1F1" height="46.2969" rx="2.5" ry="2.5" style="stroke:#181818;stroke-width:0.5;" width="165" x="617" y="325"/><rect fill="#F1F1F1" height="10" style="stroke:#181818;stroke-width:0.5;" width="15" x="762" y="330"/><rect fill="#F1F1F1" height="2" style="stroke:#181818;stroke-width:0.5;" width="4" x="760" y="332"/><rect fill="#F1F1F1" height="2" style="stroke:#181818;stroke-width:0.5;" width="4" x="760" y="336"/><text fill="#000000" font-family="sans-serif" font-size="14" lengthAdjust="spacing" textLength="125" x="632" y="357.9951">LanguageSelector</text></g><!--entity InMemorySessionManager--><g id="elem_InMemorySessionManager"><rect fill="#F1F1F1" height="46.2969" rx="2.5" ry="2.5" style="stroke:#181818;stroke-width:0.5;" width="222" x="529.5" y="431"/><rect fill="#F1F1F1" height="10" style="stroke:#181818;stroke-width:0.5;" width="15" x="731.5" y="436"/><rect fill="#F1F1F1" height="2" style="stroke:#181818;stroke-width:0.5;" width="4" x="729.5" y="438"/><rect fill="#F1F1F1" height="2" style="stroke:#181818;stroke-width:0.5;" width="4" x="729.5" y="442"/><text fill="#000000" font-family="sans-serif" font-size="14" lengthAdjust="spacing" textLength="182" x="544.5" y="463.9951">InMemorySessionManager</text></g><!--entity console--><g id="elem_console"><ellipse cx="362.5" cy="560" fill="#F1F1F1" rx="8" ry="8" style="stroke:#181818;stroke-width:0.5;"/><text fill="#000000" font-family="sans-serif" font-size="14" lengthAdjust="spacing" textLength="55" x="335" y="589.9951">console</text></g><!--entity LoginConlet--><g id="elem_LoginConlet"><rect fill="#F1F1F1" height="46.2969" rx="2.5" ry="2.5" style="stroke:#181818;stroke-width:0.5;" width="122" x="196.5" y="537"/><rect fill="#F1F1F1" height="10" style="stroke:#181818;stroke-width:0.5;" width="15" x="298.5" y="542"/><rect fill="#F1F1F1" height="2" style="stroke:#181818;stroke-width:0.5;" width="4" x="296.5" y="544"/><rect fill="#F1F1F1" height="2" style="stroke:#181818;stroke-width:0.5;" width="4" x="296.5" y="548"/><text fill="#000000" font-family="sans-serif" font-size="14" lengthAdjust="spacing" textLength="82" x="211.5" y="569.9951">LoginConlet</text></g><g id="elem_GMN57"><path d="M407,540 L407,556 L371.59,560 L407,564 L407,580.2656 A0,0 0 0 0 407,580.2656 L512,580.2656 A0,0 0 0 0 512,580.2656 L512,550 L502,540 L407,540 A0,0 0 0 0 407,540 " fill="#FEFFDD" style="stroke:#181818;stroke-width:0.5;"/><path d="M502,540 L502,550 L512,550 L502,540 " fill="#FEFFDD" style="stroke:#181818;stroke-width:0.5;"/><text fill="#000000" font-family="sans-serif" font-size="13" lengthAdjust="spacing" textLength="82" x="413" y="557.0669">More conlets</text><text fill="#000000" font-family="sans-serif" font-size="13" lengthAdjust="spacing" textLength="84" x="413" y="572.1997">connect here</text></g><!--link FileSystemWatcher to mgr--><g id="link_FileSystemWatcher_mgr"><path d="M178.07,136 C189.87,136 201.67,136 213.47,136 " fill="none" id="FileSystemWatcher-mgr" style="stroke:#181818;stroke-width:1.0;stroke-dasharray:7.0,7.0;"/></g><!--link mgr to YamlConfigurationStore--><g id="link_mgr_YamlConfigurationStore"><path d="M231.56,136 C243.16,136 254.75,136 266.34,136 " fill="none" id="mgr-YamlConfigurationStore" style="stroke:#181818;stroke-width:1.0;stroke-dasharray:7.0,7.0;"/></g><!--link mgr to Controller--><g id="link_mgr_Controller"><path d="M221.32,145.16 C219.06,160.87 214.02,195.78 210.69,218.85 " fill="none" id="mgr-Controller" style="stroke:#181818;stroke-width:1.0;stroke-dasharray:7.0,7.0;"/></g><!--link Manager to mgr--><g id="link_Manager_mgr"><path d="M243.77,53.06 C237.77,76.19 228.65,111.32 224.58,126.98 " fill="none" id="Manager-mgr" style="stroke:#181818;stroke-width:1.0;stroke-dasharray:7.0,7.0;"/></g><!--link VmWatcher to mgr--><g id="link_VmWatcher_mgr"><path d="M129.52,53.06 C155.77,76.19 195.63,111.32 213.4,126.98 " fill="none" id="VmWatcher-mgr" style="stroke:#181818;stroke-width:1.0;stroke-dasharray:7.0,7.0;"/></g><!--link mgr to Reconciler--><g id="link_mgr_Reconciler"><path d="M231.58,144.82 C236.54,149.05 242.82,154.36 248.5,159 C273.79,179.66 303.02,202.63 324.04,218.99 " fill="none" id="mgr-Reconciler" style="stroke:#181818;stroke-width:1.0;stroke-dasharray:7.0,7.0;"/></g><!--link GuiSocketServer:8080 to hT--><g id="link_GuiSocketServer:8080_hT"><path d="M491.23,53.06 C497.23,76.19 506.35,111.32 510.42,126.98 " fill="none" id="GuiSocketServer:8080-hT" style="stroke:#181818;stroke-width:1.0;stroke-dasharray:7.0,7.0;"/></g><!--link hT to GuiHttpServer--><g id="link_hT_GuiHttpServer"><path d="M512.5,145.16 C512.5,160.87 512.5,195.78 512.5,218.85 " fill="none" id="hT-GuiHttpServer" style="stroke:#181818;stroke-width:1.0;stroke-dasharray:7.0,7.0;"/></g><!--link hT to HttpConnector--><!--link YamlConfigurationStore to hT--><!--link GuiHttpServer to http--><g id="link_GuiHttpServer_http"><path d="M525.22,265.06 C538.57,288.19 558.84,323.32 567.87,338.98 " fill="none" id="GuiHttpServer-http" style="stroke:#181818;stroke-width:1.0;stroke-dasharray:7.0,7.0;"/></g><!--link HttpConnector to http--><g id="link_HttpConnector_http"><path d="M627.7,159.28 C620.97,184.87 609.39,228.1 598.5,265 C590.47,292.22 580.04,324.2 575.19,338.89 " fill="none" id="HttpConnector-http" style="stroke:#181818;stroke-width:1.0;stroke-dasharray:7.0,7.0;"/></g><!--link PreferencesStore to http--><g id="link_PreferencesStore_http"><path d="M686.72,260.07 C645.48,269.08 603.17,278.89 599.5,282 C581.97,296.85 575.62,324.94 573.49,338.82 " fill="none" id="PreferencesStore-http" style="stroke:#181818;stroke-width:1.0;stroke-dasharray:7.0,7.0;"/></g><!--link http to OidcClient--><g id="link_http_OidcClient"><path d="M563.36,356.15 C543.93,371.34 497.86,407.37 467.71,430.94 " fill="none" id="http-OidcClient" style="stroke:#181818;stroke-width:1.0;stroke-dasharray:7.0,7.0;"/></g><!--link http to LanguageSelector--><g id="link_http_LanguageSelector"><path d="M581.93,348 C593.56,348 605.2,348 616.83,348 " fill="none" id="http-LanguageSelector" style="stroke:#181818;stroke-width:1.0;stroke-dasharray:7.0,7.0;"/></g><!--link http to InMemorySessionManager--><g id="link_http_InMemorySessionManager"><path d="M577.84,357.16 C588.11,372.87 610.93,407.78 626.02,430.85 " fill="none" id="http-InMemorySessionManager" style="stroke:#181818;stroke-width:1.0;stroke-dasharray:7.0,7.0;"/></g><!--link ConsoleWeblet to http--><g id="link_ConsoleWeblet_http"><path d="M352.18,348 C422.61,348 493.03,348 563.46,348 " fill="none" id="ConsoleWeblet-http" style="stroke:#181818;stroke-width:1.0;stroke-dasharray:7.0,7.0;"/></g><!--reverse link ConsoleWeblet to WebConsole--><g id="link_ConsoleWeblet_WebConsole"><path d="M280.52,384.44 C280.97,399.87 281.48,417.47 281.86,430.98 " fill="none" id="ConsoleWeblet-backto-WebConsole" style="stroke:#181818;stroke-width:1.0;"/><polygon fill="#181818" points="280.14,371.06,276.313,377.1718,280.4827,383.0551,284.3097,376.9433,280.14,371.06" style="stroke:#181818;stroke-width:1.0;"/></g><!--link Controller to ConsoleWeblet--><!--link console to WebConsole--><g id="link_console_WebConsole"><path d="M356.33,550.98 C344.29,535.32 317.26,500.19 299.47,477.06 " fill="none" id="console-WebConsole" style="stroke:#181818;stroke-width:1.0;stroke-dasharray:7.0,7.0;"/></g><!--link OidcClient to console--><g id="link_OidcClient_console"><path d="M423.17,477.06 C406.04,500.19 380.03,535.32 368.44,550.98 " fill="none" id="OidcClient-console" style="stroke:#181818;stroke-width:1.0;stroke-dasharray:7.0,7.0;"/></g><!--link LoginConlet to console--><g id="link_LoginConlet_console"><path d="M318.61,560 C330.16,560 341.7,560 353.24,560 " fill="none" id="LoginConlet-console" style="stroke:#181818;stroke-width:1.0;stroke-dasharray:7.0,7.0;"/></g><!--SRC=[TLDBYzim4BxxLmmvjGM7FIwvBlG16rhgfKlnvg3A4qT4rXXft19A_tj73zTnbXuifFdcySryut0sRbHU3J0gVLOzDdon21urAzTRhA22DszXCoWdeD-02Z3qlee7R2qUUGljUsEnkGJ6uLcnFg4_5DoR_XGTlgl1Ff0xcdxoYWsvXidZx2KE0h8dQvVGQHJpFbTTsRxT5X7RLzJajCdXcN0_cIUlN1Z9Ss9zUghaAqa-JAOXVKPkqFz4lxk_kxyxPBoZNovxV6GUCrwWr4vxCbs7xY0-qK6OEnaMvSh_wnJgLMoTsFmZ6lDaZdAfqhdmNBDOeDlYZXY1QGGwte8xu7aKODK5FMWQwXStaaF70MWmpDYb1hvuFA97fp4KwZBWpAlzR3hzO8t473A9Od-KLPdYxg3D1UVDAFWdjyU1_AN146GaiwhNEQfv_s0Zl3MEF2aBp_X3Ne4iRk1t1P0M9Ju5i1XPb0tBILxZx-eePmtjaab6zITrUhLpMVKhPTTfPgdqp4MaAlTgliGnBKLIWTMujaj4-qYzSUAvQa4laKdAP8vY5c07Uv4ZlYGil3YTvGNv4_0l]--></g></svg>