<?xml version="1.0" encoding="us-ascii" standalone="no"?><svg xmlns="http://www.w3.org/2000/svg" xmlns:xlink="http://www.w3.org/1999/xlink" contentStyleType="text/css" height="181px" preserveAspectRatio="none" style="width:628px;height:181px;background:#FFFFFF;" version="1.1" viewBox="0 0 628 181" width="628px" zoomAndPan="magnify"><defs/><g><!--entity Manager--><g id="elem_Manager"><rect fill="#FEFECE" height="46.2969" rx="2.5" ry="2.5" style="stroke:#A80036;stroke-width:1.25;" width="100" x="221.5" y="7"/><rect fill="#FEFECE" height="10" style="stroke:#A80036;stroke-width:1.25;" width="15" x="301.5" y="12"/><rect fill="#FEFECE" height="2" style="stroke:#A80036;stroke-width:1.25;" width="4" x="299.5" y="14"/><rect fill="#FEFECE" height="2" style="stroke:#A80036;stroke-width:1.25;" width="4" x="299.5" y="18"/><text fill="#000000" font-family="sans-serif" font-size="14" lengthAdjust="spacing" textLength="60" x="236.5" y="39.9951">Manager</text></g><!--entity Controller--><g id="elem_Controller"><rect fill="#FEFECE" height="46.2969" rx="2.5" ry="2.5" style="stroke:#A80036;stroke-width:1.25;" width="107" x="7" y="121.5"/><rect fill="#FEFECE" height="10" style="stroke:#A80036;stroke-width:1.25;" width="15" x="94" y="126.5"/><rect fill="#FEFECE" height="2" style="stroke:#A80036;stroke-width:1.25;" width="4" x="92" y="128.5"/><rect fill="#FEFECE" height="2" style="stroke:#A80036;stroke-width:1.25;" width="4" x="92" y="132.5"/><text fill="#000000" font-family="sans-serif" font-size="14" lengthAdjust="spacing" textLength="67" x="22" y="154.4951">Controller</text></g><!--entity WebGui--><g id="elem_WebGui"><rect fill="#FEFECE" height="46.2969" rx="2.5" ry="2.5" style="stroke:#A80036;stroke-width:1.25;" width="94" x="149.5" y="121.5"/><rect fill="#FEFECE" height="10" style="stroke:#A80036;stroke-width:1.25;" width="15" x="223.5" y="126.5"/><rect fill="#FEFECE" height="2" style="stroke:#A80036;stroke-width:1.25;" width="4" x="221.5" y="128.5"/><rect fill="#FEFECE" height="2" style="stroke:#A80036;stroke-width:1.25;" width="4" x="221.5" y="132.5"/><text fill="#000000" font-family="sans-serif" font-size="14" lengthAdjust="spacing" textLength="54" x="164.5" y="154.4951">WebGui</text></g><!--entity NioDispatcher--><g id="elem_NioDispatcher"><rect fill="#F1F1F1" height="62.5938" rx="2.5" ry="2.5" style="stroke:#181818;stroke-width:1.0;" width="137" x="279" y="113"/><rect fill="#F1F1F1" height="10" style="stroke:#181818;stroke-width:1.0;" width="15" x="396" y="118"/><rect fill="#F1F1F1" height="2" style="stroke:#181818;stroke-width:1.0;" width="4" x="394" y="120"/><rect fill="#F1F1F1" height="2" style="stroke:#181818;stroke-width:1.0;" width="4" x="394" y="124"/><text fill="#000000" font-family="sans-serif" font-size="14" font-style="italic" lengthAdjust="spacing" textLength="69" x="308" y="145.9951">&#171;internal&#187;</text><text fill="#000000" font-family="sans-serif" font-size="14" lengthAdjust="spacing" textLength="97" x="294" y="162.292">NioDispatcher</text></g><!--entity FileSystemWatcher--><g id="elem_FileSystemWatcher"><rect fill="#F1F1F1" height="62.5938" rx="2.5" ry="2.5" style="stroke:#181818;stroke-width:1.0;" width="171" x="451" y="113"/><rect fill="#F1F1F1" height="10" style="stroke:#181818;stroke-width:1.0;" width="15" x="602" y="118"/><rect fill="#F1F1F1" height="2" style="stroke:#181818;stroke-width:1.0;" width="4" x="600" y="120"/><rect fill="#F1F1F1" height="2" style="stroke:#181818;stroke-width:1.0;" width="4" x="600" y="124"/><text fill="#000000" font-family="sans-serif" font-size="14" font-style="italic" lengthAdjust="spacing" textLength="69" x="497" y="145.9951">&#171;internal&#187;</text><text fill="#000000" font-family="sans-serif" font-size="14" lengthAdjust="spacing" textLength="131" x="466" y="162.292">FileSystemWatcher</text></g><!--link Manager to Controller--><g id="link_Manager_Controller"><path d="M218.28,59.38 C186.26,76.45 145.65,98.1 113.65,115.16 " fill="none" id="Manager-Controller" style="stroke:#181818;stroke-width:1.0;"/><polygon fill="#181818" points="230.06,53.09,222.8837,52.3823,219.4703,58.7343,226.6466,59.4421,230.06,53.09" style="stroke:#181818;stroke-width:1.0;"/><polygon fill="#181818" points="101.84,121.46,111.6637,120.7567,106.2524,119.1082,107.9008,113.6969,101.84,121.46" style="stroke:#181818;stroke-width:1.0;"/><line style="stroke:#181818;stroke-width:1.0;" x1="106.2524" x2="113.31" y1="119.1082" y2="115.345"/></g><!--link Manager to WebGui--><g id="link_Manager_WebGui"><path d="M249.44,64.1 C239.73,78.65 228.37,95.7 218.66,110.27 " fill="none" id="Manager-WebGui" style="stroke:#181818;stroke-width:1.0;"/><polygon fill="#181818" points="256.68,53.23,250.0228,56.0015,250.0206,63.2126,256.6778,60.4411,256.68,53.23" style="stroke:#181818;stroke-width:1.0;"/><polygon fill="#181818" points="211.29,121.32,219.6121,116.0529,214.0648,117.1606,212.9571,111.6133,211.29,121.32" style="stroke:#181818;stroke-width:1.0;"/><line style="stroke:#181818;stroke-width:1.0;" x1="214.0648" x2="218.495" y1="117.1606" y2="110.505"/></g><!--link Manager to NioDispatcher--><g id="link_Manager_NioDispatcher"><path d="M294.02,64.33 C301.96,76.09 310.99,89.45 319.34,101.81 " fill="none" id="Manager-NioDispatcher" style="stroke:#181818;stroke-width:1.0;"/><polygon fill="#181818" points="286.52,53.23,286.5683,60.4409,293.2432,63.1698,293.1948,55.9588,286.52,53.23" style="stroke:#181818;stroke-width:1.0;"/><polygon fill="#181818" points="326.76,112.8,325.0368,103.1031,323.9612,108.6567,318.4076,107.5811,326.76,112.8" style="stroke:#181818;stroke-width:1.0;"/><line style="stroke:#181818;stroke-width:1.0;" x1="323.9612" x2="319.485" y1="108.6567" y2="102.03"/></g><!--link Manager to FileSystemWatcher--><g id="link_Manager_FileSystemWatcher"><path d="M333.68,57.4 C369.12,72.44 414,91.5 452.53,107.85 " fill="none" id="Manager-FileSystemWatcher" style="stroke:#181818;stroke-width:1.0;"/><polygon fill="#181818" points="321.66,52.29,325.6183,58.3176,332.7047,56.982,328.7463,50.9544,321.66,52.29" style="stroke:#181818;stroke-width:1.0;"/><polygon fill="#181818" points="464.53,112.95,457.8063,105.7533,459.9269,110.9977,454.6826,113.1183,464.53,112.95" style="stroke:#181818;stroke-width:1.0;"/><line style="stroke:#181818;stroke-width:1.0;" x1="459.9269" x2="452.565" y1="110.9977" y2="107.865"/></g><!--SRC=[ZOr12u9048Nl_eg1Re6XHT51X3BrL9U23j5XqyKMrndPNGyH_VSoYhIaubs6UUzzJ-S2IwPO0GaL9I570sSB0EOioMD55QO1ILBGYy8e3CAxHIhbwl6UJHrdD7czDqUHvCYr1dSm73z9sOlaUG8DLyYaxz-eRgqtQZlYJcjrBBHYDyR50WjsIuOiushVEA5lspxi0aAZICfESyiFSILgOoLe8NJ9J7AixURAP-rxE1AIhq_Qy6Bx7-v7uGe0]--></g></svg>