<?xml version="1.0" encoding="us-ascii" standalone="no"?><svg xmlns="http://www.w3.org/2000/svg" xmlns:xlink="http://www.w3.org/1999/xlink" contentStyleType="text/css" height="1528px" preserveAspectRatio="none" style="width:929px;height:1528px;background:#FFFFFF;" version="1.1" viewBox="0 0 929 1528" width="929px" zoomAndPan="magnify"><defs/><g><!--cluster StartingProcess--><g id="cluster_StartingProcess"><path d="M202.5,200 L754.5,200 A12.5,12.5 0 0 1 767,212.5 L767,221.2969 L190,221.2969 L190,212.5 A12.5,12.5 0 0 1 202.5,200 " fill="#F1F1F1" style="stroke:#F1F1F1;stroke-width:1.0;"/><rect fill="none" height="543" rx="12.5" ry="12.5" style="stroke:#181818;stroke-width:0.5;" width="577" x="190" y="200"/><line style="stroke:#181818;stroke-width:0.5;" x1="190" x2="767" y1="221.2969" y2="221.2969"/><text fill="#000000" font-family="sans-serif" font-size="14" lengthAdjust="spacing" textLength="140" x="408.5" y="217.9951">Starting (Processes)</text></g><!--cluster Terminating--><g id="cluster_Terminating"><path d="M19.5,967 L522.5,967 A12.5,12.5 0 0 1 535,979.5 L535,988.2969 L7,988.2969 L7,979.5 A12.5,12.5 0 0 1 19.5,967 " fill="#F1F1F1" style="stroke:#F1F1F1;stroke-width:1.0;"/><rect fill="none" height="456" rx="12.5" ry="12.5" style="stroke:#181818;stroke-width:0.5;" width="528" x="7" y="967"/><line style="stroke:#181818;stroke-width:0.5;" x1="7" x2="535" y1="988.2969" y2="988.2969"/><text fill="#000000" font-family="sans-serif" font-size="14" lengthAdjust="spacing" textLength="82" x="230" y="984.9951">Terminating</text></g><g id="elem_which"><polygon fill="#F1F1F1" points="475,243,487,255,475,267,463,255,475,243" style="stroke:#181818;stroke-width:0.5;"/></g><g id="StartingProcess.swtpm"><rect fill="#F1F1F1" height="50.2656" rx="12.5" ry="12.5" style="stroke:#181818;stroke-width:0.5;" width="130" x="214" y="344"/><line style="stroke:#181818;stroke-width:0.5;" x1="214" x2="344" y1="370.2969" y2="370.2969"/><text fill="#000000" font-family="sans-serif" font-size="14" lengthAdjust="spacing" textLength="82" x="238" y="361.9951">Start swtpm</text><text fill="#000000" font-family="sans-serif" font-size="12" lengthAdjust="spacing" textLength="110" x="219" y="386.4355">entry/start swtpm</text></g><g id="StartingProcess.qemu"><rect fill="#F1F1F1" height="50.2656" rx="12.5" ry="12.5" style="stroke:#181818;stroke-width:0.5;" width="125" x="609.5" y="344"/><line style="stroke:#181818;stroke-width:0.5;" x1="609.5" x2="734.5" y1="370.2969" y2="370.2969"/><text fill="#000000" font-family="sans-serif" font-size="14" lengthAdjust="spacing" textLength="76" x="634" y="361.9951">Start qemu</text><text fill="#000000" font-family="sans-serif" font-size="12" lengthAdjust="spacing" textLength="105" x="614.5" y="386.4355">entry/start qemu</text></g><g id="StartingProcess.monitor"><rect fill="#F1F1F1" height="50.2656" rx="12.5" ry="12.5" style="stroke:#181818;stroke-width:0.5;" width="227" x="382.5" y="471"/><line style="stroke:#181818;stroke-width:0.5;" x1="382.5" x2="609.5" y1="497.2969" y2="497.2969"/><text fill="#000000" font-family="sans-serif" font-size="14" lengthAdjust="spacing" textLength="95" x="448.5" y="488.9951">Open monitor</text><text fill="#000000" font-family="sans-serif" font-size="12" lengthAdjust="spacing" textLength="207" x="387.5" y="513.4355">entry/fire OpenSocketConnection</text></g><g id="StartingProcess.configure"><rect fill="#F1F1F1" height="50.2656" rx="12.5" ry="12.5" style="stroke:#181818;stroke-width:0.5;" width="255" x="449.5" y="598"/><line style="stroke:#181818;stroke-width:0.5;" x1="449.5" x2="704.5" y1="624.2969" y2="624.2969"/><text fill="#000000" font-family="sans-serif" font-size="14" lengthAdjust="spacing" textLength="67" x="543.5" y="615.9951">Configure</text><text fill="#000000" font-family="sans-serif" font-size="12" lengthAdjust="spacing" textLength="235" x="454.5" y="640.4355">entry/fire RunnerConfigurationUpdate</text></g><text fill="#000000" font-family="sans-serif" font-size="14" lengthAdjust="spacing" textLength="58" x="336.5" y="761.9951">success</text><ellipse cx="365.5" cy="743" fill="#F1F1F1" rx="6" ry="6" style="stroke:#181818;stroke-width:1.5;"/><line style="stroke:#181818;stroke-width:1.5;" x1="369.8891" x2="362.1109" y1="747.3891" y2="739.6109"/><line style="stroke:#181818;stroke-width:1.5;" x1="369.8891" x2="362.1109" y1="739.6109" y2="747.3891"/><text fill="#000000" font-family="sans-serif" font-size="14" lengthAdjust="spacing" textLength="33" x="237.5" y="761.9951">error</text><ellipse cx="254" cy="743" fill="#F1F1F1" rx="6" ry="6" style="stroke:#181818;stroke-width:1.5;"/><line style="stroke:#181818;stroke-width:1.5;" x1="258.3891" x2="250.6109" y1="747.3891" y2="739.6109"/><line style="stroke:#181818;stroke-width:1.5;" x1="258.3891" x2="250.6109" y1="739.6109" y2="747.3891"/><text fill="#000000" font-family="sans-serif" font-size="14" lengthAdjust="spacing" textLength="66" x="344.5" y="945.6982">terminate</text><ellipse cx="377.5" cy="967" fill="#F1F1F1" rx="6" ry="6" style="stroke:#181818;stroke-width:1.5;"/><g id="elem_qemuRunning"><polygon fill="#F1F1F1" points="378,1051,390,1063,378,1075,366,1063,378,1051" style="stroke:#181818;stroke-width:0.5;"/></g><text fill="#000000" font-family="sans-serif" font-size="14" lengthAdjust="spacing" textLength="75" x="296.5" y="1441.9951">terminated</text><ellipse cx="334" cy="1423" fill="#F1F1F1" rx="6" ry="6" style="stroke:#181818;stroke-width:1.5;"/><line style="stroke:#181818;stroke-width:1.5;" x1="338.3891" x2="330.6109" y1="1427.3891" y2="1419.6109"/><line style="stroke:#181818;stroke-width:1.5;" x1="338.3891" x2="330.6109" y1="1419.6109" y2="1427.3891"/><g id="Terminating.qemuPowerdown"><rect fill="#F1F1F1" height="50.2656" rx="12.5" ry="12.5" style="stroke:#181818;stroke-width:0.5;" width="387" x="23.5" y="1152"/><line style="stroke:#181818;stroke-width:0.5;" x1="23.5" x2="410.5" y1="1178.2969" y2="1178.2969"/><text fill="#000000" font-family="sans-serif" font-size="14" lengthAdjust="spacing" textLength="125" x="154.5" y="1169.9951">Powerdown qemu</text><text fill="#000000" font-family="sans-serif" font-size="12" lengthAdjust="spacing" textLength="367" x="28.5" y="1194.4355">entry/suspend Stop, send powerdown to qemu, start timer</text></g><g id="Terminating.terminateProcesses"><rect fill="#F1F1F1" height="50" rx="12.5" ry="12.5" style="stroke:#181818;stroke-width:0.5;" width="198" x="235" y="1294"/><line style="stroke:#181818;stroke-width:0.5;" x1="235" x2="433" y1="1320.2969" y2="1320.2969"/><text fill="#000000" font-family="sans-serif" font-size="14" lengthAdjust="spacing" textLength="178" x="245" y="1311.9951">Await process termination</text></g><ellipse cx="475" cy="16" fill="#181818" rx="10" ry="10" style="stroke:none;stroke-width:1.0;"/><g id="Initializing"><rect fill="#F1F1F1" height="50" rx="12.5" ry="12.5" style="stroke:#181818;stroke-width:0.5;" width="86" x="432" y="87"/><line style="stroke:#181818;stroke-width:0.5;" x1="432" x2="518" y1="113.2969" y2="113.2969"/><text fill="#000000" font-family="sans-serif" font-size="14" lengthAdjust="spacing" textLength="66" x="442" y="104.9951">Initializing</text></g><g id="Running"><rect fill="#F1F1F1" height="50" rx="12.5" ry="12.5" style="stroke:#181818;stroke-width:0.5;" width="78" x="327" y="822"/><line style="stroke:#181818;stroke-width:0.5;" x1="327" x2="405" y1="848.2969" y2="848.2969"/><text fill="#000000" font-family="sans-serif" font-size="14" lengthAdjust="spacing" textLength="58" x="337" y="839.9951">Running</text></g><ellipse cx="334" cy="1512" fill="none" rx="10" ry="10" style="stroke:#181818;stroke-width:1.0;"/><ellipse cx="334.5" cy="1512.5" fill="#181818" rx="6" ry="6" style="stroke:none;stroke-width:1.0;"/><!--link *start* to Initializing--><g id="link_*start*_Initializing"><path d="M475,26.01 C475,38.7 475,62.41 475,81.57 " fill="none" id="*start*-to-Initializing" style="stroke:#181818;stroke-width:1.0;"/><polygon fill="#181818" points="475,86.84,479,77.84,475,81.84,471,77.84,475,86.84" style="stroke:#181818;stroke-width:1.0;"/></g><!--link Initializing to Initializing--><g id="link_Initializing_Initializing"><path d="M518.31,107 C537,106.59 553,108.26 553,112 C553,115.39 539.86,117.08 523.49,117.06 " fill="none" id="Initializing-to-Initializing" style="stroke:#181818;stroke-width:1.0;"/><polygon fill="#181818" points="518.31,117,527.2637,121.1026,523.3097,117.0571,527.3551,113.1031,518.31,117" style="stroke:#181818;stroke-width:1.0;"/><text fill="#000000" font-family="sans-serif" font-size="13" lengthAdjust="spacing" textLength="230" x="559" y="116.5669">InitialConfiguration/configure Runner</text></g><!--link Initializing to Initializing--><g id="link_Initializing_Initializing"><path d="M518.19,105.85 C608.17,98.97 795,101.02 795,112 C795,122.78 615.04,124.95 523.3,118.52 " fill="none" id="Initializing-to-Initializing-1" style="stroke:#181818;stroke-width:1.0;"/><polygon fill="#181818" points="518.19,118.15,526.868,122.8076,523.1762,118.5215,527.4623,114.8297,518.19,118.15" style="stroke:#181818;stroke-width:1.0;"/><text fill="#000000" font-family="sans-serif" font-size="13" lengthAdjust="spacing" textLength="115" x="801" y="116.5669">Start/start Runner</text></g><!--link which to swtpm--><g id="link_which_swtpm"><path d="M467.56,260.25 C444.66,273.34 373.93,313.75 325.91,341.19 " fill="none" id="which-to-swtpm" style="stroke:#181818;stroke-width:1.0;"/><polygon fill="#181818" points="321.34,343.81,331.1366,342.7969,325.6759,341.3201,327.1527,335.8594,321.34,343.81" style="stroke:#181818;stroke-width:1.0;"/><text fill="#000000" font-family="sans-serif" font-size="13" lengthAdjust="spacing" textLength="79" x="401" y="310.0669">[use swtpm]</text></g><!--link which to qemu--><g id="link_which_qemu"><path d="M481.45,260.64 C484.33,262.65 487.79,265.01 491,267 C534.01,293.7 584.41,321.56 621.09,341.24 " fill="none" id="which-to-qemu" style="stroke:#181818;stroke-width:1.0;"/><polygon fill="#181818" points="625.94,343.84,619.8851,336.0722,621.5294,341.4848,616.1168,343.1292,625.94,343.84" style="stroke:#181818;stroke-width:1.0;"/><text fill="#000000" font-family="sans-serif" font-size="13" lengthAdjust="spacing" textLength="36" x="570" y="310.0669">[else]</text></g><!--link swtpm to qemu--><g id="link_swtpm_qemu"><path d="M344.34,369 C416.27,369 531.38,369 604.26,369 " fill="none" id="swtpm-to-qemu" style="stroke:#181818;stroke-width:1.0;"/><polygon fill="#181818" points="609.43,369,600.43,365,604.43,369,600.43,373,609.43,369" style="stroke:#181818;stroke-width:1.0;"/><text fill="#000000" font-family="sans-serif" font-size="13" lengthAdjust="spacing" textLength="229" x="362.25" y="362.0669">FileChanged[swtpm socket created]</text></g><!--link qemu to monitor--><g id="link_qemu_monitor"><path d="M609.33,380.2 C579.89,387.86 546.24,401.13 523,424 C511.7,435.12 505.06,451.46 501.19,465.66 " fill="none" id="qemu-to-monitor" style="stroke:#181818;stroke-width:1.0;"/><polygon fill="#181818" points="499.89,470.78,506.0017,463.0568,501.1329,465.9369,498.2528,461.0682,499.89,470.78" style="stroke:#181818;stroke-width:1.0;"/><text fill="#000000" font-family="sans-serif" font-size="13" lengthAdjust="spacing" textLength="237" x="524" y="437.0669">FileChanged[monitor socket created]</text></g><!--link monitor to configure--><g id="link_monitor_configure"><path d="M511.62,521.1 C525.06,541.85 544.49,571.82 558.67,593.71 " fill="none" id="monitor-to-configure" style="stroke:#181818;stroke-width:1.0;"/><polygon fill="#181818" points="561.43,597.97,559.8812,588.2437,558.7061,593.7771,553.1726,592.602,561.43,597.97" style="stroke:#181818;stroke-width:1.0;"/><text fill="#000000" font-family="sans-serif" font-size="13" lengthAdjust="spacing" textLength="186" x="542" y="564.0669">ClientConnected[for monitor]</text></g><!--link monitor to error--><g id="link_monitor_error"><path d="M382.29,520.18 C338.6,535.01 292.62,559.1 265,598 C235.31,639.81 246.04,706.73 251.55,731.95 " fill="none" id="monitor-to-error" style="stroke:#181818;stroke-width:1.0;"/><polygon fill="#181818" points="252.7,736.93,254.5925,727.2647,251.5851,732.0559,246.7939,729.0485,252.7,736.93" style="stroke:#181818;stroke-width:1.0;"/><text fill="#000000" font-family="sans-serif" font-size="13" lengthAdjust="spacing" textLength="165" x="266" y="627.5669">ConnectError[for monitor]</text></g><!--link configure to success--><g id="link_configure_success"><path d="M503.63,648.05 C484.95,653.71 464.83,659.43 446,664 C412.2,672.2 391.91,651.82 369,678 C355.94,692.93 359.62,718.11 363.05,732.02 " fill="none" id="configure-to-success" style="stroke:#181818;stroke-width:1.0;"/><polygon fill="#181818" points="364.37,736.92,365.8927,727.1896,363.0701,732.0919,358.1678,729.2694,364.37,736.92" style="stroke:#181818;stroke-width:1.0;"/><text fill="#000000" font-family="sans-serif" font-size="13" lengthAdjust="spacing" textLength="391" x="370" y="691.0669">RunnerConfigurationUpdate (last handler)/fire cont command</text></g><!--link Initializing to which--><g id="link_Initializing_which"><path d="M475,137.24 C475,165.93 475,212.94 475,237.65 " fill="none" id="Initializing-to-which" style="stroke:#181818;stroke-width:1.0;"/><polygon fill="#181818" points="475,242.85,479,233.85,475,237.85,471,233.85,475,242.85" style="stroke:#181818;stroke-width:1.0;"/><text fill="#000000" font-family="sans-serif" font-size="13" lengthAdjust="spacing" textLength="48" x="476" y="180.0669">Started</text></g><!--link success to Running--><g id="link_success_Running"><path d="M366,749.2 C366,761.43 366,792.77 366,816.51 " fill="none" id="success-to-Running" style="stroke:#181818;stroke-width:1.0;"/><polygon fill="#181818" points="366,821.75,370,812.75,366,816.75,362,812.75,366,821.75" style="stroke:#181818;stroke-width:1.0;"/></g><!--link terminate to qemuRunning--><g id="link_terminate_qemuRunning"><path d="M378,973.05 C378,986.55 378,1023.91 378,1045.67 " fill="none" id="terminate-to-qemuRunning" style="stroke:#181818;stroke-width:1.0;"/><polygon fill="#181818" points="378,1050.85,382,1041.85,378,1045.85,374,1041.85,378,1050.85" style="stroke:#181818;stroke-width:1.0;"/></g><!--link qemuRunning to qemuPowerdown--><g id="link_qemuRunning_qemuPowerdown"><path d="M371.49,1068.53 C352.3,1081.88 294.88,1121.82 255.72,1149.07 " fill="none" id="qemuRunning-to-qemuPowerdown" style="stroke:#181818;stroke-width:1.0;"/><polygon fill="#181818" points="251.51,1151.99,261.1852,1150.1489,255.6189,1149.141,256.6268,1143.5746,251.51,1151.99" style="stroke:#181818;stroke-width:1.0;"/><text fill="#000000" font-family="sans-serif" font-size="13" lengthAdjust="spacing" textLength="137" x="317" y="1118.0669">[qemu monitor open]</text></g><!--link qemuRunning to terminateProcesses--><g id="link_qemuRunning_terminateProcesses"><path d="M387.85,1065.36 C406.41,1068.52 446.19,1078.22 463,1105 C500.58,1164.85 502.15,1205.17 463,1264 C455.45,1275.34 445.02,1284.3 433.32,1291.39 " fill="none" id="qemuRunning-to-terminateProcesses" style="stroke:#181818;stroke-width:1.0;"/><polygon fill="#181818" points="428.96,1293.91,438.7541,1292.8726,433.2897,1291.4093,434.753,1285.945,428.96,1293.91" style="stroke:#181818;stroke-width:1.0;"/><text fill="#000000" font-family="sans-serif" font-size="13" lengthAdjust="spacing" textLength="36" x="492" y="1181.5669">[else]</text></g><!--link qemuPowerdown to terminateProcesses--><g id="link_qemuPowerdown_terminateProcesses"><path d="M120.71,1202.02 C82.36,1216.28 51.97,1236.92 74,1264 C93.81,1288.35 166.11,1302.07 229.45,1309.59 " fill="none" id="qemuPowerdown-to-terminateProcesses" style="stroke:#181818;stroke-width:1.0;"/><polygon fill="#181818" points="234.77,1310.2,226.2998,1305.1744,229.8043,1309.615,225.3638,1313.1195,234.77,1310.2" style="stroke:#181818;stroke-width:1.0;"/><text fill="#000000" font-family="sans-serif" font-size="13" lengthAdjust="spacing" textLength="215" x="75" y="1245.0669">Closed[for monitor]/resume Stop,</text><text fill="#000000" font-family="sans-serif" font-size="13" lengthAdjust="spacing" textLength="81" x="142" y="1260.1997">cancel Timer</text></g><!--link qemuPowerdown to terminateProcesses--><g id="link_qemuPowerdown_terminateProcesses"><path d="M260.47,1202.04 C272.76,1210.34 285.4,1220.49 295,1232 C308.92,1248.68 318.88,1271.14 325.25,1288.93 " fill="none" id="qemuPowerdown-to-terminateProcesses-1" style="stroke:#181818;stroke-width:1.0;"/><polygon fill="#181818" points="326.95,1293.81,327.7655,1283.995,325.3046,1289.0885,320.2111,1286.6276,326.95,1293.81" style="stroke:#181818;stroke-width:1.0;"/><text fill="#000000" font-family="sans-serif" font-size="13" lengthAdjust="spacing" textLength="139" x="315" y="1252.5669">Timeout/resume Stop</text></g><!--link terminateProcesses to terminated--><g id="link_terminateProcesses_terminated"><path d="M334,1344.17 C334,1365.58 334,1395.8 334,1411.54 " fill="none" id="terminateProcesses-to-terminated" style="stroke:#181818;stroke-width:1.0;"/><polygon fill="#181818" points="334,1416.65,338,1407.65,334,1411.65,330,1407.65,334,1416.65" style="stroke:#181818;stroke-width:1.0;"/></g><!--link Running to terminate--><g id="link_Running_terminate"><path d="M347.82,872.24 C339.81,885.93 333.36,903.37 339,919 C344.67,934.71 358.12,948.88 367.64,957.46 " fill="none" id="Running-to-terminate" style="stroke:#181818;stroke-width:1.0;"/><polygon fill="#181818" points="371.44,960.78,367.2816,951.8521,367.67,957.4956,362.0265,957.884,371.44,960.78" style="stroke:#181818;stroke-width:1.0;"/><text fill="#000000" font-family="sans-serif" font-size="13" lengthAdjust="spacing" textLength="30" x="340" y="915.0669">Stop</text></g><!--link Running to terminate--><g id="link_Running_terminate"><path d="M370.64,872.11 C372.27,881.42 373.95,892.17 375,902 C377,920.8 377.67,942.85 377.89,955.54 " fill="none" id="Running-to-terminate-1" style="stroke:#181818;stroke-width:1.0;"/><polygon fill="#181818" points="377.96,960.67,381.831,951.6138,377.8886,955.6705,373.8318,951.7281,377.96,960.67" style="stroke:#181818;stroke-width:1.0;"/><text fill="#000000" font-family="sans-serif" font-size="13" lengthAdjust="spacing" textLength="190" x="377" y="915.0669">ProcessExited[process qemu]</text></g><!--link error to terminate--><g id="link_error_terminate"><path d="M255.35,749.26 C261.24,771.43 286.16,858.9 328,919 C339.06,934.88 356.21,949.53 367.28,958.12 " fill="none" id="error-to-terminate" style="stroke:#181818;stroke-width:1.0;"/><polygon fill="#181818" points="371.33,961.21,366.599,952.5718,367.3542,958.1781,361.7479,958.9332,371.33,961.21" style="stroke:#181818;stroke-width:1.0;"/></g><!--link StartingProcess to terminate--><g id="link_StartingProcess_terminate"><path d="M767.1665,287.0597 C767.2371,287.2157 767.3078,287.3721 767.3785,287.529 C767.6614,288.1564 767.9449,288.7905 768.2288,289.4313 C768.7966,290.7127 769.3661,292.0205 769.935,293.3525 C779.0375,314.665 788,342.2 788,368 C788,368 788,368 788,848 C788,933.56 454.09,960.79 388.94,965.29 " fill="none" id="StartingProcess-to-terminate" style="stroke:#181818;stroke-width:1.0;"/><polygon fill="#181818" points="383.8,965.64,393.0436,969.0395,388.7892,965.3112,392.5175,961.0568,383.8,965.64" style="stroke:#181818;stroke-width:1.0;"/><text fill="#000000" font-family="sans-serif" font-size="13" lengthAdjust="spacing" textLength="89" x="789" y="627.5669">ProcessExited</text></g><!--link terminated to *end*--><g id="link_terminated_*end*"><path d="M334,1429.18 C334,1442.29 334,1477.12 334,1496.85 " fill="none" id="terminated-to-*end*" style="stroke:#181818;stroke-width:1.0;"/><polygon fill="#181818" points="334,1501.99,338,1492.99,334,1496.99,330,1492.99,334,1501.99" style="stroke:#181818;stroke-width:1.0;"/></g><!--SRC=[ZLLDRzim3BtdLn0vjKMBt8qWm11qm4uDrkwK-M3OJ2BCbbn9HhOL- -yZzHNBTRhbO4ZYUqyYzQZixqfuUDZ05ocig5hnMyZZ8fl195h4sLR9WpWEkh92oLKTPWXV1obH_qlasLRQhWn_4sC1DBS8InTasirEgngDGNExXCf038HbU6CI_ppnV1Br2TRh-gH4ZPlDEEP5mPnjtpajDvf1l68tE00FilXJZn8wHNaexH1Xd85YMT0XKbd663FKxlJhDVuKTgU4jFbPKMkbvy8XMvydtvjBee3zOD2Fooc2io00jWRBL2tFGcdrht07ushm41BrisXnUwha4Pkz3nbL_q0BjKOwR9DKFNmiUgaWZznnGiaWrush4sM8qY4UrG-2VCQtyUpmL7A9DTimGxlzqWKKi6q5qGEODZqG943B2N7Zhu0u7lt8inc2_uxs69tFkphhaczzGtbDIFuUlIMAwoouQIjZWGhMjAXl_HuaGjLINKUh2_Z3vShRZgIT5KB3OUEwBFYFexoVw_dOV2-eEo4hrtvlOrFQ440s9gSvOro-vg1ufGsJIdFT_ikTEgDkr5dcpPYMC_2dSoKizE55YFfKDyTB-wMN97hgaaziarIBwDYOIWIa0nHxP-Ze5qLMBETfx_SlybxCTMFx38Oa6xeqrT-3uM6VQcAL8zs3Rp8hEjHZEsQArmv1tQ3Cf0bM6itGeT_rkwmhMMCBBnVz_rDcWXhiM6rIyGJEDQA5P-jN1A4hmI3vI8wYhA8R-C1KQV-UPep5k_-IZmGNxYKQUPV1-xloBm00]--></g></svg>