<?xml version="1.0" encoding="us-ascii" standalone="no"?><svg xmlns="http://www.w3.org/2000/svg" xmlns:xlink="http://www.w3.org/1999/xlink" contentStyleType="text/css" height="1528px" preserveAspectRatio="none" style="width:746px;height:1528px;background:#FFFFFF;" version="1.1" viewBox="0 0 746 1528" width="746px" zoomAndPan="magnify"><defs/><g><!--cluster StartingProcess--><g id="cluster_StartingProcess"><path d="M19.5,200 L571.5,200 A12.5,12.5 0 0 1 584,212.5 L584,221.2969 L7,221.2969 L7,212.5 A12.5,12.5 0 0 1 19.5,200 " fill="#F1F1F1" style="stroke:#F1F1F1;stroke-width:1.0;"/><rect fill="none" height="543" rx="12.5" ry="12.5" style="stroke:#181818;stroke-width:0.5;" width="577" x="7" y="200"/><line style="stroke:#181818;stroke-width:0.5;" x1="7" x2="584" y1="221.2969" y2="221.2969"/><text fill="#000000" font-family="sans-serif" font-size="14" lengthAdjust="spacing" textLength="140" x="225.5" y="217.9951">Starting (Processes)</text></g><!--cluster Terminating--><g id="cluster_Terminating"><path d="M46.5,967 L549.5,967 A12.5,12.5 0 0 1 562,979.5 L562,988.2969 L34,988.2969 L34,979.5 A12.5,12.5 0 0 1 46.5,967 " fill="#F1F1F1" style="stroke:#F1F1F1;stroke-width:1.0;"/><rect fill="none" height="456" rx="12.5" ry="12.5" style="stroke:#181818;stroke-width:0.5;" width="528" x="34" y="967"/><line style="stroke:#181818;stroke-width:0.5;" x1="34" x2="562" y1="988.2969" y2="988.2969"/><text fill="#000000" font-family="sans-serif" font-size="14" lengthAdjust="spacing" textLength="82" x="257" y="984.9951">Terminating</text></g><g id="elem_which"><polygon fill="#F1F1F1" points="292,243,304,255,292,267,280,255,292,243" style="stroke:#181818;stroke-width:0.5;"/></g><g id="StartingProcess.swtpm"><rect fill="#F1F1F1" height="50.2656" rx="12.5" ry="12.5" style="stroke:#181818;stroke-width:0.5;" width="130" x="31" y="344"/><line style="stroke:#181818;stroke-width:0.5;" x1="31" x2="161" y1="370.2969" y2="370.2969"/><text fill="#000000" font-family="sans-serif" font-size="14" lengthAdjust="spacing" textLength="82" x="55" y="361.9951">Start swtpm</text><text fill="#000000" font-family="sans-serif" font-size="12" lengthAdjust="spacing" textLength="110" x="36" y="386.4355">entry/start swtpm</text></g><g id="StartingProcess.qemu"><rect fill="#F1F1F1" height="50.2656" rx="12.5" ry="12.5" style="stroke:#181818;stroke-width:0.5;" width="125" x="426.5" y="344"/><line style="stroke:#181818;stroke-width:0.5;" x1="426.5" x2="551.5" y1="370.2969" y2="370.2969"/><text fill="#000000" font-family="sans-serif" font-size="14" lengthAdjust="spacing" textLength="76" x="451" y="361.9951">Start qemu</text><text fill="#000000" font-family="sans-serif" font-size="12" lengthAdjust="spacing" textLength="105" x="431.5" y="386.4355">entry/start qemu</text></g><g id="StartingProcess.monitor"><rect fill="#F1F1F1" height="50.2656" rx="12.5" ry="12.5" style="stroke:#181818;stroke-width:0.5;" width="227" x="199.5" y="471"/><line style="stroke:#181818;stroke-width:0.5;" x1="199.5" x2="426.5" y1="497.2969" y2="497.2969"/><text fill="#000000" font-family="sans-serif" font-size="14" lengthAdjust="spacing" textLength="95" x="265.5" y="488.9951">Open monitor</text><text fill="#000000" font-family="sans-serif" font-size="12" lengthAdjust="spacing" textLength="207" x="204.5" y="513.4355">entry/fire OpenSocketConnection</text></g><g id="StartingProcess.configure"><rect fill="#F1F1F1" height="50.2656" rx="12.5" ry="12.5" style="stroke:#181818;stroke-width:0.5;" width="176" x="306" y="598"/><line style="stroke:#181818;stroke-width:0.5;" x1="306" x2="482" y1="624.2969" y2="624.2969"/><text fill="#000000" font-family="sans-serif" font-size="14" lengthAdjust="spacing" textLength="67" x="360.5" y="615.9951">Configure</text><text fill="#000000" font-family="sans-serif" font-size="12" lengthAdjust="spacing" textLength="156" x="311" y="640.4355">entry/fire ConfigureQemu</text></g><text fill="#000000" font-family="sans-serif" font-size="14" lengthAdjust="spacing" textLength="58" x="230.5" y="761.9951">success</text><ellipse cx="259.5" cy="743" fill="#F1F1F1" rx="6" ry="6" style="stroke:#181818;stroke-width:1.5;"/><line style="stroke:#181818;stroke-width:1.5;" x1="263.8891" x2="256.1109" y1="747.3891" y2="739.6109"/><line style="stroke:#181818;stroke-width:1.5;" x1="263.8891" x2="256.1109" y1="739.6109" y2="747.3891"/><text fill="#000000" font-family="sans-serif" font-size="14" lengthAdjust="spacing" textLength="33" x="103.5" y="761.9951">error</text><ellipse cx="120" cy="743" fill="#F1F1F1" rx="6" ry="6" style="stroke:#181818;stroke-width:1.5;"/><line style="stroke:#181818;stroke-width:1.5;" x1="124.3891" x2="116.6109" y1="747.3891" y2="739.6109"/><line style="stroke:#181818;stroke-width:1.5;" x1="124.3891" x2="116.6109" y1="739.6109" y2="747.3891"/><text fill="#000000" font-family="sans-serif" font-size="14" lengthAdjust="spacing" textLength="66" x="223.5" y="945.6982">terminate</text><ellipse cx="256.5" cy="967" fill="#F1F1F1" rx="6" ry="6" style="stroke:#181818;stroke-width:1.5;"/><g id="elem_qemuRunning"><polygon fill="#F1F1F1" points="257,1051,269,1063,257,1075,245,1063,257,1051" style="stroke:#181818;stroke-width:0.5;"/></g><text fill="#000000" font-family="sans-serif" font-size="14" lengthAdjust="spacing" textLength="75" x="323.5" y="1441.9951">terminated</text><ellipse cx="361" cy="1423" fill="#F1F1F1" rx="6" ry="6" style="stroke:#181818;stroke-width:1.5;"/><line style="stroke:#181818;stroke-width:1.5;" x1="365.3891" x2="357.6109" y1="1427.3891" y2="1419.6109"/><line style="stroke:#181818;stroke-width:1.5;" x1="365.3891" x2="357.6109" y1="1419.6109" y2="1427.3891"/><g id="Terminating.qemuPowerdown"><rect fill="#F1F1F1" height="50.2656" rx="12.5" ry="12.5" style="stroke:#181818;stroke-width:0.5;" width="387" x="50.5" y="1152"/><line style="stroke:#181818;stroke-width:0.5;" x1="50.5" x2="437.5" y1="1178.2969" y2="1178.2969"/><text fill="#000000" font-family="sans-serif" font-size="14" lengthAdjust="spacing" textLength="125" x="181.5" y="1169.9951">Powerdown qemu</text><text fill="#000000" font-family="sans-serif" font-size="12" lengthAdjust="spacing" textLength="367" x="55.5" y="1194.4355">entry/suspend Stop, send powerdown to qemu, start timer</text></g><g id="Terminating.terminateProcesses"><rect fill="#F1F1F1" height="50" rx="12.5" ry="12.5" style="stroke:#181818;stroke-width:0.5;" width="198" x="262" y="1294"/><line style="stroke:#181818;stroke-width:0.5;" x1="262" x2="460" y1="1320.2969" y2="1320.2969"/><text fill="#000000" font-family="sans-serif" font-size="14" lengthAdjust="spacing" textLength="178" x="272" y="1311.9951">Await process termination</text></g><ellipse cx="292" cy="16" fill="#181818" rx="10" ry="10" style="stroke:none;stroke-width:1.0;"/><g id="Initializing"><rect fill="#F1F1F1" height="50" rx="12.5" ry="12.5" style="stroke:#181818;stroke-width:0.5;" width="86" x="249" y="87"/><line style="stroke:#181818;stroke-width:0.5;" x1="249" x2="335" y1="113.2969" y2="113.2969"/><text fill="#000000" font-family="sans-serif" font-size="14" lengthAdjust="spacing" textLength="66" x="259" y="104.9951">Initializing</text></g><g id="Running"><rect fill="#F1F1F1" height="50" rx="12.5" ry="12.5" style="stroke:#181818;stroke-width:0.5;" width="78" x="221" y="822"/><line style="stroke:#181818;stroke-width:0.5;" x1="221" x2="299" y1="848.2969" y2="848.2969"/><text fill="#000000" font-family="sans-serif" font-size="14" lengthAdjust="spacing" textLength="58" x="231" y="839.9951">Running</text></g><ellipse cx="361" cy="1512" fill="none" rx="10" ry="10" style="stroke:#181818;stroke-width:1.0;"/><ellipse cx="361.5" cy="1512.5" fill="#181818" rx="6" ry="6" style="stroke:none;stroke-width:1.0;"/><!--link *start* to Initializing--><g id="link_*start*_Initializing"><path d="M292,26.01 C292,38.7 292,62.41 292,81.57 " fill="none" id="*start*-to-Initializing" style="stroke:#181818;stroke-width:1.0;"/><polygon fill="#181818" points="292,86.84,296,77.84,292,81.84,288,77.84,292,86.84" style="stroke:#181818;stroke-width:1.0;"/></g><!--link Initializing to Initializing--><g id="link_Initializing_Initializing"><path d="M335.31,107 C354,106.59 370,108.26 370,112 C370,115.39 356.86,117.08 340.49,117.06 " fill="none" id="Initializing-to-Initializing" style="stroke:#181818;stroke-width:1.0;"/><polygon fill="#181818" points="335.31,117,344.2637,121.1026,340.3097,117.0571,344.3551,113.1031,335.31,117" style="stroke:#181818;stroke-width:1.0;"/><text fill="#000000" font-family="sans-serif" font-size="13" lengthAdjust="spacing" textLength="230" x="376" y="116.5669">InitialConfiguration/configure Runner</text></g><!--link Initializing to Initializing--><g id="link_Initializing_Initializing"><path d="M335.19,105.85 C425.17,98.97 612,101.02 612,112 C612,122.78 432.04,124.95 340.3,118.52 " fill="none" id="Initializing-to-Initializing-1" style="stroke:#181818;stroke-width:1.0;"/><polygon fill="#181818" points="335.19,118.15,343.868,122.8076,340.1762,118.5215,344.4623,114.8297,335.19,118.15" style="stroke:#181818;stroke-width:1.0;"/><text fill="#000000" font-family="sans-serif" font-size="13" lengthAdjust="spacing" textLength="115" x="618" y="116.5669">Start/start Runner</text></g><!--link which to swtpm--><g id="link_which_swtpm"><path d="M284.56,260.25 C261.66,273.34 190.93,313.75 142.91,341.19 " fill="none" id="which-to-swtpm" style="stroke:#181818;stroke-width:1.0;"/><polygon fill="#181818" points="138.34,343.81,148.1366,342.7969,142.6759,341.3201,144.1527,335.8594,138.34,343.81" style="stroke:#181818;stroke-width:1.0;"/><text fill="#000000" font-family="sans-serif" font-size="13" lengthAdjust="spacing" textLength="79" x="218" y="310.0669">[use swtpm]</text></g><!--link which to qemu--><g id="link_which_qemu"><path d="M298.45,260.64 C301.33,262.65 304.79,265.01 308,267 C351.01,293.7 401.41,321.56 438.09,341.24 " fill="none" id="which-to-qemu" style="stroke:#181818;stroke-width:1.0;"/><polygon fill="#181818" points="442.94,343.84,436.8851,336.0722,438.5294,341.4848,433.1168,343.1292,442.94,343.84" style="stroke:#181818;stroke-width:1.0;"/><text fill="#000000" font-family="sans-serif" font-size="13" lengthAdjust="spacing" textLength="36" x="387" y="310.0669">[else]</text></g><!--link swtpm to qemu--><g id="link_swtpm_qemu"><path d="M161.34,369 C233.27,369 348.38,369 421.26,369 " fill="none" id="swtpm-to-qemu" style="stroke:#181818;stroke-width:1.0;"/><polygon fill="#181818" points="426.43,369,417.43,365,421.43,369,417.43,373,426.43,369" style="stroke:#181818;stroke-width:1.0;"/><text fill="#000000" font-family="sans-serif" font-size="13" lengthAdjust="spacing" textLength="229" x="179.25" y="362.0669">FileChanged[swtpm socket created]</text></g><!--link qemu to monitor--><g id="link_qemu_monitor"><path d="M426.33,380.2 C396.89,387.86 363.24,401.13 340,424 C328.7,435.12 322.06,451.46 318.19,465.66 " fill="none" id="qemu-to-monitor" style="stroke:#181818;stroke-width:1.0;"/><polygon fill="#181818" points="316.89,470.78,323.0017,463.0568,318.1329,465.9369,315.2528,461.0682,316.89,470.78" style="stroke:#181818;stroke-width:1.0;"/><text fill="#000000" font-family="sans-serif" font-size="13" lengthAdjust="spacing" textLength="237" x="341" y="437.0669">FileChanged[monitor socket created]</text></g><!--link monitor to configure--><g id="link_monitor_configure"><path d="M328.62,521.1 C342.06,541.85 361.49,571.82 375.67,593.71 " fill="none" id="monitor-to-configure" style="stroke:#181818;stroke-width:1.0;"/><polygon fill="#181818" points="378.43,597.97,376.8812,588.2437,375.7061,593.7771,370.1726,592.602,378.43,597.97" style="stroke:#181818;stroke-width:1.0;"/><text fill="#000000" font-family="sans-serif" font-size="13" lengthAdjust="spacing" textLength="186" x="359" y="564.0669">ClientConnected[for monitor]</text></g><!--link monitor to error--><g id="link_monitor_error"><path d="M224.98,521.08 C186.41,536.46 144.81,560.73 122,598 C95.43,641.42 109.86,706.86 116.88,731.83 " fill="none" id="monitor-to-error" style="stroke:#181818;stroke-width:1.0;"/><polygon fill="#181818" points="118.32,736.77,119.64,727.01,116.92,731.97,111.96,729.25,118.32,736.77" style="stroke:#181818;stroke-width:1.0;"/><text fill="#000000" font-family="sans-serif" font-size="13" lengthAdjust="spacing" textLength="165" x="123" y="627.5669">ConnectError[for monitor]</text></g><!--link configure to success--><g id="link_configure_success"><path d="M340.25,648.07 C327.76,653.47 314.47,659.06 302,664 C284.88,670.79 273.95,663.19 263,678 C251.43,693.65 254.28,717.81 257.24,731.53 " fill="none" id="configure-to-success" style="stroke:#181818;stroke-width:1.0;"/><polygon fill="#181818" points="258.47,736.72,260.2818,727.0392,257.3145,731.8554,252.4983,728.8881,258.47,736.72" style="stroke:#181818;stroke-width:1.0;"/><text fill="#000000" font-family="sans-serif" font-size="13" lengthAdjust="spacing" textLength="314" x="264" y="691.0669">ConfigureQemu (last handler)/fire cont command</text></g><!--link Initializing to which--><g id="link_Initializing_which"><path d="M292,137.24 C292,165.93 292,212.94 292,237.65 " fill="none" id="Initializing-to-which" style="stroke:#181818;stroke-width:1.0;"/><polygon fill="#181818" points="292,242.85,296,233.85,292,237.85,288,233.85,292,242.85" style="stroke:#181818;stroke-width:1.0;"/><text fill="#000000" font-family="sans-serif" font-size="13" lengthAdjust="spacing" textLength="48" x="293" y="180.0669">Started</text></g><!--link success to Running--><g id="link_success_Running"><path d="M260,749.2 C260,761.43 260,792.77 260,816.51 " fill="none" id="success-to-Running" style="stroke:#181818;stroke-width:1.0;"/><polygon fill="#181818" points="260,821.75,264,812.75,260,816.75,256,812.75,260,821.75" style="stroke:#181818;stroke-width:1.0;"/></g><!--link terminate to qemuRunning--><g id="link_terminate_qemuRunning"><path d="M257,973.05 C257,986.55 257,1023.91 257,1045.67 " fill="none" id="terminate-to-qemuRunning" style="stroke:#181818;stroke-width:1.0;"/><polygon fill="#181818" points="257,1050.85,261,1041.85,257,1045.85,253,1041.85,257,1050.85" style="stroke:#181818;stroke-width:1.0;"/></g><!--link qemuRunning to qemuPowerdown--><g id="link_qemuRunning_qemuPowerdown"><path d="M255.85,1073.94 C253.97,1090.13 250.17,1122.82 247.38,1146.85 " fill="none" id="qemuRunning-to-qemuPowerdown" style="stroke:#181818;stroke-width:1.0;"/><polygon fill="#181818" points="246.8,1151.84,251.8256,1143.3698,247.385,1146.8743,243.8805,1142.4338,246.8,1151.84" style="stroke:#181818;stroke-width:1.0;"/><text fill="#000000" font-family="sans-serif" font-size="13" lengthAdjust="spacing" textLength="137" x="253" y="1118.0669">[qemu monitor open]</text></g><!--link qemuRunning to terminateProcesses--><g id="link_qemuRunning_terminateProcesses"><path d="M266.83,1065.39 C290.68,1069.08 353.03,1080.5 399,1105 C460.28,1137.66 475.78,1164.03 490,1232 C492.91,1245.92 497.88,1252.16 490,1264 C482.45,1275.34 472.02,1284.3 460.32,1291.39 " fill="none" id="qemuRunning-to-terminateProcesses" style="stroke:#181818;stroke-width:1.0;"/><polygon fill="#181818" points="455.96,1293.91,465.7541,1292.8726,460.2897,1291.4093,461.753,1285.945,455.96,1293.91" style="stroke:#181818;stroke-width:1.0;"/><text fill="#000000" font-family="sans-serif" font-size="13" lengthAdjust="spacing" textLength="36" x="483" y="1181.5669">[else]</text></g><!--link qemuPowerdown to terminateProcesses--><g id="link_qemuPowerdown_terminateProcesses"><path d="M147.71,1202.02 C109.36,1216.28 78.97,1236.92 101,1264 C120.81,1288.35 193.11,1302.07 256.45,1309.59 " fill="none" id="qemuPowerdown-to-terminateProcesses" style="stroke:#181818;stroke-width:1.0;"/><polygon fill="#181818" points="261.77,1310.2,253.2998,1305.1744,256.8043,1309.615,252.3638,1313.1195,261.77,1310.2" style="stroke:#181818;stroke-width:1.0;"/><text fill="#000000" font-family="sans-serif" font-size="13" lengthAdjust="spacing" textLength="215" x="102" y="1245.0669">Closed[for monitor]/resume Stop,</text><text fill="#000000" font-family="sans-serif" font-size="13" lengthAdjust="spacing" textLength="81" x="169" y="1260.1997">cancel Timer</text></g><!--link qemuPowerdown to terminateProcesses--><g id="link_qemuPowerdown_terminateProcesses"><path d="M287.47,1202.04 C299.76,1210.34 312.4,1220.49 322,1232 C335.92,1248.68 345.88,1271.14 352.25,1288.93 " fill="none" id="qemuPowerdown-to-terminateProcesses-1" style="stroke:#181818;stroke-width:1.0;"/><polygon fill="#181818" points="353.95,1293.81,354.7655,1283.995,352.3046,1289.0885,347.2111,1286.6276,353.95,1293.81" style="stroke:#181818;stroke-width:1.0;"/><text fill="#000000" font-family="sans-serif" font-size="13" lengthAdjust="spacing" textLength="139" x="342" y="1252.5669">Timeout/resume Stop</text></g><!--link terminateProcesses to terminated--><g id="link_terminateProcesses_terminated"><path d="M361,1344.17 C361,1365.58 361,1395.8 361,1411.54 " fill="none" id="terminateProcesses-to-terminated" style="stroke:#181818;stroke-width:1.0;"/><polygon fill="#181818" points="361,1416.65,365,1407.65,361,1411.65,357,1407.65,361,1416.65" style="stroke:#181818;stroke-width:1.0;"/></g><!--link Running to terminate--><g id="link_Running_terminate"><path d="M239.44,872.24 C233.23,881.04 227.2,891.43 224,902 C217.62,923.07 235.63,945.44 247.5,957.34 " fill="none" id="Running-to-terminate" style="stroke:#181818;stroke-width:1.0;"/><polygon fill="#181818" points="251.24,960.97,247.5379,951.8434,247.6408,957.4993,241.9849,957.6022,251.24,960.97" style="stroke:#181818;stroke-width:1.0;"/><text fill="#000000" font-family="sans-serif" font-size="13" lengthAdjust="spacing" textLength="30" x="225" y="915.0669">Stop</text></g><!--link Running to terminate--><g id="link_Running_terminate"><path d="M260.38,872.32 C260.5,886.03 260.49,903.48 260,919 C259.6,931.59 258.59,946.04 257.86,955.56 " fill="none" id="Running-to-terminate-1" style="stroke:#181818;stroke-width:1.0;"/><polygon fill="#181818" points="257.44,960.79,262.1223,952.1253,257.8257,955.8049,254.1461,951.5083,257.44,960.79" style="stroke:#181818;stroke-width:1.0;"/><text fill="#000000" font-family="sans-serif" font-size="13" lengthAdjust="spacing" textLength="190" x="261" y="915.0669">ProcessExited[process qemu]</text></g><!--link error to terminate--><g id="link_error_terminate"><path d="M122.19,749.14 C131.54,770.81 169.7,856.55 214,919 C224.3,933.52 238.65,948.37 247.89,957.39 " fill="none" id="error-to-terminate" style="stroke:#181818;stroke-width:1.0;"/><polygon fill="#181818" points="251.5,960.88,247.8161,951.7461,247.9077,957.4022,242.2516,957.4938,251.5,960.88" style="stroke:#181818;stroke-width:1.0;"/></g><!--link StartingProcess to terminate--><g id="link_StartingProcess_terminate"><path d="M584.1665,287.0597 C584.2371,287.2157 584.3078,287.3721 584.3785,287.529 C584.6614,288.1564 584.9449,288.7905 585.2288,289.4313 C585.7966,290.7127 586.3661,292.0205 586.935,293.3525 C596.0375,314.665 605,342.2 605,368 C605,368 605,368 605,848 C605,920.93 327.39,957.72 268.07,964.74 " fill="none" id="StartingProcess-to-terminate" style="stroke:#181818;stroke-width:1.0;"/><polygon fill="#181818" points="262.75,965.36,272.1572,968.2763,267.7155,964.7733,271.2185,960.3316,262.75,965.36" style="stroke:#181818;stroke-width:1.0;"/><text fill="#000000" font-family="sans-serif" font-size="13" lengthAdjust="spacing" textLength="89" x="606" y="627.5669">ProcessExited</text></g><!--link terminated to *end*--><g id="link_terminated_*end*"><path d="M361,1429.18 C361,1442.29 361,1477.12 361,1496.85 " fill="none" id="terminated-to-*end*" style="stroke:#181818;stroke-width:1.0;"/><polygon fill="#181818" points="361,1501.99,365,1492.99,361,1496.99,357,1492.99,361,1501.99" style="stroke:#181818;stroke-width:1.0;"/></g><!--SRC=[ZLLDRzim3BtdLn0vjKMBt8qWm11qm4xBrjuo7moPJOJPKYR9oBPY_tsalcAvJhSS3CbyV18V7vtzNGqF3nlufAIJJIT_ItLO53kOHAkqsshr8W-3QPpKQYNY3k7he1IQVv4ykSQubULdpbW0xHt2qWSvxMPdj41hqTukeR6G0l4rl78I_qBY-IZ54TPhSTHIu6OpZWLIi6TtwZsNNyqWVc0_U00lYlZd4oheDTMXZKV4TG5Aig17P5d663i8V_lr6dzAjzDIkVAkQ8msS-5ORQYJ- -QBg60_M0phUehWAWY0dSKwgnMoK3dpA_PWh0Ol8QT-b1rkZuqwOBiF8Ql5TtGW3D9bsymQu6FIYuAyyjU9aa79czvEc25HntXYVv7aC-x6ayUJv0e5sx10-_Do0ohOTfBI8vWEVI58XDQJn4re0UK4z2FlPXB2StJ6w7xP25-o2fSXyRqBDgXA9DnqZNL0mhGTcjl0HOcaYkvxUhk0FonBELv4vriU1mjRFqtHPnpb6VEpdORi6KqlLUF7x7LiFXS3o0RaScOCoksCZ5V6BREqrss-tEapcbQVLJbq-NK1_d1kf8DJdFp4JqttUVcy_CL8thdKayOXQv6ScKf9W7o1Qk-DctoXoNBrVDhRywjovahUD2Q39SgMcgPFzs1vUSgQEEsJxY4CavCzch7j2iPhbo3NQpin-ygW7NeCftvJeb42EtY-yFyVCoVemOtP9efdSCcHB3ohNnM9hWGZvICvYgfARk0BazBXkrbaBDxyPxn7kF1Vd95t6Ro_g_y2]--></g></svg>