<?xml version="1.0" encoding="us-ascii" standalone="no"?><svg xmlns="http://www.w3.org/2000/svg" xmlns:xlink="http://www.w3.org/1999/xlink" contentStyleType="text/css" height="1401px" preserveAspectRatio="none" style="width:885px;height:1401px;background:#FFFFFF;" version="1.1" viewBox="0 0 885 1401" width="885px" zoomAndPan="magnify"><defs/><g><!--cluster StartingProcess--><g id="cluster_StartingProcess"><path d="M158.5,200 L710.5,200 A12.5,12.5 0 0 1 723,212.5 L723,221.2969 L146,221.2969 L146,212.5 A12.5,12.5 0 0 1 158.5,200 " fill="#F1F1F1" style="stroke:#F1F1F1;stroke-width:1.0;"/><rect fill="none" height="416" rx="12.5" ry="12.5" style="stroke:#181818;stroke-width:0.5;" width="577" x="146" y="200"/><line style="stroke:#181818;stroke-width:0.5;" x1="146" x2="723" y1="221.2969" y2="221.2969"/><text fill="#000000" font-family="sans-serif" font-size="14" lengthAdjust="spacing" textLength="140" x="364.5" y="217.9951">Starting (Processes)</text></g><!--cluster Terminating--><g id="cluster_Terminating"><path d="M19.5,840 L522.5,840 A12.5,12.5 0 0 1 535,852.5 L535,861.2969 L7,861.2969 L7,852.5 A12.5,12.5 0 0 1 19.5,840 " fill="#F1F1F1" style="stroke:#F1F1F1;stroke-width:1.0;"/><rect fill="none" height="456" rx="12.5" ry="12.5" style="stroke:#181818;stroke-width:0.5;" width="528" x="7" y="840"/><line style="stroke:#181818;stroke-width:0.5;" x1="7" x2="535" y1="861.2969" y2="861.2969"/><text fill="#000000" font-family="sans-serif" font-size="14" lengthAdjust="spacing" textLength="82" x="230" y="857.9951">Terminating</text></g><g id="elem_which"><polygon fill="#F1F1F1" points="431,243,443,255,431,267,419,255,431,243" style="stroke:#181818;stroke-width:0.5;"/></g><g id="StartingProcess.swtpm"><rect fill="#F1F1F1" height="50.2656" rx="12.5" ry="12.5" style="stroke:#181818;stroke-width:0.5;" width="130" x="170" y="344"/><line style="stroke:#181818;stroke-width:0.5;" x1="170" x2="300" y1="370.2969" y2="370.2969"/><text fill="#000000" font-family="sans-serif" font-size="14" lengthAdjust="spacing" textLength="82" x="194" y="361.9951">Start swtpm</text><text fill="#000000" font-family="sans-serif" font-size="12" lengthAdjust="spacing" textLength="110" x="175" y="386.4355">entry/start swtpm</text></g><g id="StartingProcess.qemu"><rect fill="#F1F1F1" height="50.2656" rx="12.5" ry="12.5" style="stroke:#181818;stroke-width:0.5;" width="125" x="565.5" y="344"/><line style="stroke:#181818;stroke-width:0.5;" x1="565.5" x2="690.5" y1="370.2969" y2="370.2969"/><text fill="#000000" font-family="sans-serif" font-size="14" lengthAdjust="spacing" textLength="76" x="590" y="361.9951">Start qemu</text><text fill="#000000" font-family="sans-serif" font-size="12" lengthAdjust="spacing" textLength="105" x="570.5" y="386.4355">entry/start qemu</text></g><g id="StartingProcess.monitor"><rect fill="#F1F1F1" height="50.2656" rx="12.5" ry="12.5" style="stroke:#181818;stroke-width:0.5;" width="227" x="295.5" y="471"/><line style="stroke:#181818;stroke-width:0.5;" x1="295.5" x2="522.5" y1="497.2969" y2="497.2969"/><text fill="#000000" font-family="sans-serif" font-size="14" lengthAdjust="spacing" textLength="95" x="361.5" y="488.9951">Open monitor</text><text fill="#000000" font-family="sans-serif" font-size="12" lengthAdjust="spacing" textLength="207" x="300.5" y="513.4355">entry/fire OpenSocketConnection</text></g><text fill="#000000" font-family="sans-serif" font-size="14" lengthAdjust="spacing" textLength="58" x="379.5" y="634.9951">success</text><ellipse cx="408.5" cy="616" fill="#F1F1F1" rx="6" ry="6" style="stroke:#181818;stroke-width:1.5;"/><line style="stroke:#181818;stroke-width:1.5;" x1="412.8891" x2="405.1109" y1="620.3891" y2="612.6109"/><line style="stroke:#181818;stroke-width:1.5;" x1="412.8891" x2="405.1109" y1="612.6109" y2="620.3891"/><text fill="#000000" font-family="sans-serif" font-size="14" lengthAdjust="spacing" textLength="33" x="207.5" y="634.9951">error</text><ellipse cx="224" cy="616" fill="#F1F1F1" rx="6" ry="6" style="stroke:#181818;stroke-width:1.5;"/><line style="stroke:#181818;stroke-width:1.5;" x1="228.3891" x2="220.6109" y1="620.3891" y2="612.6109"/><line style="stroke:#181818;stroke-width:1.5;" x1="228.3891" x2="220.6109" y1="612.6109" y2="620.3891"/><text fill="#000000" font-family="sans-serif" font-size="14" lengthAdjust="spacing" textLength="66" x="344.5" y="818.6982">terminate</text><ellipse cx="377.5" cy="840" fill="#F1F1F1" rx="6" ry="6" style="stroke:#181818;stroke-width:1.5;"/><g id="elem_qemuRunning"><polygon fill="#F1F1F1" points="378,924,390,936,378,948,366,936,378,924" style="stroke:#181818;stroke-width:0.5;"/></g><text fill="#000000" font-family="sans-serif" font-size="14" lengthAdjust="spacing" textLength="75" x="296.5" y="1314.9951">terminated</text><ellipse cx="334" cy="1296" fill="#F1F1F1" rx="6" ry="6" style="stroke:#181818;stroke-width:1.5;"/><line style="stroke:#181818;stroke-width:1.5;" x1="338.3891" x2="330.6109" y1="1300.3891" y2="1292.6109"/><line style="stroke:#181818;stroke-width:1.5;" x1="338.3891" x2="330.6109" y1="1292.6109" y2="1300.3891"/><g id="Terminating.qemuPowerdown"><rect fill="#F1F1F1" height="50.2656" rx="12.5" ry="12.5" style="stroke:#181818;stroke-width:0.5;" width="387" x="23.5" y="1025"/><line style="stroke:#181818;stroke-width:0.5;" x1="23.5" x2="410.5" y1="1051.2969" y2="1051.2969"/><text fill="#000000" font-family="sans-serif" font-size="14" lengthAdjust="spacing" textLength="125" x="154.5" y="1042.9951">Powerdown qemu</text><text fill="#000000" font-family="sans-serif" font-size="12" lengthAdjust="spacing" textLength="367" x="28.5" y="1067.4355">entry/suspend Stop, send powerdown to qemu, start timer</text></g><g id="Terminating.terminateProcesses"><rect fill="#F1F1F1" height="50" rx="12.5" ry="12.5" style="stroke:#181818;stroke-width:0.5;" width="198" x="235" y="1167"/><line style="stroke:#181818;stroke-width:0.5;" x1="235" x2="433" y1="1193.2969" y2="1193.2969"/><text fill="#000000" font-family="sans-serif" font-size="14" lengthAdjust="spacing" textLength="178" x="245" y="1184.9951">Await process termination</text></g><ellipse cx="431" cy="16" fill="#181818" rx="10" ry="10" style="stroke:none;stroke-width:1.0;"/><g id="Initializing"><rect fill="#F1F1F1" height="50" rx="12.5" ry="12.5" style="stroke:#181818;stroke-width:0.5;" width="86" x="388" y="87"/><line style="stroke:#181818;stroke-width:0.5;" x1="388" x2="474" y1="113.2969" y2="113.2969"/><text fill="#000000" font-family="sans-serif" font-size="14" lengthAdjust="spacing" textLength="66" x="398" y="104.9951">Initializing</text></g><g id="Running"><rect fill="#F1F1F1" height="50" rx="12.5" ry="12.5" style="stroke:#181818;stroke-width:0.5;" width="78" x="370" y="695"/><line style="stroke:#181818;stroke-width:0.5;" x1="370" x2="448" y1="721.2969" y2="721.2969"/><text fill="#000000" font-family="sans-serif" font-size="14" lengthAdjust="spacing" textLength="58" x="380" y="712.9951">Running</text></g><ellipse cx="334" cy="1385" fill="none" rx="10" ry="10" style="stroke:#181818;stroke-width:1.0;"/><ellipse cx="334.5" cy="1385.5" fill="#181818" rx="6" ry="6" style="stroke:none;stroke-width:1.0;"/><!--link *start* to Initializing--><g id="link_*start*_Initializing"><path d="M431,26.01 C431,38.7 431,62.41 431,81.57 " fill="none" id="*start*-to-Initializing" style="stroke:#181818;stroke-width:1.0;"/><polygon fill="#181818" points="431,86.84,435,77.84,431,81.84,427,77.84,431,86.84" style="stroke:#181818;stroke-width:1.0;"/></g><!--link Initializing to Initializing--><g id="link_Initializing_Initializing"><path d="M474.31,107 C493,106.59 509,108.26 509,112 C509,115.39 495.86,117.08 479.49,117.06 " fill="none" id="Initializing-to-Initializing" style="stroke:#181818;stroke-width:1.0;"/><polygon fill="#181818" points="474.31,117,483.2637,121.1026,479.3097,117.0571,483.3551,113.1031,474.31,117" style="stroke:#181818;stroke-width:1.0;"/><text fill="#000000" font-family="sans-serif" font-size="13" lengthAdjust="spacing" textLength="230" x="515" y="116.5669">InitialConfiguration/configure Runner</text></g><!--link Initializing to Initializing--><g id="link_Initializing_Initializing"><path d="M474.19,105.85 C564.17,98.97 751,101.02 751,112 C751,122.78 571.04,124.95 479.3,118.52 " fill="none" id="Initializing-to-Initializing-1" style="stroke:#181818;stroke-width:1.0;"/><polygon fill="#181818" points="474.19,118.15,482.868,122.8076,479.1762,118.5215,483.4623,114.8297,474.19,118.15" style="stroke:#181818;stroke-width:1.0;"/><text fill="#000000" font-family="sans-serif" font-size="13" lengthAdjust="spacing" textLength="115" x="757" y="116.5669">Start/start Runner</text></g><!--link which to swtpm--><g id="link_which_swtpm"><path d="M423.56,260.25 C400.66,273.34 329.93,313.75 281.91,341.19 " fill="none" id="which-to-swtpm" style="stroke:#181818;stroke-width:1.0;"/><polygon fill="#181818" points="277.34,343.81,287.1366,342.7969,281.6759,341.3201,283.1527,335.8594,277.34,343.81" style="stroke:#181818;stroke-width:1.0;"/><text fill="#000000" font-family="sans-serif" font-size="13" lengthAdjust="spacing" textLength="79" x="357" y="310.0669">[use swtpm]</text></g><!--link which to qemu--><g id="link_which_qemu"><path d="M437.45,260.64 C440.33,262.65 443.79,265.01 447,267 C490.01,293.7 540.41,321.56 577.09,341.24 " fill="none" id="which-to-qemu" style="stroke:#181818;stroke-width:1.0;"/><polygon fill="#181818" points="581.94,343.84,575.8851,336.0722,577.5294,341.4848,572.1168,343.1292,581.94,343.84" style="stroke:#181818;stroke-width:1.0;"/><text fill="#000000" font-family="sans-serif" font-size="13" lengthAdjust="spacing" textLength="36" x="526" y="310.0669">[else]</text></g><!--link swtpm to qemu--><g id="link_swtpm_qemu"><path d="M300.34,369 C372.27,369 487.38,369 560.26,369 " fill="none" id="swtpm-to-qemu" style="stroke:#181818;stroke-width:1.0;"/><polygon fill="#181818" points="565.43,369,556.43,365,560.43,369,556.43,373,565.43,369" style="stroke:#181818;stroke-width:1.0;"/><text fill="#000000" font-family="sans-serif" font-size="13" lengthAdjust="spacing" textLength="229" x="318.25" y="362.0669">FileChanged[swtpm socket created]</text></g><!--link qemu to monitor--><g id="link_qemu_monitor"><path d="M565.22,387.47 C539,396.28 508.91,408.44 484,424 C465.37,435.64 447.4,452.39 433.72,466.7 " fill="none" id="qemu-to-monitor" style="stroke:#181818;stroke-width:1.0;"/><polygon fill="#181818" points="429.98,470.67,439.0611,466.8577,433.4068,467.029,433.2355,461.3747,429.98,470.67" style="stroke:#181818;stroke-width:1.0;"/><text fill="#000000" font-family="sans-serif" font-size="13" lengthAdjust="spacing" textLength="237" x="485" y="437.0669">FileChanged[monitor socket created]</text></g><!--link monitor to success--><g id="link_monitor_success"><path d="M407.08,521.31 C406.22,535.02 405.5,552.46 406,568 C406.4,580.59 407.41,595.04 408.14,604.56 " fill="none" id="monitor-to-success" style="stroke:#181818;stroke-width:1.0;"/><polygon fill="#181818" points="408.56,609.79,411.8539,600.5083,408.1743,604.8049,403.8777,601.1253,408.56,609.79" style="stroke:#181818;stroke-width:1.0;"/><text fill="#000000" font-family="sans-serif" font-size="13" lengthAdjust="spacing" textLength="298" x="407" y="564.0669">ClientConnected[for monitor]/set balloon value</text></g><!--link monitor to error--><g id="link_monitor_error"><path d="M295.29,509.82 C270.38,517.93 246.54,530.77 230,551 C217.51,566.27 219.41,590.96 221.78,604.79 " fill="none" id="monitor-to-error" style="stroke:#181818;stroke-width:1.0;"/><polygon fill="#181818" points="222.78,609.99,225.0074,600.3963,221.8352,605.0801,217.1515,601.9079,222.78,609.99" style="stroke:#181818;stroke-width:1.0;"/><text fill="#000000" font-family="sans-serif" font-size="13" lengthAdjust="spacing" textLength="165" x="231" y="564.0669">ConnectError[for monitor]</text></g><!--link Initializing to which--><g id="link_Initializing_which"><path d="M431,137.24 C431,165.93 431,212.94 431,237.65 " fill="none" id="Initializing-to-which" style="stroke:#181818;stroke-width:1.0;"/><polygon fill="#181818" points="431,242.85,435,233.85,431,237.85,427,233.85,431,242.85" style="stroke:#181818;stroke-width:1.0;"/><text fill="#000000" font-family="sans-serif" font-size="13" lengthAdjust="spacing" textLength="48" x="432" y="180.0669">Started</text></g><!--link success to Running--><g id="link_success_Running"><path d="M409,622.2 C409,634.43 409,665.77 409,689.51 " fill="none" id="success-to-Running" style="stroke:#181818;stroke-width:1.0;"/><polygon fill="#181818" points="409,694.75,413,685.75,409,689.75,405,685.75,409,694.75" style="stroke:#181818;stroke-width:1.0;"/></g><!--link terminate to qemuRunning--><g id="link_terminate_qemuRunning"><path d="M378,846.05 C378,859.55 378,896.91 378,918.67 " fill="none" id="terminate-to-qemuRunning" style="stroke:#181818;stroke-width:1.0;"/><polygon fill="#181818" points="378,923.85,382,914.85,378,918.85,374,914.85,378,923.85" style="stroke:#181818;stroke-width:1.0;"/></g><!--link qemuRunning to qemuPowerdown--><g id="link_qemuRunning_qemuPowerdown"><path d="M371.49,941.53 C352.3,954.88 294.88,994.82 255.72,1022.07 " fill="none" id="qemuRunning-to-qemuPowerdown" style="stroke:#181818;stroke-width:1.0;"/><polygon fill="#181818" points="251.51,1024.99,261.1852,1023.1489,255.6189,1022.141,256.6268,1016.5746,251.51,1024.99" style="stroke:#181818;stroke-width:1.0;"/><text fill="#000000" font-family="sans-serif" font-size="13" lengthAdjust="spacing" textLength="137" x="317" y="991.0669">[qemu monitor open]</text></g><!--link qemuRunning to terminateProcesses--><g id="link_qemuRunning_terminateProcesses"><path d="M387.85,938.36 C406.41,941.52 446.19,951.22 463,978 C500.58,1037.85 502.15,1078.17 463,1137 C455.45,1148.34 445.02,1157.3 433.32,1164.39 " fill="none" id="qemuRunning-to-terminateProcesses" style="stroke:#181818;stroke-width:1.0;"/><polygon fill="#181818" points="428.96,1166.91,438.7541,1165.8726,433.2897,1164.4093,434.753,1158.945,428.96,1166.91" style="stroke:#181818;stroke-width:1.0;"/><text fill="#000000" font-family="sans-serif" font-size="13" lengthAdjust="spacing" textLength="36" x="492" y="1054.5669">[else]</text></g><!--link qemuPowerdown to terminateProcesses--><g id="link_qemuPowerdown_terminateProcesses"><path d="M120.71,1075.02 C82.36,1089.28 51.97,1109.92 74,1137 C93.81,1161.35 166.11,1175.07 229.45,1182.59 " fill="none" id="qemuPowerdown-to-terminateProcesses" style="stroke:#181818;stroke-width:1.0;"/><polygon fill="#181818" points="234.77,1183.2,226.2998,1178.1744,229.8043,1182.615,225.3638,1186.1195,234.77,1183.2" style="stroke:#181818;stroke-width:1.0;"/><text fill="#000000" font-family="sans-serif" font-size="13" lengthAdjust="spacing" textLength="215" x="75" y="1118.0669">Closed[for monitor]/resume Stop,</text><text fill="#000000" font-family="sans-serif" font-size="13" lengthAdjust="spacing" textLength="81" x="142" y="1133.1997">cancel Timer</text></g><!--link qemuPowerdown to terminateProcesses--><g id="link_qemuPowerdown_terminateProcesses"><path d="M260.47,1075.04 C272.76,1083.34 285.4,1093.49 295,1105 C308.92,1121.68 318.88,1144.14 325.25,1161.93 " fill="none" id="qemuPowerdown-to-terminateProcesses-1" style="stroke:#181818;stroke-width:1.0;"/><polygon fill="#181818" points="326.95,1166.81,327.7655,1156.995,325.3046,1162.0885,320.2111,1159.6276,326.95,1166.81" style="stroke:#181818;stroke-width:1.0;"/><text fill="#000000" font-family="sans-serif" font-size="13" lengthAdjust="spacing" textLength="139" x="315" y="1125.5669">Timeout/resume Stop</text></g><!--link terminateProcesses to terminated--><g id="link_terminateProcesses_terminated"><path d="M334,1217.17 C334,1238.58 334,1268.8 334,1284.54 " fill="none" id="terminateProcesses-to-terminated" style="stroke:#181818;stroke-width:1.0;"/><polygon fill="#181818" points="334,1289.65,338,1280.65,334,1284.65,330,1280.65,334,1289.65" style="stroke:#181818;stroke-width:1.0;"/></g><!--link Running to terminate--><g id="link_Running_terminate"><path d="M369.87,741.63 C357.69,750.2 345.7,761.36 339,775 C328.7,795.95 352,818.98 366.86,830.87 " fill="none" id="Running-to-terminate" style="stroke:#181818;stroke-width:1.0;"/><polygon fill="#181818" points="371.15,834.19,366.4733,825.5223,367.1933,831.1332,361.5824,831.8531,371.15,834.19" style="stroke:#181818;stroke-width:1.0;"/><text fill="#000000" font-family="sans-serif" font-size="13" lengthAdjust="spacing" textLength="30" x="340" y="788.0669">Stop</text></g><!--link Running to terminate--><g id="link_Running_terminate"><path d="M402.65,745.16 C395.91,770.83 385.57,810.19 380.7,828.71 " fill="none" id="Running-to-terminate-1" style="stroke:#181818;stroke-width:1.0;"/><polygon fill="#181818" points="379.38,833.74,385.5399,826.0552,380.6532,828.9048,377.8036,824.0181,379.38,833.74" style="stroke:#181818;stroke-width:1.0;"/><text fill="#000000" font-family="sans-serif" font-size="13" lengthAdjust="spacing" textLength="190" x="395" y="788.0669">ProcessExited[process qemu]</text></g><!--link error to terminate--><g id="link_error_terminate"><path d="M226.42,622.2 C236.75,644.14 278.89,730.81 328,792 C340.11,807.09 356.98,821.96 367.7,830.8 " fill="none" id="error-to-terminate" style="stroke:#181818;stroke-width:1.0;"/><polygon fill="#181818" points="371.62,834,367.1926,825.2024,367.7521,830.8315,362.123,831.391,371.62,834" style="stroke:#181818;stroke-width:1.0;"/></g><!--link StartingProcess to terminate--><g id="link_StartingProcess_terminate"><path d="M723.1997,282.7266 C723.3574,283.0207 723.5155,283.3167 723.6739,283.6146 C723.9907,284.2103 724.3089,284.8133 724.6282,285.4234 C725.9053,287.864 727.1995,290.4183 728.4913,293.0712 C738.825,314.295 749,341.835 749,368 C749,368 749,368 749,721 C749,798.75 449.33,832.06 388.64,838.01 " fill="none" id="StartingProcess-to-terminate" style="stroke:#181818;stroke-width:1.0;"/><polygon fill="#181818" points="383.53,838.5,392.8763,841.6059,388.5063,838.0138,392.0984,833.6438,383.53,838.5" style="stroke:#181818;stroke-width:1.0;"/><text fill="#000000" font-family="sans-serif" font-size="13" lengthAdjust="spacing" textLength="89" x="750" y="564.0669">ProcessExited</text></g><!--link terminated to *end*--><g id="link_terminated_*end*"><path d="M334,1302.18 C334,1315.29 334,1350.12 334,1369.85 " fill="none" id="terminated-to-*end*" style="stroke:#181818;stroke-width:1.0;"/><polygon fill="#181818" points="334,1374.99,338,1365.99,334,1369.99,330,1365.99,334,1374.99" style="stroke:#181818;stroke-width:1.0;"/></g><!--SRC=[ZLHDZzCm4BtdLunwWjMkUe-gIgXQ94vKxDv23i6PjXQ97Mo702l-Env_DSwcG0-LdNdlUJwUNTtLyF2mXm-26zvq_1SNvoBRmI9Qnjr1YXC_ZwenN8ej2pk4JwCGgFubycGQPRQQ_XEZ0Bit21iN9DgRev8CjKRzTWEDXXW8d-65IFJpnEd2sGLsEtQHdE5-FuzvKT2J6NgdvLOhY6_OZmv0Yop-SK01lRHrIEKGOJq7wP6vp7Ox_C7DKN9XyZnGAQdMmg4INmFDn2LOGZLgzEjwYQ0CBG0xZNNgX6UXCEfdwE-yKbf2ehxd7HukZJXZM_cGbkmh6c0ARR9jKlNmkUYrExHowOHsGAuRlowK8Kg7U5G_SUiXwlIJmrkN2MHaiGpj6-HxNSAXuvOSeFR8amK4OBtLzj0lJTT9AU1xqusu4DhxaLWLpt-aNIPHm6zADZUqvRb112jZw_mRfazHShMxJT7MpwXwBXfdx9Uv9Km88Dc2ch1Y6sfoKBnXyAJItZRVvYWdLAsSH6xpz3a3lviQRc08Totgsr4uNZeltT4uqMizqQIf5z4liPG8I0cKbRDJd8wqHgZNQQ_FB_ERaEj6yuxQIhPsQ7Au1qtB8VN4I4Uw1sznmtiCbtj5yLOIrerIBqseK8yz-bC_2zO8XXqyN_N_Jva8SZHpjKN74pZNQ8E5L_jN1g4RmI3vQ1rbgufke8Hjf_rhbZ6ALw_qtmGBzmxCl4lWwgx-0m00]--></g></svg>