<?xml version="1.0" encoding="us-ascii" standalone="no"?><svg xmlns="http://www.w3.org/2000/svg" xmlns:xlink="http://www.w3.org/1999/xlink" contentStyleType="text/css" height="1646px" preserveAspectRatio="none" style="width:923px;height:1646px;background:#FFFFFF;" version="1.1" viewBox="0 0 923 1646" width="923px" zoomAndPan="magnify"><defs/><g><!--cluster StartingProcess--><g id="cluster_StartingProcess"><path d="M196.5,200 L748.5,200 A12.5,12.5 0 0 1 761,212.5 L761,221.2969 L184,221.2969 L184,212.5 A12.5,12.5 0 0 1 196.5,200 " fill="#F1F1F1" style="stroke:#F1F1F1;stroke-width:1.0;"/><rect fill="none" height="543" rx="12.5" ry="12.5" style="stroke:#181818;stroke-width:0.5;" width="577" x="184" y="200"/><line style="stroke:#181818;stroke-width:0.5;" x1="184" x2="761" y1="221.2969" y2="221.2969"/><text fill="#000000" font-family="sans-serif" font-size="14" lengthAdjust="spacing" textLength="140" x="402.5" y="217.9951">Starting (Processes)</text></g><!--cluster Terminating--><g id="cluster_Terminating"><path d="M19.5,967 L522.5,967 A12.5,12.5 0 0 1 535,979.5 L535,988.2969 L7,988.2969 L7,979.5 A12.5,12.5 0 0 1 19.5,967 " fill="#F1F1F1" style="stroke:#F1F1F1;stroke-width:1.0;"/><rect fill="none" height="456" rx="12.5" ry="12.5" style="stroke:#181818;stroke-width:0.5;" width="528" x="7" y="967"/><line style="stroke:#181818;stroke-width:0.5;" x1="7" x2="535" y1="988.2969" y2="988.2969"/><text fill="#000000" font-family="sans-serif" font-size="14" lengthAdjust="spacing" textLength="82" x="230" y="984.9951">Terminating</text></g><!--cluster Stopped--><g id="cluster_Stopped"><path d="M300.5,1520 L366.5,1520 A12.5,12.5 0 0 1 379,1532.5 L379,1541.2969 L288,1541.2969 L288,1532.5 A12.5,12.5 0 0 1 300.5,1520 " fill="#F1F1F1" style="stroke:#F1F1F1;stroke-width:1.0;"/><rect fill="none" height="120" rx="12.5" ry="12.5" style="stroke:#181818;stroke-width:0.5;" width="91" x="288" y="1520"/><line style="stroke:#181818;stroke-width:0.5;" x1="288" x2="379" y1="1541.2969" y2="1541.2969"/><text fill="#000000" font-family="sans-serif" font-size="14" lengthAdjust="spacing" textLength="59" x="304" y="1537.9951">Stopped</text></g><g id="elem_which"><polygon fill="#F1F1F1" points="469,243,481,255,469,267,457,255,469,243" style="stroke:#181818;stroke-width:0.5;"/></g><g id="StartingProcess.swtpm"><rect fill="#F1F1F1" height="50.2656" rx="12.5" ry="12.5" style="stroke:#181818;stroke-width:0.5;" width="130" x="208" y="344"/><line style="stroke:#181818;stroke-width:0.5;" x1="208" x2="338" y1="370.2969" y2="370.2969"/><text fill="#000000" font-family="sans-serif" font-size="14" lengthAdjust="spacing" textLength="82" x="232" y="361.9951">Start swtpm</text><text fill="#000000" font-family="sans-serif" font-size="12" lengthAdjust="spacing" textLength="110" x="213" y="386.4355">entry/start swtpm</text></g><g id="StartingProcess.qemu"><rect fill="#F1F1F1" height="50.2656" rx="12.5" ry="12.5" style="stroke:#181818;stroke-width:0.5;" width="125" x="603.5" y="344"/><line style="stroke:#181818;stroke-width:0.5;" x1="603.5" x2="728.5" y1="370.2969" y2="370.2969"/><text fill="#000000" font-family="sans-serif" font-size="14" lengthAdjust="spacing" textLength="76" x="628" y="361.9951">Start qemu</text><text fill="#000000" font-family="sans-serif" font-size="12" lengthAdjust="spacing" textLength="105" x="608.5" y="386.4355">entry/start qemu</text></g><g id="StartingProcess.monitor"><rect fill="#F1F1F1" height="50.2656" rx="12.5" ry="12.5" style="stroke:#181818;stroke-width:0.5;" width="227" x="376.5" y="471"/><line style="stroke:#181818;stroke-width:0.5;" x1="376.5" x2="603.5" y1="497.2969" y2="497.2969"/><text fill="#000000" font-family="sans-serif" font-size="14" lengthAdjust="spacing" textLength="95" x="442.5" y="488.9951">Open monitor</text><text fill="#000000" font-family="sans-serif" font-size="12" lengthAdjust="spacing" textLength="207" x="381.5" y="513.4355">entry/fire OpenSocketConnection</text></g><g id="StartingProcess.configure"><rect fill="#F1F1F1" height="50.2656" rx="12.5" ry="12.5" style="stroke:#181818;stroke-width:0.5;" width="255" x="444.5" y="598"/><line style="stroke:#181818;stroke-width:0.5;" x1="444.5" x2="699.5" y1="624.2969" y2="624.2969"/><text fill="#000000" font-family="sans-serif" font-size="14" lengthAdjust="spacing" textLength="67" x="538.5" y="615.9951">Configure</text><text fill="#000000" font-family="sans-serif" font-size="12" lengthAdjust="spacing" textLength="235" x="449.5" y="640.4355">entry/fire RunnerConfigurationUpdate</text></g><text fill="#000000" font-family="sans-serif" font-size="14" lengthAdjust="spacing" textLength="58" x="330.5" y="761.9951">success</text><ellipse cx="359.5" cy="743" fill="#F1F1F1" rx="6" ry="6" style="stroke:#181818;stroke-width:1.5;"/><line style="stroke:#181818;stroke-width:1.5;" x1="363.8891" x2="356.1109" y1="747.3891" y2="739.6109"/><line style="stroke:#181818;stroke-width:1.5;" x1="363.8891" x2="356.1109" y1="739.6109" y2="747.3891"/><text fill="#000000" font-family="sans-serif" font-size="14" lengthAdjust="spacing" textLength="33" x="238.5" y="761.9951">error</text><ellipse cx="255" cy="743" fill="#F1F1F1" rx="6" ry="6" style="stroke:#181818;stroke-width:1.5;"/><line style="stroke:#181818;stroke-width:1.5;" x1="259.3891" x2="251.6109" y1="747.3891" y2="739.6109"/><line style="stroke:#181818;stroke-width:1.5;" x1="259.3891" x2="251.6109" y1="739.6109" y2="747.3891"/><text fill="#000000" font-family="sans-serif" font-size="14" lengthAdjust="spacing" textLength="66" x="344.5" y="945.6982">terminate</text><ellipse cx="377.5" cy="967" fill="#F1F1F1" rx="6" ry="6" style="stroke:#181818;stroke-width:1.5;"/><g id="elem_qemuRunning"><polygon fill="#F1F1F1" points="378,1051,390,1063,378,1075,366,1063,378,1051" style="stroke:#181818;stroke-width:0.5;"/></g><text fill="#000000" font-family="sans-serif" font-size="14" lengthAdjust="spacing" textLength="75" x="296.5" y="1441.9951">terminated</text><ellipse cx="334" cy="1423" fill="#F1F1F1" rx="6" ry="6" style="stroke:#181818;stroke-width:1.5;"/><line style="stroke:#181818;stroke-width:1.5;" x1="338.3891" x2="330.6109" y1="1427.3891" y2="1419.6109"/><line style="stroke:#181818;stroke-width:1.5;" x1="338.3891" x2="330.6109" y1="1419.6109" y2="1427.3891"/><g id="Terminating.qemuPowerdown"><rect fill="#F1F1F1" height="50.2656" rx="12.5" ry="12.5" style="stroke:#181818;stroke-width:0.5;" width="387" x="23.5" y="1152"/><line style="stroke:#181818;stroke-width:0.5;" x1="23.5" x2="410.5" y1="1178.2969" y2="1178.2969"/><text fill="#000000" font-family="sans-serif" font-size="14" lengthAdjust="spacing" textLength="125" x="154.5" y="1169.9951">Powerdown qemu</text><text fill="#000000" font-family="sans-serif" font-size="12" lengthAdjust="spacing" textLength="367" x="28.5" y="1194.4355">entry/suspend Stop, send powerdown to qemu, start timer</text></g><g id="Terminating.terminateProcesses"><rect fill="#F1F1F1" height="50" rx="12.5" ry="12.5" style="stroke:#181818;stroke-width:0.5;" width="198" x="235" y="1294"/><line style="stroke:#181818;stroke-width:0.5;" x1="235" x2="433" y1="1320.2969" y2="1320.2969"/><text fill="#000000" font-family="sans-serif" font-size="14" lengthAdjust="spacing" textLength="178" x="245" y="1311.9951">Await process termination</text></g><text fill="#000000" font-family="sans-serif" font-size="14" lengthAdjust="spacing" textLength="58" x="304.5" y="1498.6982">stopped</text><ellipse cx="333.5" cy="1520" fill="#F1F1F1" rx="6" ry="6" style="stroke:#181818;stroke-width:1.5;"/><ellipse cx="334" cy="1614" fill="none" rx="10" ry="10" style="stroke:#181818;stroke-width:1.0;"/><ellipse cx="334.5" cy="1614.5" fill="#181818" rx="6" ry="6" style="stroke:none;stroke-width:1.0;"/><ellipse cx="469" cy="16" fill="#181818" rx="10" ry="10" style="stroke:none;stroke-width:1.0;"/><g id="Initializing"><rect fill="#F1F1F1" height="50" rx="12.5" ry="12.5" style="stroke:#181818;stroke-width:0.5;" width="86" x="426" y="87"/><line style="stroke:#181818;stroke-width:0.5;" x1="426" x2="512" y1="113.2969" y2="113.2969"/><text fill="#000000" font-family="sans-serif" font-size="14" lengthAdjust="spacing" textLength="66" x="436" y="104.9951">Initializing</text></g><g id="Running"><rect fill="#F1F1F1" height="50" rx="12.5" ry="12.5" style="stroke:#181818;stroke-width:0.5;" width="78" x="321" y="822"/><line style="stroke:#181818;stroke-width:0.5;" x1="321" x2="399" y1="848.2969" y2="848.2969"/><text fill="#000000" font-family="sans-serif" font-size="14" lengthAdjust="spacing" textLength="58" x="331" y="839.9951">Running</text></g><!--link *start* to Initializing--><g id="link_*start*_Initializing"><path d="M469,26.01 C469,38.7 469,62.41 469,81.57 " fill="none" id="*start*-to-Initializing" style="stroke:#181818;stroke-width:1.0;"/><polygon fill="#181818" points="469,86.84,473,77.84,469,81.84,465,77.84,469,86.84" style="stroke:#181818;stroke-width:1.0;"/></g><!--link Initializing to Initializing--><g id="link_Initializing_Initializing"><path d="M512.31,107 C531,106.59 547,108.26 547,112 C547,115.39 533.86,117.08 517.49,117.06 " fill="none" id="Initializing-to-Initializing" style="stroke:#181818;stroke-width:1.0;"/><polygon fill="#181818" points="512.31,117,521.2637,121.1026,517.3097,117.0571,521.3551,113.1031,512.31,117" style="stroke:#181818;stroke-width:1.0;"/><text fill="#000000" font-family="sans-serif" font-size="13" lengthAdjust="spacing" textLength="230" x="553" y="116.5669">InitialConfiguration/configure Runner</text></g><!--link Initializing to Initializing--><g id="link_Initializing_Initializing"><path d="M512.19,105.85 C602.17,98.97 789,101.02 789,112 C789,122.78 609.04,124.95 517.3,118.52 " fill="none" id="Initializing-to-Initializing-1" style="stroke:#181818;stroke-width:1.0;"/><polygon fill="#181818" points="512.19,118.15,520.868,122.8076,517.1762,118.5215,521.4623,114.8297,512.19,118.15" style="stroke:#181818;stroke-width:1.0;"/><text fill="#000000" font-family="sans-serif" font-size="13" lengthAdjust="spacing" textLength="115" x="795" y="116.5669">Start/start Runner</text></g><!--link which to swtpm--><g id="link_which_swtpm"><path d="M461.56,260.25 C438.66,273.34 367.93,313.75 319.91,341.19 " fill="none" id="which-to-swtpm" style="stroke:#181818;stroke-width:1.0;"/><polygon fill="#181818" points="315.34,343.81,325.1366,342.7969,319.6759,341.3201,321.1527,335.8594,315.34,343.81" style="stroke:#181818;stroke-width:1.0;"/><text fill="#000000" font-family="sans-serif" font-size="13" lengthAdjust="spacing" textLength="79" x="395" y="310.0669">[use swtpm]</text></g><!--link which to qemu--><g id="link_which_qemu"><path d="M475.45,260.64 C478.33,262.65 481.79,265.01 485,267 C528.01,293.7 578.41,321.56 615.09,341.24 " fill="none" id="which-to-qemu" style="stroke:#181818;stroke-width:1.0;"/><polygon fill="#181818" points="619.94,343.84,613.8851,336.0722,615.5294,341.4848,610.1168,343.1292,619.94,343.84" style="stroke:#181818;stroke-width:1.0;"/><text fill="#000000" font-family="sans-serif" font-size="13" lengthAdjust="spacing" textLength="36" x="564" y="310.0669">[else]</text></g><!--link swtpm to qemu--><g id="link_swtpm_qemu"><path d="M338.34,369 C410.27,369 525.38,369 598.26,369 " fill="none" id="swtpm-to-qemu" style="stroke:#181818;stroke-width:1.0;"/><polygon fill="#181818" points="603.43,369,594.43,365,598.43,369,594.43,373,603.43,369" style="stroke:#181818;stroke-width:1.0;"/><text fill="#000000" font-family="sans-serif" font-size="13" lengthAdjust="spacing" textLength="229" x="356.25" y="362.0669">FileChanged[swtpm socket created]</text></g><!--link qemu to monitor--><g id="link_qemu_monitor"><path d="M603.33,380.2 C573.89,387.86 540.24,401.13 517,424 C505.7,435.12 499.06,451.46 495.19,465.66 " fill="none" id="qemu-to-monitor" style="stroke:#181818;stroke-width:1.0;"/><polygon fill="#181818" points="493.89,470.78,500.0017,463.0568,495.1329,465.9369,492.2528,461.0682,493.89,470.78" style="stroke:#181818;stroke-width:1.0;"/><text fill="#000000" font-family="sans-serif" font-size="13" lengthAdjust="spacing" textLength="237" x="518" y="437.0669">FileChanged[monitor socket created]</text></g><!--link monitor to configure--><g id="link_monitor_configure"><path d="M505.81,521.1 C519.42,541.85 539.08,571.82 553.44,593.71 " fill="none" id="monitor-to-configure" style="stroke:#181818;stroke-width:1.0;"/><polygon fill="#181818" points="556.24,597.97,554.6528,588.2499,553.4995,593.7879,547.9615,592.6346,556.24,597.97" style="stroke:#181818;stroke-width:1.0;"/><text fill="#000000" font-family="sans-serif" font-size="13" lengthAdjust="spacing" textLength="186" x="536" y="564.0669">ClientConnected[for monitor]</text></g><!--link monitor to error--><g id="link_monitor_error"><path d="M376.27,519.64 C332.54,534.4 286.74,558.57 260,598 C231.29,640.35 245.26,706.95 252.04,732.01 " fill="none" id="monitor-to-error" style="stroke:#181818;stroke-width:1.0;"/><polygon fill="#181818" points="253.44,736.96,254.848,727.2123,252.0834,732.1476,247.1481,729.3829,253.44,736.96" style="stroke:#181818;stroke-width:1.0;"/><text fill="#000000" font-family="sans-serif" font-size="13" lengthAdjust="spacing" textLength="165" x="261" y="627.5669">ConnectError[for monitor]</text></g><!--link configure to success--><g id="link_configure_success"><path d="M498.64,648.08 C479.96,653.74 459.84,659.45 441,664 C423.88,668.13 374.61,664.76 363,678 C349.92,692.91 353.61,718.1 357.05,732.02 " fill="none" id="configure-to-success" style="stroke:#181818;stroke-width:1.0;"/><polygon fill="#181818" points="358.37,736.91,359.8927,727.1796,357.0701,732.0819,352.1678,729.2594,358.37,736.91" style="stroke:#181818;stroke-width:1.0;"/><text fill="#000000" font-family="sans-serif" font-size="13" lengthAdjust="spacing" textLength="391" x="364" y="691.0669">RunnerConfigurationUpdate (last handler)/fire cont command</text></g><!--link Initializing to which--><g id="link_Initializing_which"><path d="M469,137.24 C469,165.93 469,212.94 469,237.65 " fill="none" id="Initializing-to-which" style="stroke:#181818;stroke-width:1.0;"/><polygon fill="#181818" points="469,242.85,473,233.85,469,237.85,465,233.85,469,242.85" style="stroke:#181818;stroke-width:1.0;"/><text fill="#000000" font-family="sans-serif" font-size="13" lengthAdjust="spacing" textLength="48" x="470" y="180.0669">Started</text></g><!--link success to Running--><g id="link_success_Running"><path d="M360,749.2 C360,761.43 360,792.77 360,816.51 " fill="none" id="success-to-Running" style="stroke:#181818;stroke-width:1.0;"/><polygon fill="#181818" points="360,821.75,364,812.75,360,816.75,356,812.75,360,821.75" style="stroke:#181818;stroke-width:1.0;"/></g><!--link terminate to qemuRunning--><g id="link_terminate_qemuRunning"><path d="M378,973.05 C378,986.55 378,1023.91 378,1045.67 " fill="none" id="terminate-to-qemuRunning" style="stroke:#181818;stroke-width:1.0;"/><polygon fill="#181818" points="378,1050.85,382,1041.85,378,1045.85,374,1041.85,378,1050.85" style="stroke:#181818;stroke-width:1.0;"/></g><!--link qemuRunning to qemuPowerdown--><g id="link_qemuRunning_qemuPowerdown"><path d="M371.49,1068.53 C352.3,1081.88 294.88,1121.82 255.72,1149.07 " fill="none" id="qemuRunning-to-qemuPowerdown" style="stroke:#181818;stroke-width:1.0;"/><polygon fill="#181818" points="251.51,1151.99,261.1852,1150.1489,255.6189,1149.141,256.6268,1143.5746,251.51,1151.99" style="stroke:#181818;stroke-width:1.0;"/><text fill="#000000" font-family="sans-serif" font-size="13" lengthAdjust="spacing" textLength="137" x="317" y="1118.0669">[qemu monitor open]</text></g><!--link qemuRunning to terminateProcesses--><g id="link_qemuRunning_terminateProcesses"><path d="M387.85,1065.36 C406.41,1068.52 446.19,1078.22 463,1105 C500.58,1164.85 502.15,1205.17 463,1264 C455.45,1275.34 445.02,1284.3 433.32,1291.39 " fill="none" id="qemuRunning-to-terminateProcesses" style="stroke:#181818;stroke-width:1.0;"/><polygon fill="#181818" points="428.96,1293.91,438.7541,1292.8726,433.2897,1291.4093,434.753,1285.945,428.96,1293.91" style="stroke:#181818;stroke-width:1.0;"/><text fill="#000000" font-family="sans-serif" font-size="13" lengthAdjust="spacing" textLength="36" x="492" y="1181.5669">[else]</text></g><!--link qemuPowerdown to terminateProcesses--><g id="link_qemuPowerdown_terminateProcesses"><path d="M120.71,1202.02 C82.36,1216.28 51.97,1236.92 74,1264 C93.81,1288.35 166.11,1302.07 229.45,1309.59 " fill="none" id="qemuPowerdown-to-terminateProcesses" style="stroke:#181818;stroke-width:1.0;"/><polygon fill="#181818" points="234.77,1310.2,226.2998,1305.1744,229.8043,1309.615,225.3638,1313.1195,234.77,1310.2" style="stroke:#181818;stroke-width:1.0;"/><text fill="#000000" font-family="sans-serif" font-size="13" lengthAdjust="spacing" textLength="215" x="75" y="1245.0669">Closed[for monitor]/resume Stop,</text><text fill="#000000" font-family="sans-serif" font-size="13" lengthAdjust="spacing" textLength="81" x="142" y="1260.1997">cancel Timer</text></g><!--link qemuPowerdown to terminateProcesses--><g id="link_qemuPowerdown_terminateProcesses"><path d="M260.47,1202.04 C272.76,1210.34 285.4,1220.49 295,1232 C308.92,1248.68 318.88,1271.14 325.25,1288.93 " fill="none" id="qemuPowerdown-to-terminateProcesses-1" style="stroke:#181818;stroke-width:1.0;"/><polygon fill="#181818" points="326.95,1293.81,327.7655,1283.995,325.3046,1289.0885,320.2111,1286.6276,326.95,1293.81" style="stroke:#181818;stroke-width:1.0;"/><text fill="#000000" font-family="sans-serif" font-size="13" lengthAdjust="spacing" textLength="139" x="315" y="1252.5669">Timeout/resume Stop</text></g><!--link terminateProcesses to terminated--><g id="link_terminateProcesses_terminated"><path d="M334,1344.17 C334,1365.58 334,1395.8 334,1411.54 " fill="none" id="terminateProcesses-to-terminated" style="stroke:#181818;stroke-width:1.0;"/><polygon fill="#181818" points="334,1416.65,338,1407.65,334,1411.65,330,1407.65,334,1416.65" style="stroke:#181818;stroke-width:1.0;"/></g><!--link Running to terminate--><g id="link_Running_terminate"><path d="M345.16,872.22 C338.58,886.05 333.46,903.64 339,919 C344.67,934.71 358.12,948.88 367.64,957.46 " fill="none" id="Running-to-terminate" style="stroke:#181818;stroke-width:1.0;"/><polygon fill="#181818" points="371.44,960.78,367.2816,951.8521,367.67,957.4956,362.0265,957.884,371.44,960.78" style="stroke:#181818;stroke-width:1.0;"/><text fill="#000000" font-family="sans-serif" font-size="13" lengthAdjust="spacing" textLength="30" x="340" y="915.0669">Stop</text></g><!--link Running to terminate--><g id="link_Running_terminate"><path d="M367.97,872.21 C370.68,881.43 373.41,892.1 375,902 C378.02,920.86 378.34,943.21 378.22,955.89 " fill="none" id="Running-to-terminate-1" style="stroke:#181818;stroke-width:1.0;"/><polygon fill="#181818" points="378.14,960.98,382.2682,952.0381,378.2114,955.9805,374.269,951.9238,378.14,960.98" style="stroke:#181818;stroke-width:1.0;"/><text fill="#000000" font-family="sans-serif" font-size="13" lengthAdjust="spacing" textLength="190" x="377" y="915.0669">ProcessExited[process qemu]</text></g><!--link error to terminate--><g id="link_error_terminate"><path d="M256.13,749.05 C261.24,771.08 283.91,860.3 328,919 C339.62,934.47 356.63,949.23 367.5,957.96 " fill="none" id="error-to-terminate" style="stroke:#181818;stroke-width:1.0;"/><polygon fill="#181818" points="371.48,961.1,366.908,952.3766,367.5604,957.9958,361.9412,958.6481,371.48,961.1" style="stroke:#181818;stroke-width:1.0;"/></g><!--link StartingProcess to terminate--><g id="link_StartingProcess_terminate"><path d="M761.1665,287.0597 C761.2371,287.2157 761.3078,287.3721 761.3785,287.529 C761.6614,288.1564 761.9449,288.7905 762.2288,289.4313 C762.7966,290.7127 763.3661,292.0205 763.935,293.3525 C773.0375,314.665 782,342.2 782,368 C782,368 782,368 782,848 C782,932.41 452.98,960.57 388.78,965.26 " fill="none" id="StartingProcess-to-terminate" style="stroke:#181818;stroke-width:1.0;"/><polygon fill="#181818" points="383.71,965.62,392.9728,968.9667,388.6972,965.2627,392.4012,960.9872,383.71,965.62" style="stroke:#181818;stroke-width:1.0;"/><text fill="#000000" font-family="sans-serif" font-size="13" lengthAdjust="spacing" textLength="89" x="783" y="627.5669">ProcessExited</text></g><!--link stopped to *end*Stopped--><g id="link_stopped_*end*Stopped"><path d="M334,1526.21 C334,1540.03 334,1577.97 334,1598.82 " fill="none" id="stopped-to-*end*Stopped" style="stroke:#181818;stroke-width:1.0;"/><polygon fill="#181818" points="334,1603.97,338,1594.97,334,1598.97,330,1594.97,334,1603.97" style="stroke:#181818;stroke-width:1.0;"/></g><!--link terminated to stopped--><g id="link_terminated_stopped"><path d="M334,1429.11 C334,1444.12 334,1488.32 334,1508.61 " fill="none" id="terminated-to-stopped" style="stroke:#181818;stroke-width:1.0;"/><polygon fill="#181818" points="334,1513.87,338,1504.87,334,1508.87,330,1504.87,334,1513.87" style="stroke:#181818;stroke-width:1.0;"/></g><!--SRC=[ZLLDRzim3BtdLn0vjKMBt8qWm11qm4uDrkwK-M3OJ2BCbbn9HhOL- -yZzHNBTRhr44ZYuwD8lUVkxqfuUDZ05ocig5hnMyZZ8jl195h4tLR9WpWEkh92oLKTTWXV1obH_ulasLRQhWp_fem5qDuYB5sGqsvsMjLe39hR9LG6OY0SmnidyPzFF9z4VOBrkZufKUDcCuvvKZ1dstUEowrc4A_O3Gx0Yop-rAE4Jb4VIZj4M6UWE1PqY3IMCSOCjRlzUeq_XTqf8Mr-LzHQwRbmwDRtoU_ccYXWFnZqwtAAu2u8WAt1CatBPw6q-bTuW_4qU0afzRDeSNkgv16RlGyPLVz02xL6kcoJM3ryJ7gP8A_STSB88EUDfnDcYDGX7jaFWdJ6h_7iy3HoYJNBC4ExUka12jYsWj83c8eU21AWvIHnuv-0SZpwaNSp2VvtL6DqFw_gp2NV-eRwcYJvT_IIAAvdmKrR6GiqiAP5VUjh40bDItKTdIxW3uyhjnrHEoa4ms7ZN1Rqnr6kvpmVpVU2kXEoSlPx6ulIXW2oCBdD6U7oCmV6ApPCBCrr-IztweowKMUPcp4TP-1FvqfOwCCN8VBJt5nUgfU-955JbtwYJT8iec9ZAn6GBb3idQ2ZNXH9iPnFUr-_oBsOyqRx38Oe6teqrT-3uMMVPcALIxe7Rp8hEjHZEMQCrov1Rb1cOeALHZDqwAj-btKbQspXvSB_VyoSe0OxPfjCF85pZYZXsVaLWUXAC50-agAegwW6lZ1DsdzFiup5k_yb7n5UxC6Nw4cycJLCE9mQ8s9yb0lixyhGvCW8xWFWGNy1]--></g></svg>