<?xml version="1.0" encoding="us-ascii" standalone="no"?><svg xmlns="http://www.w3.org/2000/svg" xmlns:xlink="http://www.w3.org/1999/xlink" contentStyleType="text/css" height="1953px" preserveAspectRatio="none" style="width:900px;height:1953px;background:#FFFFFF;" version="1.1" viewBox="0 0 900 1953" width="900px" zoomAndPan="magnify"><defs/><g><!--cluster StartingProcess--><g id="cluster_StartingProcess"><path d="M226.5,200 L748.5,200 A12.5,12.5 0 0 1 761,212.5 L761,221.2969 L214,221.2969 L214,212.5 A12.5,12.5 0 0 1 226.5,200 " fill="#F1F1F1" style="stroke:#F1F1F1;stroke-width:1.0;"/><rect fill="none" height="850" rx="12.5" ry="12.5" style="stroke:#181818;stroke-width:0.5;" width="547" x="214" y="200"/><line style="stroke:#181818;stroke-width:0.5;" x1="214" x2="761" y1="221.2969" y2="221.2969"/><text fill="#000000" font-family="sans-serif" font-size="14" lengthAdjust="spacing" textLength="140" x="417.5" y="217.9951">Starting (Processes)</text></g><!--cluster Terminating--><g id="cluster_Terminating"><path d="M19.5,1274 L522.5,1274 A12.5,12.5 0 0 1 535,1286.5 L535,1295.2969 L7,1295.2969 L7,1286.5 A12.5,12.5 0 0 1 19.5,1274 " fill="#F1F1F1" style="stroke:#F1F1F1;stroke-width:1.0;"/><rect fill="none" height="456" rx="12.5" ry="12.5" style="stroke:#181818;stroke-width:0.5;" width="528" x="7" y="1274"/><line style="stroke:#181818;stroke-width:0.5;" x1="7" x2="535" y1="1295.2969" y2="1295.2969"/><text fill="#000000" font-family="sans-serif" font-size="14" lengthAdjust="spacing" textLength="82" x="230" y="1291.9951">Terminating</text></g><!--cluster Stopped--><g id="cluster_Stopped"><path d="M300.5,1827 L366.5,1827 A12.5,12.5 0 0 1 379,1839.5 L379,1848.2969 L288,1848.2969 L288,1839.5 A12.5,12.5 0 0 1 300.5,1827 " fill="#F1F1F1" style="stroke:#F1F1F1;stroke-width:1.0;"/><rect fill="none" height="120" rx="12.5" ry="12.5" style="stroke:#181818;stroke-width:0.5;" width="91" x="288" y="1827"/><line style="stroke:#181818;stroke-width:0.5;" x1="288" x2="379" y1="1848.2969" y2="1848.2969"/><text fill="#000000" font-family="sans-serif" font-size="14" lengthAdjust="spacing" textLength="59" x="304" y="1844.9951">Stopped</text></g><g id="StartingProcess.qemu"><rect fill="#F1F1F1" height="50.2656" rx="12.5" ry="12.5" style="stroke:#181818;stroke-width:0.5;" width="125" x="304.5" y="524"/><line style="stroke:#181818;stroke-width:0.5;" x1="304.5" x2="429.5" y1="550.2969" y2="550.2969"/><text fill="#000000" font-family="sans-serif" font-size="14" lengthAdjust="spacing" textLength="76" x="329" y="541.9951">Start qemu</text><text fill="#000000" font-family="sans-serif" font-size="12" lengthAdjust="spacing" textLength="105" x="309.5" y="566.4355">entry/start qemu</text></g><g id="StartingProcess.monitor"><rect fill="#F1F1F1" height="50.2656" rx="12.5" ry="12.5" style="stroke:#181818;stroke-width:0.5;" width="227" x="253.5" y="651"/><line style="stroke:#181818;stroke-width:0.5;" x1="253.5" x2="480.5" y1="677.2969" y2="677.2969"/><text fill="#000000" font-family="sans-serif" font-size="14" lengthAdjust="spacing" textLength="95" x="319.5" y="668.9951">Open monitor</text><text fill="#000000" font-family="sans-serif" font-size="12" lengthAdjust="spacing" textLength="207" x="258.5" y="693.4355">entry/fire OpenSocketConnection</text></g><g id="StartingProcess.waitForConfigured"><rect fill="#F1F1F1" height="50.2656" rx="12.5" ry="12.5" style="stroke:#181818;stroke-width:0.5;" width="180" x="335" y="778"/><line style="stroke:#181818;stroke-width:0.5;" x1="335" x2="515" y1="804.2969" y2="804.2969"/><text fill="#000000" font-family="sans-serif" font-size="14" lengthAdjust="spacing" textLength="103" x="373.5" y="795.9951">Configure QMP</text><text fill="#000000" font-family="sans-serif" font-size="12" lengthAdjust="spacing" textLength="160" x="340" y="820.4355">entry/fire QmpCapabilities</text></g><g id="StartingProcess.configure"><rect fill="#F1F1F1" height="50.2656" rx="12.5" ry="12.5" style="stroke:#181818;stroke-width:0.5;" width="255" x="316.5" y="905"/><line style="stroke:#181818;stroke-width:0.5;" x1="316.5" x2="571.5" y1="931.2969" y2="931.2969"/><text fill="#000000" font-family="sans-serif" font-size="14" lengthAdjust="spacing" textLength="113" x="387.5" y="922.9951">Configure QEMU</text><text fill="#000000" font-family="sans-serif" font-size="12" lengthAdjust="spacing" textLength="235" x="321.5" y="947.4355">entry/fire RunnerConfigurationUpdate</text></g><text fill="#000000" font-family="sans-serif" font-size="14" lengthAdjust="spacing" textLength="58" x="330.5" y="1068.9951">success</text><ellipse cx="359.5" cy="1050" fill="#F1F1F1" rx="6" ry="6" style="stroke:#181818;stroke-width:1.5;"/><line style="stroke:#181818;stroke-width:1.5;" x1="363.8891" x2="356.1109" y1="1054.3891" y2="1046.6109"/><line style="stroke:#181818;stroke-width:1.5;" x1="363.8891" x2="356.1109" y1="1046.6109" y2="1054.3891"/><text fill="#000000" font-family="sans-serif" font-size="14" lengthAdjust="spacing" textLength="33" x="247.5" y="1068.9951">error</text><ellipse cx="264" cy="1050" fill="#F1F1F1" rx="6" ry="6" style="stroke:#181818;stroke-width:1.5;"/><line style="stroke:#181818;stroke-width:1.5;" x1="268.3891" x2="260.6109" y1="1054.3891" y2="1046.6109"/><line style="stroke:#181818;stroke-width:1.5;" x1="268.3891" x2="260.6109" y1="1046.6109" y2="1054.3891"/><rect fill="#555555" height="8" style="stroke:none;stroke-width:1.0;" width="80" x="406" y="243"/><rect fill="#555555" height="8" style="stroke:none;stroke-width:1.0;" width="80" x="327" y="455"/><g id="StartingProcess.cloudInit"><rect fill="#F1F1F1" height="50.2656" rx="12.5" ry="12.5" style="stroke:#181818;stroke-width:0.5;" width="217" x="346.5" y="328"/><line style="stroke:#181818;stroke-width:0.5;" x1="346.5" x2="563.5" y1="354.2969" y2="354.2969"/><text fill="#000000" font-family="sans-serif" font-size="14" lengthAdjust="spacing" textLength="178" x="366" y="345.9951">Generate cloud-init image</text><text fill="#000000" font-family="sans-serif" font-size="12" lengthAdjust="spacing" textLength="197" x="351.5" y="370.4355">entry/generate cloud-init image</text></g><g id="StartingProcess.swtpm"><rect fill="#F1F1F1" height="50.2656" rx="12.5" ry="12.5" style="stroke:#181818;stroke-width:0.5;" width="130" x="599" y="328"/><line style="stroke:#181818;stroke-width:0.5;" x1="599" x2="729" y1="354.2969" y2="354.2969"/><text fill="#000000" font-family="sans-serif" font-size="14" lengthAdjust="spacing" textLength="82" x="623" y="345.9951">Start swtpm</text><text fill="#000000" font-family="sans-serif" font-size="12" lengthAdjust="spacing" textLength="110" x="604" y="370.4355">entry/start swtpm</text></g><text fill="#000000" font-family="sans-serif" font-size="14" lengthAdjust="spacing" textLength="66" x="344.5" y="1252.6982">terminate</text><ellipse cx="377.5" cy="1274" fill="#F1F1F1" rx="6" ry="6" style="stroke:#181818;stroke-width:1.5;"/><g id="elem_qemuRunning"><polygon fill="#F1F1F1" points="378,1358,390,1370,378,1382,366,1370,378,1358" style="stroke:#181818;stroke-width:0.5;"/></g><text fill="#000000" font-family="sans-serif" font-size="14" lengthAdjust="spacing" textLength="75" x="296.5" y="1748.9951">terminated</text><ellipse cx="334" cy="1730" fill="#F1F1F1" rx="6" ry="6" style="stroke:#181818;stroke-width:1.5;"/><line style="stroke:#181818;stroke-width:1.5;" x1="338.3891" x2="330.6109" y1="1734.3891" y2="1726.6109"/><line style="stroke:#181818;stroke-width:1.5;" x1="338.3891" x2="330.6109" y1="1726.6109" y2="1734.3891"/><g id="Terminating.qemuPowerdown"><rect fill="#F1F1F1" height="50.2656" rx="12.5" ry="12.5" style="stroke:#181818;stroke-width:0.5;" width="387" x="23.5" y="1459"/><line style="stroke:#181818;stroke-width:0.5;" x1="23.5" x2="410.5" y1="1485.2969" y2="1485.2969"/><text fill="#000000" font-family="sans-serif" font-size="14" lengthAdjust="spacing" textLength="125" x="154.5" y="1476.9951">Powerdown qemu</text><text fill="#000000" font-family="sans-serif" font-size="12" lengthAdjust="spacing" textLength="367" x="28.5" y="1501.4355">entry/suspend Stop, send powerdown to qemu, start timer</text></g><g id="Terminating.terminateProcesses"><rect fill="#F1F1F1" height="50" rx="12.5" ry="12.5" style="stroke:#181818;stroke-width:0.5;" width="198" x="235" y="1601"/><line style="stroke:#181818;stroke-width:0.5;" x1="235" x2="433" y1="1627.2969" y2="1627.2969"/><text fill="#000000" font-family="sans-serif" font-size="14" lengthAdjust="spacing" textLength="178" x="245" y="1618.9951">Await process termination</text></g><text fill="#000000" font-family="sans-serif" font-size="14" lengthAdjust="spacing" textLength="58" x="304.5" y="1805.6982">stopped</text><ellipse cx="333.5" cy="1827" fill="#F1F1F1" rx="6" ry="6" style="stroke:#181818;stroke-width:1.5;"/><ellipse cx="334" cy="1921" fill="none" rx="10" ry="10" style="stroke:#181818;stroke-width:1.0;"/><ellipse cx="334.5" cy="1921.5" fill="#181818" rx="6" ry="6" style="stroke:none;stroke-width:1.0;"/><ellipse cx="446" cy="16" fill="#181818" rx="10" ry="10" style="stroke:none;stroke-width:1.0;"/><g id="Initializing"><rect fill="#F1F1F1" height="50" rx="12.5" ry="12.5" style="stroke:#181818;stroke-width:0.5;" width="86" x="403" y="87"/><line style="stroke:#181818;stroke-width:0.5;" x1="403" x2="489" y1="113.2969" y2="113.2969"/><text fill="#000000" font-family="sans-serif" font-size="14" lengthAdjust="spacing" textLength="66" x="413" y="104.9951">Initializing</text></g><g id="Running"><rect fill="#F1F1F1" height="50" rx="12.5" ry="12.5" style="stroke:#181818;stroke-width:0.5;" width="78" x="321" y="1129"/><line style="stroke:#181818;stroke-width:0.5;" x1="321" x2="399" y1="1155.2969" y2="1155.2969"/><text fill="#000000" font-family="sans-serif" font-size="14" lengthAdjust="spacing" textLength="58" x="331" y="1146.9951">Running</text></g><!--link *start* to Initializing--><g id="link_*start*_Initializing"><path d="M446,26.01 C446,38.7 446,62.41 446,81.57 " fill="none" id="*start*-to-Initializing" style="stroke:#181818;stroke-width:1.0;"/><polygon fill="#181818" points="446,86.84,450,77.84,446,81.84,442,77.84,446,86.84" style="stroke:#181818;stroke-width:1.0;"/></g><!--link Initializing to Initializing--><g id="link_Initializing_Initializing"><path d="M489.31,107 C508,106.59 524,108.26 524,112 C524,115.39 510.86,117.08 494.49,117.06 " fill="none" id="Initializing-to-Initializing" style="stroke:#181818;stroke-width:1.0;"/><polygon fill="#181818" points="489.31,117,498.2637,121.1026,494.3097,117.0571,498.3551,113.1031,489.31,117" style="stroke:#181818;stroke-width:1.0;"/><text fill="#000000" font-family="sans-serif" font-size="13" lengthAdjust="spacing" textLength="230" x="530" y="116.5669">InitialConfiguration/configure Runner</text></g><!--link Initializing to Initializing--><g id="link_Initializing_Initializing"><path d="M489.19,105.85 C579.17,98.97 766,101.02 766,112 C766,122.78 586.04,124.95 494.3,118.52 " fill="none" id="Initializing-to-Initializing-1" style="stroke:#181818;stroke-width:1.0;"/><polygon fill="#181818" points="489.19,118.15,497.868,122.8076,494.1762,118.5215,498.4623,114.8297,489.19,118.15" style="stroke:#181818;stroke-width:1.0;"/><text fill="#000000" font-family="sans-serif" font-size="13" lengthAdjust="spacing" textLength="115" x="772" y="116.5669">Start/start Runner</text></g><!--link prepFork to cloudInit--><g id="link_prepFork_cloudInit"><path d="M445.63,251.09 C444.94,256.92 443.5,269.97 443,281 C442.66,288.55 442.18,290.49 443,298 C443.9,306.22 445.56,315.02 447.35,323.08 " fill="none" id="prepFork-to-cloudInit" style="stroke:#181818;stroke-width:1.0;"/><polygon fill="#181818" points="448.48,328,450.3455,318.3294,447.3515,323.129,442.552,320.135,448.48,328" style="stroke:#181818;stroke-width:1.0;"/><text fill="#000000" font-family="sans-serif" font-size="13" lengthAdjust="spacing" textLength="160" x="444" y="294.0669">[cloud-init data provided]</text></g><!--link swtpm to prepJoin--><g id="link_swtpm_prepJoin"><path d="M598.82,376.82 C527.86,401.67 419.37,439.66 381.02,453.09 " fill="none" id="swtpm-to-prepJoin" style="stroke:#181818;stroke-width:1.0;"/><polygon fill="#181818" points="375.89,454.89,385.7043,455.7148,380.6131,453.2491,383.0788,448.1579,375.89,454.89" style="stroke:#181818;stroke-width:1.0;"/><text fill="#000000" font-family="sans-serif" font-size="13" lengthAdjust="spacing" textLength="229" x="507" y="421.0669">FileChanged[swtpm socket created]</text></g><!--link prepFork to swtpm--><g id="link_prepFork_swtpm"><path d="M472.07,251.04 C512.1,256.07 586.43,266.99 609,281 C625.57,291.29 639.07,308.47 648.55,323.35 " fill="none" id="prepFork-to-swtpm" style="stroke:#181818;stroke-width:1.0;"/><polygon fill="#181818" points="651.37,327.89,650.0452,318.1307,648.7431,323.6356,643.2382,322.3336,651.37,327.89" style="stroke:#181818;stroke-width:1.0;"/><text fill="#000000" font-family="sans-serif" font-size="13" lengthAdjust="spacing" textLength="79" x="628" y="294.0669">[use swtpm]</text></g><!--link cloudInit to prepJoin--><g id="link_cloudInit_prepJoin"><path d="M394.01,378.25 C382.02,385.92 371,395.71 364,408 C356.52,421.13 360.58,439.48 363.96,449.91 " fill="none" id="cloudInit-to-prepJoin" style="stroke:#181818;stroke-width:1.0;"/><polygon fill="#181818" points="365.69,454.8,366.479,444.9828,364.0319,450.0829,358.9317,447.6358,365.69,454.8" style="stroke:#181818;stroke-width:1.0;"/><text fill="#000000" font-family="sans-serif" font-size="13" lengthAdjust="spacing" textLength="89" x="365" y="421.0669">ProcessExited</text></g><!--link prepFork to prepJoin--><g id="link_prepFork_prepJoin"><path d="M428.25,251.03 C394.44,257.86 321.49,277.96 291,328 C262.19,375.29 333.09,433.32 358.42,451.95 " fill="none" id="prepFork-to-prepJoin" style="stroke:#181818;stroke-width:1.0;"/><polygon fill="#181818" points="362.58,454.95,357.6379,446.4309,358.5308,452.0168,352.9448,452.9096,362.58,454.95" style="stroke:#181818;stroke-width:1.0;"/><text fill="#000000" font-family="sans-serif" font-size="13" lengthAdjust="spacing" textLength="36" x="292" y="357.5669">[else]</text></g><!--link prepJoin to qemu--><g id="link_prepJoin_qemu"><path d="M367,463.34 C367,472.37 367,497.97 367,518.68 " fill="none" id="prepJoin-to-qemu" style="stroke:#181818;stroke-width:1.0;"/><polygon fill="#181818" points="367,523.82,371,514.82,367,518.82,363,514.82,367,523.82" style="stroke:#181818;stroke-width:1.0;"/></g><!--link qemu to monitor--><g id="link_qemu_monitor"><path d="M367,574.1 C367,594.59 367,624.08 367,645.88 " fill="none" id="qemu-to-monitor" style="stroke:#181818;stroke-width:1.0;"/><polygon fill="#181818" points="367,650.97,371,641.97,367,645.97,363,641.97,367,650.97" style="stroke:#181818;stroke-width:1.0;"/><text fill="#000000" font-family="sans-serif" font-size="13" lengthAdjust="spacing" textLength="237" x="368" y="617.0669">FileChanged[monitor socket created]</text></g><!--link monitor to waitForConfigured--><g id="link_monitor_waitForConfigured"><path d="M378.18,701.1 C387.77,721.77 401.6,751.57 411.75,773.43 " fill="none" id="monitor-to-waitForConfigured" style="stroke:#181818;stroke-width:1.0;"/><polygon fill="#181818" points="413.85,777.97,413.6926,768.1224,411.7465,773.434,406.435,771.4879,413.85,777.97" style="stroke:#181818;stroke-width:1.0;"/><text fill="#000000" font-family="sans-serif" font-size="13" lengthAdjust="spacing" textLength="186" x="400" y="744.0669">ClientConnected[for monitor]</text></g><!--link monitor to error--><g id="link_monitor_error"><path d="M346.56,701.04 C320.07,733.93 275.23,795.97 258,858 C239.43,924.83 255.19,1009.89 261.6,1038.83 " fill="none" id="monitor-to-error" style="stroke:#181818;stroke-width:1.0;"/><polygon fill="#181818" points="262.74,1043.85,264.6655,1034.1912,261.6418,1038.9721,256.8609,1035.9484,262.74,1043.85" style="stroke:#181818;stroke-width:1.0;"/><text fill="#000000" font-family="sans-serif" font-size="13" lengthAdjust="spacing" textLength="165" x="259" y="871.0669">ConnectError[for monitor]</text></g><!--link waitForConfigured to configure--><g id="link_waitForConfigured_configure"><path d="M428.66,828.1 C431.78,848.59 436.26,878.08 439.57,899.88 " fill="none" id="waitForConfigured-to-configure" style="stroke:#181818;stroke-width:1.0;"/><polygon fill="#181818" points="440.35,904.97,442.968,895.4755,439.6069,900.0255,435.0568,896.6644,440.35,904.97" style="stroke:#181818;stroke-width:1.0;"/><text fill="#000000" font-family="sans-serif" font-size="13" lengthAdjust="spacing" textLength="100" x="436" y="871.0669">QmpConfigured</text></g><!--link configure to success--><g id="link_configure_success"><path d="M392.07,955.21 C380.59,963.06 369.82,972.94 363,985 C353.42,1001.94 355.53,1025.63 357.83,1038.92 " fill="none" id="configure-to-success" style="stroke:#181818;stroke-width:1.0;"/><polygon fill="#181818" points="358.8,1043.93,361.0325,1034.3375,357.8579,1039.0196,353.1758,1035.8449,358.8,1043.93" style="stroke:#181818;stroke-width:1.0;"/><text fill="#000000" font-family="sans-serif" font-size="13" lengthAdjust="spacing" textLength="391" x="364" y="998.0669">RunnerConfigurationUpdate (last handler)/fire cont command</text></g><!--link Initializing to prepFork--><g id="link_Initializing_prepFork"><path d="M446,137.09 C446,167.48 446,218.16 446,237.84 " fill="none" id="Initializing-to-prepFork" style="stroke:#181818;stroke-width:1.0;"/><polygon fill="#181818" points="446,242.89,450,233.89,446,237.89,442,233.89,446,242.89" style="stroke:#181818;stroke-width:1.0;"/><text fill="#000000" font-family="sans-serif" font-size="13" lengthAdjust="spacing" textLength="48" x="447" y="180.0669">Started</text></g><!--link success to Running--><g id="link_success_Running"><path d="M360,1056.2 C360,1068.43 360,1099.77 360,1123.51 " fill="none" id="success-to-Running" style="stroke:#181818;stroke-width:1.0;"/><polygon fill="#181818" points="360,1128.75,364,1119.75,360,1123.75,356,1119.75,360,1128.75" style="stroke:#181818;stroke-width:1.0;"/></g><!--link terminate to qemuRunning--><g id="link_terminate_qemuRunning"><path d="M378,1280.05 C378,1293.55 378,1330.91 378,1352.67 " fill="none" id="terminate-to-qemuRunning" style="stroke:#181818;stroke-width:1.0;"/><polygon fill="#181818" points="378,1357.85,382,1348.85,378,1352.85,374,1348.85,378,1357.85" style="stroke:#181818;stroke-width:1.0;"/></g><!--link qemuRunning to qemuPowerdown--><g id="link_qemuRunning_qemuPowerdown"><path d="M371.49,1375.53 C352.3,1388.88 294.88,1428.82 255.72,1456.07 " fill="none" id="qemuRunning-to-qemuPowerdown" style="stroke:#181818;stroke-width:1.0;"/><polygon fill="#181818" points="251.51,1458.99,261.1852,1457.1489,255.6189,1456.141,256.6268,1450.5746,251.51,1458.99" style="stroke:#181818;stroke-width:1.0;"/><text fill="#000000" font-family="sans-serif" font-size="13" lengthAdjust="spacing" textLength="137" x="317" y="1425.0669">[qemu monitor open]</text></g><!--link qemuRunning to terminateProcesses--><g id="link_qemuRunning_terminateProcesses"><path d="M387.85,1372.36 C406.41,1375.52 446.19,1385.22 463,1412 C500.58,1471.85 502.15,1512.17 463,1571 C455.45,1582.34 445.02,1591.3 433.32,1598.39 " fill="none" id="qemuRunning-to-terminateProcesses" style="stroke:#181818;stroke-width:1.0;"/><polygon fill="#181818" points="428.96,1600.91,438.7541,1599.8726,433.2897,1598.4093,434.753,1592.945,428.96,1600.91" style="stroke:#181818;stroke-width:1.0;"/><text fill="#000000" font-family="sans-serif" font-size="13" lengthAdjust="spacing" textLength="36" x="492" y="1488.5669">[else]</text></g><!--link qemuPowerdown to terminateProcesses--><g id="link_qemuPowerdown_terminateProcesses"><path d="M120.71,1509.02 C82.36,1523.28 51.97,1543.92 74,1571 C93.81,1595.35 166.11,1609.07 229.45,1616.59 " fill="none" id="qemuPowerdown-to-terminateProcesses" style="stroke:#181818;stroke-width:1.0;"/><polygon fill="#181818" points="234.77,1617.2,226.2998,1612.1744,229.8043,1616.615,225.3638,1620.1195,234.77,1617.2" style="stroke:#181818;stroke-width:1.0;"/><text fill="#000000" font-family="sans-serif" font-size="13" lengthAdjust="spacing" textLength="215" x="75" y="1552.0669">Closed[for monitor]/resume Stop,</text><text fill="#000000" font-family="sans-serif" font-size="13" lengthAdjust="spacing" textLength="81" x="142" y="1567.1997">cancel Timer</text></g><!--link qemuPowerdown to terminateProcesses--><g id="link_qemuPowerdown_terminateProcesses"><path d="M260.47,1509.04 C272.76,1517.34 285.4,1527.49 295,1539 C308.92,1555.68 318.88,1578.14 325.25,1595.93 " fill="none" id="qemuPowerdown-to-terminateProcesses-1" style="stroke:#181818;stroke-width:1.0;"/><polygon fill="#181818" points="326.95,1600.81,327.7655,1590.995,325.3046,1596.0885,320.2111,1593.6276,326.95,1600.81" style="stroke:#181818;stroke-width:1.0;"/><text fill="#000000" font-family="sans-serif" font-size="13" lengthAdjust="spacing" textLength="139" x="315" y="1559.5669">Timeout/resume Stop</text></g><!--link terminateProcesses to terminated--><g id="link_terminateProcesses_terminated"><path d="M334,1651.17 C334,1672.58 334,1702.8 334,1718.54 " fill="none" id="terminateProcesses-to-terminated" style="stroke:#181818;stroke-width:1.0;"/><polygon fill="#181818" points="334,1723.65,338,1714.65,334,1718.65,330,1714.65,334,1723.65" style="stroke:#181818;stroke-width:1.0;"/></g><!--link Running to terminate--><g id="link_Running_terminate"><path d="M345.16,1179.22 C338.58,1193.05 333.46,1210.64 339,1226 C344.67,1241.71 358.12,1255.88 367.64,1264.46 " fill="none" id="Running-to-terminate" style="stroke:#181818;stroke-width:1.0;"/><polygon fill="#181818" points="371.44,1267.78,367.2816,1258.8521,367.67,1264.4956,362.0265,1264.884,371.44,1267.78" style="stroke:#181818;stroke-width:1.0;"/><text fill="#000000" font-family="sans-serif" font-size="13" lengthAdjust="spacing" textLength="30" x="340" y="1222.0669">Stop</text></g><!--link Running to terminate--><g id="link_Running_terminate"><path d="M367.97,1179.21 C370.68,1188.43 373.41,1199.1 375,1209 C378.02,1227.86 378.34,1250.21 378.22,1262.89 " fill="none" id="Running-to-terminate-1" style="stroke:#181818;stroke-width:1.0;"/><polygon fill="#181818" points="378.14,1267.98,382.2682,1259.0381,378.2114,1262.9805,374.269,1258.9238,378.14,1267.98" style="stroke:#181818;stroke-width:1.0;"/><text fill="#000000" font-family="sans-serif" font-size="13" lengthAdjust="spacing" textLength="190" x="377" y="1222.0669">ProcessExited[process qemu]</text></g><!--link error to terminate--><g id="link_error_terminate"><path d="M264.76,1056.1 C268.27,1078.34 284.67,1168.32 328,1226 C339.62,1241.47 356.63,1256.23 367.5,1264.96 " fill="none" id="error-to-terminate" style="stroke:#181818;stroke-width:1.0;"/><polygon fill="#181818" points="371.48,1268.1,366.908,1259.3766,367.5604,1264.9958,361.9412,1265.6481,371.48,1268.1" style="stroke:#181818;stroke-width:1.0;"/></g><!--link StartingProcess to terminate--><g id="link_StartingProcess_terminate"><path d="M761.0157,276.4016 C762.1267,278.6664 763.2498,281.0313 764.3688,283.4825 C773.32,303.0925 782,328.235 782,352 C782,352 782,352 782,1155 C782,1239.41 452.98,1267.57 388.78,1272.26 " fill="none" id="StartingProcess-to-terminate" style="stroke:#181818;stroke-width:1.0;"/><polygon fill="#181818" points="383.71,1272.62,392.9728,1275.9667,388.6972,1272.2627,392.4012,1267.9872,383.71,1272.62" style="stroke:#181818;stroke-width:1.0;"/><text fill="#000000" font-family="sans-serif" font-size="13" lengthAdjust="spacing" textLength="89" x="783" y="744.0669">ProcessExited</text></g><!--link stopped to *end*Stopped--><g id="link_stopped_*end*Stopped"><path d="M334,1833.21 C334,1847.03 334,1884.97 334,1905.82 " fill="none" id="stopped-to-*end*Stopped" style="stroke:#181818;stroke-width:1.0;"/><polygon fill="#181818" points="334,1910.97,338,1901.97,334,1905.97,330,1901.97,334,1910.97" style="stroke:#181818;stroke-width:1.0;"/></g><!--link terminated to stopped--><g id="link_terminated_stopped"><path d="M334,1736.11 C334,1751.12 334,1795.32 334,1815.61 " fill="none" id="terminated-to-stopped" style="stroke:#181818;stroke-width:1.0;"/><polygon fill="#181818" points="334,1820.87,338,1811.87,334,1815.87,330,1811.87,334,1820.87" style="stroke:#181818;stroke-width:1.0;"/></g><!--SRC=[ZLPDRzim3BtdLmWvjSMAteqYm12qmmOKIzVsvENWsMogrPOyILws5Vll8_LboRMtzP18udiaHJqoBS_sxFnymzuBRdZLybzS75RPZasiHTXjfNZaXq5LXajnKViTi4-34A3-vUJELCfSQFgCZ1N3lG6sjaQYdUoKh45hqAThLcaM3FwOlH29_b8Y-mRTOE6qoEmVUn2iavY9L1RXrnbe6wzoUxEpg6F5pRLKqT0iuQzk7YmXLYC5wg6sILzUmWzkTf8Bizca051AgZbp2keLz9ZBC-8UyIltGCOFo4JZL_pAZUjtW6McLTtAeJddU7N6k-e0BcSwf4Tod1Y7v15j1IiJSbEP2e7oEs-WsVjOHzDtbXIIATWrRs7xL8a3DAMpQra_Ws6r0imdKjD7j3YRc5tD96NFCQ51Wrkd6HGCX54_lS8I5_4ganozfAwmzk5zarixPuUb0ivaDtekeTMmJryoFXC1Hv6wJzhdsOy8MbcIrotBQnjE9zLbeKkyFNX_vAXPQeaxYqST2wYfcpEqZVUg0mgsRJcwyIGCZceCbFt4mSP96paEVKMxdE0OCs6IL6-xVblrrHVUuYG1lK1nWWtRmh8cZUkVTyGaGTmmoeRRGuz2Xmd9IT2rTB7COYTjfGt31sfQKASk1Zh1rv5TXwShzfkU9v-MNZya9ZygAVLL7244e91sMeUnUG-guwAoW_CbxIZZ3K2pXMuwCtj8MTuZekedoMl84T5Bipp1rZjv1DN8eyY7S3pEm6_fxMX-s3i5_rWwoulnucz0aF5udz0_iHQXIS9L0Y0cK9IsXu8q9Qf_Fqzx7Ry8dJmIHh-XOmUDBXjyDDc_OPgMVQo9aPRqXhc-Dhm3DMtziO8BIM3ZIJtfjmi5UkZ0HVqiwahKqBBxqV__UIQ274pgRLBn2Cvz11NFrg_mZXQCsU0jWneeOQoq-qdC6AjN_mNypU7O7fH4Z-BDMaFxmsbZ18opKe3oREylcJI2dG4Ez0S0]--></g></svg>